STARTFONT 2.3
FONT -FontForge-Source Sans Pro-Book-R-Normal-SansPro--20-200-72-72-P-98-ISO10646-1
SIZE 20 72 72  2
FONTBOUNDINGBOX 53 26 -9 -6
COMMENT "Generated by fontforge, http://fontforge.sourceforge.net"
COMMENT "Copyright 2010, 2012, 2014 Adobe Systems Incorporated (http://www.adobe.com/), with Reserved Font Name `Source'."
STARTPROPERTIES 41
FOUNDRY "FontForge"
FAMILY_NAME "Source Sans Pro"
WEIGHT_NAME "Book"
SLANT "R"
SETWIDTH_NAME "Normal"
ADD_STYLE_NAME "SansPro"
PIXEL_SIZE 20
POINT_SIZE 200
RESOLUTION_X 72
RESOLUTION_Y 72
SPACING "P"
AVERAGE_WIDTH 98
CHARSET_REGISTRY "ISO10646"
CHARSET_ENCODING "1"
FONTNAME_REGISTRY ""
CHARSET_COLLECTIONS "ISO8859-2 ISO8859-5 ISO8859-7 ISO8859-9 ISO8859-4 ISO10646-1"
BITS_PER_PIXEL 2
FONT_NAME "SourceSansPro-Regular"
FACE_NAME "Source Sans Pro Regular"
COPYRIGHT "Copyright 2010, 2012, 2014 Adobe Systems Incorporated (http://www.adobe.com/), with Reserved Font Name `Source'."
FONT_VERSION "2.021;PS 2.000;hotconv 1.0.86;makeotf.lib2.5.63406"
FONT_ASCENT 15
FONT_DESCENT 5
UNDERLINE_POSITION -2
UNDERLINE_THICKNESS 1
X_HEIGHT 9
CAP_HEIGHT 12
RAW_ASCENT 750
RAW_DESCENT 250
NORM_SPACE 4
RELATIVE_WEIGHT 40
RELATIVE_SETWIDTH 50
SUPERSCRIPT_X 0
SUPERSCRIPT_Y 7
SUPERSCRIPT_SIZE 12
SUBSCRIPT_X 0
SUBSCRIPT_Y 1
SUBSCRIPT_SIZE 12
FIGURE_WIDTH 10
AVG_LOWERCASE_WIDTH 100
AVG_UPPERCASE_WIDTH 120
ENDPROPERTIES
CHARS 1896
STARTCHAR space
ENCODING 32
SWIDTH 200 0
DWIDTH 4 0
BBX 1 1 0 0
BITMAP
00
ENDCHAR
STARTCHAR exclam
ENCODING 33
SWIDTH 289 0
DWIDTH 6 0
BBX 3 15 1 0
BITMAP
14
38
38
38
38
28
28
28
24
24
00
00
38
7C
38
ENDCHAR
STARTCHAR quotedbl
ENCODING 34
SWIDTH 425 0
DWIDTH 9 0
BBX 6 5 1 9
BITMAP
74F0
74E0
74A0
70A0
30A0
ENDCHAR
STARTCHAR numbersign
ENCODING 35
SWIDTH 497 0
DWIDTH 10 0
BBX 10 13 0 0
BITMAP
024300
024300
034300
030600
3FFFD0
060A00
060900
0A0900
7FFFC0
090C00
0D0C00
0C1800
0C1800
ENDCHAR
STARTCHAR dollar
ENCODING 36
SWIDTH 497 0
DWIDTH 10 0
BBX 8 16 1 -1
BITMAP
0280
0280
0BF4
381D
7400
7400
7800
1F40
06E4
007C
001E
000E
000E
A42C
2BE4
0280
ENDCHAR
STARTCHAR percent
ENCODING 37
SWIDTH 824 0
DWIDTH 16 0
BBX 16 14 0 0
BITMAP
00000300
0BD00600
28700C00
30242800
70283000
7028A000
3024C2F4
28728A1D
0BD30D0A
00090C06
000C0C0A
00240D0A
00700A1D
009002F4
ENDCHAR
STARTCHAR ampersand
ENCODING 38
SWIDTH 609 0
DWIDTH 12 0
BBX 12 13 0 0
BITMAP
01B800
074A00
0B0700
0B0A00
076C00
03E000
0BD009
2DB01D
383828
741E74
7407E0
2D07F9
06F91A
ENDCHAR
STARTCHAR quotesingle
ENCODING 39
SWIDTH 249 0
DWIDTH 5 0
BBX 3 5 1 9
BITMAP
74
74
74
70
30
ENDCHAR
STARTCHAR parenleft
ENCODING 40
SWIDTH 303 0
DWIDTH 6 0
BBX 4 18 1 -3
BITMAP
02
0A
0D
1C
28
34
34
70
70
70
70
34
34
28
1C
0D
0A
02
ENDCHAR
STARTCHAR parenright
ENCODING 41
SWIDTH 303 0
DWIDTH 6 0
BBX 4 18 1 -3
BITMAP
80
A0
70
34
28
1C
0D
0D
0D
0D
0D
0D
1C
28
34
70
A0
80
ENDCHAR
STARTCHAR asterisk
ENCODING 42
SWIDTH 418 0
DWIDTH 8 0
BBX 6 6 1 8
BITMAP
0600
4610
BFF0
1F80
2AC0
2080
ENDCHAR
STARTCHAR plus
ENCODING 43
SWIDTH 497 0
DWIDTH 10 0
BBX 10 9 0 2
BITMAP
00A000
00A000
00A000
00A000
7FFFD0
00A000
00A000
00A000
00A000
ENDCHAR
STARTCHAR comma
ENCODING 44
SWIDTH 249 0
DWIDTH 5 0
BBX 3 5 1 -3
BITMAP
78
7C
18
24
A0
ENDCHAR
STARTCHAR hyphen
ENCODING 45
SWIDTH 311 0
DWIDTH 6 0
BBX 6 1 0 5
BITMAP
7FD0
ENDCHAR
STARTCHAR period
ENCODING 46
SWIDTH 249 0
DWIDTH 5 0
BBX 3 3 1 0
BITMAP
74
B8
74
ENDCHAR
STARTCHAR slash
ENCODING 47
SWIDTH 350 0
DWIDTH 7 0
BBX 7 17 0 -3
BITMAP
0028
0034
0070
00A0
00D0
01C0
0180
0240
0300
0600
0900
0C00
1800
2800
3400
7000
A000
ENDCHAR
STARTCHAR zero
ENCODING 48
SWIDTH 497 0
DWIDTH 10 0
BBX 8 13 1 0
BITMAP
0BE0
3828
700D
A00E
E00B
E00B
D00B
E00B
E00B
A00E
701D
3828
0BE0
ENDCHAR
STARTCHAR one
ENCODING 49
SWIDTH 497 0
DWIDTH 10 0
BBX 8 13 1 0
BITMAP
06C0
2FC0
02C0
02C0
02C0
02C0
02C0
02C0
02C0
02C0
02C0
02C0
7FFE
ENDCHAR
STARTCHAR two
ENCODING 50
SWIDTH 497 0
DWIDTH 10 0
BBX 9 13 0 0
BITMAP
0BF800
391E00
100740
000740
000740
000B00
001E00
003C00
00F400
02E000
0B8000
2E0000
7FFFC0
ENDCHAR
STARTCHAR three
ENCODING 51
SWIDTH 497 0
DWIDTH 10 0
BBX 9 13 0 0
BITMAP
0BF800
291F00
000740
000740
000740
001E00
02F800
001B00
000380
0002C0
100380
780B40
1BF900
ENDCHAR
STARTCHAR four
ENCODING 52
SWIDTH 497 0
DWIDTH 10 0
BBX 10 13 0 0
BITMAP
002E00
007E00
00EE00
02CE00
074E00
0E0E00
2C0E00
740E00
BFFFD0
000E00
000E00
000E00
000E00
ENDCHAR
STARTCHAR five
ENCODING 53
SWIDTH 497 0
DWIDTH 10 0
BBX 9 13 0 0
BITMAP
0FFF40
0D0000
1D0000
1D0000
1C0000
1EF900
091B40
000380
0002C0
0002C0
100380
781B00
1BF800
ENDCHAR
STARTCHAR six
ENCODING 54
SWIDTH 497 0
DWIDTH 10 0
BBX 8 13 1 0
BITMAP
06F9
1D09
3400
B000
A000
E6F4
F81D
E00B
E007
B007
740B
2D1D
0BE4
ENDCHAR
STARTCHAR seven
ENCODING 55
SWIDTH 497 0
DWIDTH 10 0
BBX 8 13 1 0
BITMAP
FFFF
000E
002C
0074
00B0
00E0
01C0
02C0
0380
0380
0740
0740
0740
ENDCHAR
STARTCHAR eight
ENCODING 56
SWIDTH 497 0
DWIDTH 10 0
BBX 8 13 1 0
BITMAP
0BE4
382C
700E
B00A
780D
1F78
1FF4
747D
E00F
D007
E00B
741D
1BE4
ENDCHAR
STARTCHAR nine
ENCODING 57
SWIDTH 497 0
DWIDTH 10 0
BBX 8 13 1 0
BITMAP
1BD0
7478
E01D
D00E
D00B
E00F
B46F
1F9B
000A
000D
002C
A074
6F90
ENDCHAR
STARTCHAR colon
ENCODING 58
SWIDTH 249 0
DWIDTH 5 0
BBX 3 10 1 0
BITMAP
74
B8
74
00
00
00
00
74
B8
74
ENDCHAR
STARTCHAR semicolon
ENCODING 59
SWIDTH 249 0
DWIDTH 5 0
BBX 3 13 1 -3
BITMAP
74
B8
74
00
00
00
00
00
78
7C
18
24
A0
ENDCHAR
STARTCHAR less
ENCODING 60
SWIDTH 497 0
DWIDTH 10 0
BBX 10 8 0 3
BITMAP
000190
002F80
06E400
7E4000
7E0000
06E400
002F80
000190
ENDCHAR
STARTCHAR equal
ENCODING 61
SWIDTH 497 0
DWIDTH 10 0
BBX 10 5 0 4
BITMAP
7FFFD0
000000
000000
000000
7FFFD0
ENDCHAR
STARTCHAR greater
ENCODING 62
SWIDTH 497 0
DWIDTH 10 0
BBX 10 8 0 3
BITMAP
640000
2F8000
01B900
001BD0
001BD0
01B900
2F8000
640000
ENDCHAR
STARTCHAR question
ENCODING 63
SWIDTH 425 0
DWIDTH 9 0
BBX 7 13 1 0
BITMAP
6F90
E0B4
0034
0074
01E0
0380
0B00
0A00
0000
0000
0A00
1F00
0A00
ENDCHAR
STARTCHAR at
ENCODING 64
SWIDTH 847 0
DWIDTH 17 0
BBX 15 16 1 -3
BITMAP
001BF900
01E40780
0B4000A0
1C000034
340B9828
70287818
A070341C
D0A0341C
D0D07018
D0D0B034
90A1B0A0
A02E2F80
34000000
1D000000
0B906800
01BFE400
ENDCHAR
STARTCHAR A
ENCODING 65
SWIDTH 544 0
DWIDTH 11 0
BBX 11 13 0 0
BITMAP
00B800
00EC00
01DD00
028E00
034B00
074740
0B0380
0E02C0
1FFFD0
2C00E0
3800B0
740074
B00038
ENDCHAR
STARTCHAR B
ENCODING 66
SWIDTH 588 0
DWIDTH 12 0
BBX 10 13 1 0
BITMAP
7FF900
740780
7402C0
7401C0
7402C0
740B40
7FFE40
7406D0
7400F0
7400B0
7400E0
7406D0
7FFA00
ENDCHAR
STARTCHAR C
ENCODING 67
SWIDTH 571 0
DWIDTH 11 0
BBX 10 13 1 0
BITMAP
01BE40
0E41D0
2C0000
740000
B00000
E00000
E00000
F00000
B00000
740000
3C0040
1E41E0
02FE40
ENDCHAR
STARTCHAR D
ENCODING 68
SWIDTH 615 0
DWIDTH 12 0
BBX 11 13 1 0
BITMAP
7FF900
741B40
7402D0
7400E0
7400B0
740074
740074
7400B4
7400B0
7400E0
7402D0
741B40
7FF900
ENDCHAR
STARTCHAR E
ENCODING 69
SWIDTH 527 0
DWIDTH 11 0
BBX 9 13 1 0
BITMAP
7FFF40
740000
740000
740000
740000
740000
7FFD00
740000
740000
740000
740000
740000
7FFF80
ENDCHAR
STARTCHAR F
ENCODING 70
SWIDTH 494 0
DWIDTH 10 0
BBX 9 13 1 0
BITMAP
7FFF40
740000
740000
740000
740000
740000
7FFD00
740000
740000
740000
740000
740000
740000
ENDCHAR
STARTCHAR G
ENCODING 71
SWIDTH 617 0
DWIDTH 12 0
BBX 10 13 1 0
BITMAP
01BF80
0F41E0
2C0000
740000
B00000
E00000
E00000
F01FF0
B000B0
7400B0
3C00B0
0F41B0
02BF80
ENDCHAR
STARTCHAR H
ENCODING 72
SWIDTH 652 0
DWIDTH 13 0
BBX 11 13 1 0
BITMAP
740074
740074
740074
740074
740074
740074
7FFFF4
740074
740074
740074
740074
740074
740074
ENDCHAR
STARTCHAR I
ENCODING 73
SWIDTH 263 0
DWIDTH 5 0
BBX 3 13 1 0
BITMAP
74
74
74
74
74
74
74
74
74
74
74
74
74
ENDCHAR
STARTCHAR J
ENCODING 74
SWIDTH 480 0
DWIDTH 10 0
BBX 7 13 1 0
BITMAP
002C
002C
002C
002C
002C
002C
002C
002C
002C
0038
4038
E0B4
6F90
ENDCHAR
STARTCHAR K
ENCODING 75
SWIDTH 579 0
DWIDTH 12 0
BBX 11 13 1 0
BITMAP
7401D0
740780
741E00
743C00
74B400
76F000
7FB800
7E2D00
780E00
740740
7402C0
7401E0
7400B4
ENDCHAR
STARTCHAR L
ENCODING 76
SWIDTH 486 0
DWIDTH 10 0
BBX 9 13 1 0
BITMAP
740000
740000
740000
740000
740000
740000
740000
740000
740000
740000
740000
740000
7FFF40
ENDCHAR
STARTCHAR M
ENCODING 77
SWIDTH 727 0
DWIDTH 15 0
BBX 12 13 1 0
BITMAP
7C001E
7D002E
7A007A
7700AA
7740DA
7681CA
75C28A
74E34A
74770A
743A0A
742D0A
74180A
74000A
ENDCHAR
STARTCHAR N
ENCODING 78
SWIDTH 647 0
DWIDTH 13 0
BBX 10 13 1 0
BITMAP
780070
7D0070
7B0070
778070
76C070
74E070
747470
742C70
741D70
740B70
7403B0
7401F0
7400F0
ENDCHAR
STARTCHAR O
ENCODING 79
SWIDTH 664 0
DWIDTH 13 0
BBX 12 13 1 0
BITMAP
02FE40
1E42D0
3800B4
740038
B0002C
E0002D
E0002D
E0002D
B0002C
740038
3C00B4
1E42D0
02FE40
ENDCHAR
STARTCHAR P
ENCODING 80
SWIDTH 566 0
DWIDTH 11 0
BBX 10 13 1 0
BITMAP
7FF900
740780
7402D0
7401D0
7401D0
7402C0
740780
7FF900
740000
740000
740000
740000
740000
ENDCHAR
STARTCHAR Q
ENCODING 81
SWIDTH 664 0
DWIDTH 13 0
BBX 12 16 1 -3
BITMAP
02FE40
1E42D0
3800B4
740038
B0002C
E0002D
E0001D
F0002D
B0002C
740038
3C00B4
1E42D0
02FE40
003C00
001E40
0002FD
ENDCHAR
STARTCHAR R
ENCODING 82
SWIDTH 569 0
DWIDTH 11 0
BBX 10 13 1 0
BITMAP
7FF900
740780
7401D0
7401D0
7401D0
7407C0
7FFF40
743800
741D00
740A00
740740
7402C0
7401E0
ENDCHAR
STARTCHAR S
ENCODING 83
SWIDTH 534 0
DWIDTH 11 0
BBX 9 13 1 0
BITMAP
0AF900
2D0B40
740000
740000
780000
2F9000
06F900
002F40
000780
0003C0
400380
F40B40
1BF800
ENDCHAR
STARTCHAR T
ENCODING 84
SWIDTH 536 0
DWIDTH 11 0
BBX 10 13 0 0
BITMAP
7FFFF0
007400
007400
007400
007400
007400
007400
007400
007400
007400
007400
007400
007400
ENDCHAR
STARTCHAR U
ENCODING 85
SWIDTH 645 0
DWIDTH 13 0
BBX 10 13 1 0
BITMAP
740070
740070
740070
740070
740070
740070
740070
740070
740070
3800B0
2C00E0
1E46C0
02FE00
ENDCHAR
STARTCHAR V
ENCODING 86
SWIDTH 515 0
DWIDTH 10 0
BBX 10 13 0 0
BITMAP
F000B0
B400E0
7800D0
3801D0
2C02C0
1D0380
0E0740
0B0B00
074E00
039D00
02EC00
01F800
00F400
ENDCHAR
STARTCHAR W
ENCODING 87
SWIDTH 786 0
DWIDTH 16 0
BBX 15 13 0 0
BITMAP
7403801C
7407C02C
380AD038
2C0AE038
2C0DA074
1D1C7070
0D2834B0
0E2838A0
0A3428D0
0B701DD0
07B00EC0
03E00F80
03D00B80
ENDCHAR
STARTCHAR X
ENCODING 88
SWIDTH 513 0
DWIDTH 10 0
BBX 10 13 0 0
BITMAP
7801D0
2D02C0
0E0740
074E00
039D00
01F800
00F400
02F800
035D00
0B0B00
1D0780
3C02C0
7400E0
ENDCHAR
STARTCHAR Y
ENCODING 89
SWIDTH 476 0
DWIDTH 10 0
BBX 10 13 0 0
BITMAP
B001D0
740380
2C0740
1D0A00
0A1D00
076800
02F400
01E000
00E000
00E000
00E000
00E000
00E000
ENDCHAR
STARTCHAR Z
ENCODING 90
SWIDTH 539 0
DWIDTH 11 0
BBX 9 13 1 0
BITMAP
7FFFC0
000B80
000F00
002D00
007800
00F000
02D000
078000
0F4000
2E0000
7C0000
B40000
FFFFC0
ENDCHAR
STARTCHAR bracketleft
ENCODING 91
SWIDTH 303 0
DWIDTH 6 0
BBX 4 17 2 -3
BITMAP
FD
C0
C0
C0
C0
C0
C0
C0
C0
C0
C0
C0
C0
C0
C0
C0
FD
ENDCHAR
STARTCHAR backslash
ENCODING 92
SWIDTH 350 0
DWIDTH 7 0
BBX 7 17 0 -3
BITMAP
A000
7000
3400
2800
1C00
0D00
0900
0600
0300
0240
0180
00C0
0090
0060
0030
0034
0028
ENDCHAR
STARTCHAR bracketright
ENCODING 93
SWIDTH 303 0
DWIDTH 6 0
BBX 5 17 0 -3
BITMAP
7F40
0340
0340
0340
0340
0340
0340
0340
0340
0340
0340
0340
0340
0340
0340
0340
7F40
ENDCHAR
STARTCHAR asciicircum
ENCODING 94
SWIDTH 497 0
DWIDTH 10 0
BBX 8 7 1 6
BITMAP
03C0
0690
0960
1C34
2828
341C
B00D
ENDCHAR
STARTCHAR underscore
ENCODING 95
SWIDTH 500 0
DWIDTH 10 0
BBX 10 1 0 -2
BITMAP
BFFFE0
ENDCHAR
STARTCHAR grave
ENCODING 96
SWIDTH 542 0
DWIDTH 11 0
BBX 4 4 3 11
BITMAP
90
F0
2C
09
ENDCHAR
STARTCHAR a
ENCODING 97
SWIDTH 504 0
DWIDTH 10 0
BBX 8 10 1 0
BITMAP
1BE4
642C
001D
000E
06BE
3E4E
B00E
E00E
B46E
2F8A
ENDCHAR
STARTCHAR b
ENCODING 98
SWIDTH 553 0
DWIDTH 11 0
BBX 9 14 1 0
BITMAP
740000
740000
740000
740000
75F900
7D0B40
740380
7402C0
7402C0
7402C0
7402C0
740780
7D1F00
72F800
ENDCHAR
STARTCHAR c
ENCODING 99
SWIDTH 456 0
DWIDTH 9 0
BBX 8 10 1 0
BITMAP
07F8
2D18
7400
F000
E000
E000
F000
B400
3D09
0BF8
ENDCHAR
STARTCHAR d
ENCODING 100
SWIDTH 555 0
DWIDTH 11 0
BBX 9 14 1 0
BITMAP
000740
000740
000740
000740
0BE740
2D1B40
B40740
F00740
E00740
E00740
E00740
B00740
381B40
1BE340
ENDCHAR
STARTCHAR e
ENCODING 101
SWIDTH 496 0
DWIDTH 10 0
BBX 8 10 1 0
BITMAP
0BE4
291D
B00B
E007
FFFF
E000
E000
B400
2D05
0BF9
ENDCHAR
STARTCHAR f
ENCODING 102
SWIDTH 292 0
DWIDTH 6 0
BBX 7 14 0 0
BITMAP
06F4
0B00
0E00
0E00
7FE0
0E00
0E00
0E00
0E00
0E00
0E00
0E00
0E00
0E00
ENDCHAR
STARTCHAR g
ENCODING 103
SWIDTH 504 0
DWIDTH 10 0
BBX 9 14 1 -4
BITMAP
0BFF80
382C00
B01D00
B00D00
B01D00
382800
2BE000
700000
3FFE00
600780
D00280
D00380
B41F00
1BE400
ENDCHAR
STARTCHAR h
ENCODING 104
SWIDTH 544 0
DWIDTH 11 0
BBX 9 14 1 0
BITMAP
740000
740000
740000
740000
75F900
7A0B00
740740
740740
740740
740740
740740
740740
740740
740740
ENDCHAR
STARTCHAR i
ENCODING 105
SWIDTH 246 0
DWIDTH 5 0
BBX 3 14 1 0
BITMAP
74
74
00
00
74
74
74
74
74
74
74
74
74
74
ENDCHAR
STARTCHAR j
ENCODING 106
SWIDTH 247 0
DWIDTH 5 0
BBX 5 18 -1 -4
BITMAP
0740
0740
0000
0000
0740
0740
0740
0740
0740
0740
0740
0740
0740
0740
0740
0740
0B00
BD00
ENDCHAR
STARTCHAR k
ENCODING 107
SWIDTH 495 0
DWIDTH 10 0
BBX 9 14 1 0
BITMAP
740000
740000
740000
740000
740E00
742C00
747400
75D000
77D000
7FF000
7D7800
742D00
740E00
740740
ENDCHAR
STARTCHAR l
ENCODING 108
SWIDTH 255 0
DWIDTH 5 0
BBX 4 14 1 0
BITMAP
74
74
74
74
74
74
74
74
74
74
74
74
74
2D
ENDCHAR
STARTCHAR m
ENCODING 109
SWIDTH 829 0
DWIDTH 17 0
BBX 14 10 1 0
BITMAP
71F82F80
791E91E0
740B40B0
740740B0
740740B0
740740B0
740740B0
740740B0
740740B0
740740B0
ENDCHAR
STARTCHAR n
ENCODING 110
SWIDTH 547 0
DWIDTH 11 0
BBX 9 10 1 0
BITMAP
71F900
790B00
740740
740740
740740
740740
740740
740740
740740
740740
ENDCHAR
STARTCHAR o
ENCODING 111
SWIDTH 542 0
DWIDTH 11 0
BBX 9 10 1 0
BITMAP
0BF400
2D1E00
B40740
E00380
E003C0
E003C0
E00380
B40740
2D1E00
0BF400
ENDCHAR
STARTCHAR p
ENCODING 112
SWIDTH 555 0
DWIDTH 11 0
BBX 9 14 1 -4
BITMAP
71F900
7D0B40
740380
7402C0
7402C0
7402C0
7402C0
740780
7D1F00
76F800
740000
740000
740000
740000
ENDCHAR
STARTCHAR q
ENCODING 113
SWIDTH 555 0
DWIDTH 11 0
BBX 9 14 1 -4
BITMAP
0BE740
2D1B40
B40740
F00740
E00740
E00740
E00740
B00740
381B40
1BE740
000740
000740
000740
000740
ENDCHAR
STARTCHAR r
ENCODING 114
SWIDTH 347 0
DWIDTH 7 0
BBX 6 10 1 0
BITMAP
72E0
7900
7400
7400
7400
7400
7400
7400
7400
7400
ENDCHAR
STARTCHAR s
ENCODING 115
SWIDTH 419 0
DWIDTH 8 0
BBX 7 10 1 0
BITMAP
2FE0
B460
E000
B400
2E40
06F0
0078
0038
D074
6F90
ENDCHAR
STARTCHAR t
ENCODING 116
SWIDTH 338 0
DWIDTH 7 0
BBX 7 13 0 0
BITMAP
0E00
0E00
0E00
7FF4
0E00
0E00
0E00
0E00
0E00
0E00
0E00
0B00
02F4
ENDCHAR
STARTCHAR u
ENCODING 117
SWIDTH 544 0
DWIDTH 11 0
BBX 9 10 1 0
BITMAP
B00740
B00740
B00740
B00740
B00740
B00740
740740
740B40
382B40
1B9340
ENDCHAR
STARTCHAR v
ENCODING 118
SWIDTH 467 0
DWIDTH 9 0
BBX 9 10 0 0
BITMAP
B002C0
740380
380740
2C0B00
1D0E00
0E1D00
072C00
037800
02B400
01E000
ENDCHAR
STARTCHAR w
ENCODING 119
SWIDTH 718 0
DWIDTH 14 0
BBX 14 10 0 0
BITMAP
740B00A0
380F40D0
381E81D0
2C19C2C0
1D24D280
0E34D340
0A70A740
07A07700
07D03E00
03D03D00
ENDCHAR
STARTCHAR x
ENCODING 120
SWIDTH 446 0
DWIDTH 9 0
BBX 9 10 0 0
BITMAP
780B00
2D0E00
0E2C00
07B400
02E000
03E000
0B7400
1D2C00
280E00
740740
ENDCHAR
STARTCHAR y
ENCODING 121
SWIDTH 467 0
DWIDTH 9 0
BBX 9 14 0 -4
BITMAP
B002C0
740380
2C0740
1D0B00
0E0E00
0B1D00
076C00
02B800
01F000
00E000
00D000
01C000
074000
7D0000
ENDCHAR
STARTCHAR z
ENCODING 122
SWIDTH 425 0
DWIDTH 9 0
BBX 8 10 0 0
BITMAP
2FFE
002D
0078
00F4
02E0
03C0
0B40
1E00
3C00
7FFF
ENDCHAR
STARTCHAR braceleft
ENCODING 123
SWIDTH 303 0
DWIDTH 6 0
BBX 6 17 0 -3
BITMAP
02D0
0A00
0A00
0A00
0A00
0A00
0A00
1D00
7C00
1D00
0A00
0A00
0A00
0A00
0A00
0A00
02D0
ENDCHAR
STARTCHAR bar
ENCODING 124
SWIDTH 241 0
DWIDTH 5 0
BBX 1 20 2 -5
BITMAP
C0
C0
C0
C0
C0
C0
C0
C0
C0
C0
C0
C0
C0
C0
C0
C0
C0
C0
C0
C0
ENDCHAR
STARTCHAR braceright
ENCODING 125
SWIDTH 303 0
DWIDTH 6 0
BBX 6 17 0 -3
BITMAP
7900
0A00
0A00
0A00
0A00
0A00
0A00
0740
02D0
0740
0A00
0A00
0A00
0A00
0A00
0A00
7900
ENDCHAR
STARTCHAR asciitilde
ENCODING 126
SWIDTH 497 0
DWIDTH 10 0
BBX 8 2 1 6
BITMAP
7E46
91BD
ENDCHAR
STARTCHAR uni00A0
ENCODING 160
SWIDTH 202 0
DWIDTH 4 0
BBX 1 1 0 0
BITMAP
00
ENDCHAR
STARTCHAR exclamdown
ENCODING 161
SWIDTH 289 0
DWIDTH 6 0
BBX 3 15 1 -5
BITMAP
38
7C
38
00
00
24
24
28
28
28
38
38
38
38
14
ENDCHAR
STARTCHAR cent
ENCODING 162
SWIDTH 497 0
DWIDTH 10 0
BBX 8 13 1 0
BITMAP
0090
0090
06F9
2D95
7490
B090
B090
B090
7490
2D96
06F9
0090
0090
ENDCHAR
STARTCHAR sterling
ENCODING 163
SWIDTH 497 0
DWIDTH 10 0
BBX 8 13 1 0
BITMAP
06F9
0E0A
2C00
2C00
2C00
1D00
FFF8
0E00
0E00
0E00
1D00
7800
FFFF
ENDCHAR
STARTCHAR currency
ENCODING 164
SWIDTH 497 0
DWIDTH 10 0
BBX 9 9 0 2
BITMAP
100040
7AFAC0
1E0B40
280380
380280
280380
1E0B40
7AFAC0
100040
ENDCHAR
STARTCHAR yen
ENCODING 165
SWIDTH 497 0
DWIDTH 10 0
BBX 10 13 0 0
BITMAP
7401D0
3C0380
1D0740
0E0B00
075D00
03AC00
02F400
3FFFC0
00E000
2AFA80
15F540
00E000
00E000
ENDCHAR
STARTCHAR brokenbar
ENCODING 166
SWIDTH 241 0
DWIDTH 5 0
BBX 1 20 2 -5
BITMAP
C0
C0
C0
C0
C0
C0
C0
C0
C0
40
40
C0
C0
C0
C0
C0
C0
C0
C0
C0
ENDCHAR
STARTCHAR section
ENCODING 167
SWIDTH 497 0
DWIDTH 10 0
BBX 8 15 1 -1
BITMAP
0BE4
2818
3800
3D00
2FD0
B6F8
D06E
D00B
B407
2E49
06F8
0078
002C
6478
2FD0
ENDCHAR
STARTCHAR dieresis
ENCODING 168
SWIDTH 542 0
DWIDTH 11 0
BBX 7 2 2 12
BITMAP
7474
7474
ENDCHAR
STARTCHAR copyright
ENCODING 169
SWIDTH 744 0
DWIDTH 15 0
BBX 13 13 1 0
BITMAP
01BF9000
0A407800
28000A00
606F4340
91D18180
C3400080
C34000C0
C3400080
91D18180
606F4340
28000A00
0A407800
01BF9000
ENDCHAR
STARTCHAR ordfeminine
ENCODING 170
SWIDTH 345 0
DWIDTH 7 0
BBX 6 6 0 8
BITMAP
1BD0
14A0
0AF0
3970
70B0
2F60
ENDCHAR
STARTCHAR guillemotleft
ENCODING 171
SWIDTH 429 0
DWIDTH 9 0
BBX 7 7 1 2
BITMAP
0824
28A0
A2C0
D340
A2C0
28A0
0824
ENDCHAR
STARTCHAR logicalnot
ENCODING 172
SWIDTH 497 0
DWIDTH 10 0
BBX 10 5 0 2
BITMAP
7FFFD0
0000D0
0000D0
0000D0
0000D0
ENDCHAR
STARTCHAR uni00AD
ENCODING 173
SWIDTH 311 0
DWIDTH 6 0
BBX 6 1 0 5
BITMAP
7FD0
ENDCHAR
STARTCHAR registered
ENCODING 174
SWIDTH 423 0
DWIDTH 8 0
BBX 8 8 0 6
BITMAP
0BE4
281C
67D6
9663
97D3
6666
281C
0BE4
ENDCHAR
STARTCHAR macron
ENCODING 175
SWIDTH 542 0
DWIDTH 11 0
BBX 6 1 2 12
BITMAP
7FF0
ENDCHAR
STARTCHAR degree
ENCODING 176
SWIDTH 331 0
DWIDTH 7 0
BBX 5 5 1 9
BITMAP
6E00
D280
C180
D280
6E00
ENDCHAR
STARTCHAR plusminus
ENCODING 177
SWIDTH 497 0
DWIDTH 10 0
BBX 10 11 0 0
BITMAP
00A000
00A000
00A000
00A000
7FFFD0
00A000
00A000
00A000
005000
000000
7FFFD0
ENDCHAR
STARTCHAR two.sups
ENCODING 178
SWIDTH 367 0
DWIDTH 7 0
BBX 6 8 1 8
BITMAP
6E00
D280
01C0
0280
0740
1D00
7800
FFD0
ENDCHAR
STARTCHAR three.sups
ENCODING 179
SWIDTH 367 0
DWIDTH 7 0
BBX 6 8 1 8
BITMAP
6E40
92C0
01C0
0280
1F40
01D0
D1D0
6F40
ENDCHAR
STARTCHAR acute
ENCODING 180
SWIDTH 542 0
DWIDTH 11 0
BBX 4 4 4 11
BITMAP
06
1E
38
60
ENDCHAR
STARTCHAR uni00B5
ENCODING 181
SWIDTH 562 0
DWIDTH 11 0
BBX 10 13 1 -3
BITMAP
740740
740740
740740
740740
740740
740740
740740
740B40
7C2B40
7BE2E0
740000
740000
740000
ENDCHAR
STARTCHAR paragraph
ENCODING 182
SWIDTH 560 0
DWIDTH 11 0
BBX 9 15 1 -2
BITMAP
1BE740
7FE740
FFE740
FFE740
FFE740
FFE740
BFE740
2FE740
059740
000740
000740
000740
000740
000740
000640
ENDCHAR
STARTCHAR periodcentered
ENCODING 183
SWIDTH 249 0
DWIDTH 5 0
BBX 3 3 1 5
BITMAP
74
B8
74
ENDCHAR
STARTCHAR cedilla
ENCODING 184
SWIDTH 542 0
DWIDTH 11 0
BBX 4 6 3 -5
BITMAP
04
0C
2E
07
0B
79
ENDCHAR
STARTCHAR one.sups
ENCODING 185
SWIDTH 367 0
DWIDTH 7 0
BBX 4 8 1 8
BITMAP
1E
7E
0A
0A
0A
0A
0A
0A
ENDCHAR
STARTCHAR ordmasculine
ENCODING 186
SWIDTH 365 0
DWIDTH 7 0
BBX 7 6 0 8
BITMAP
1BD0
3474
7028
7028
3474
1BD0
ENDCHAR
STARTCHAR guillemotright
ENCODING 187
SWIDTH 429 0
DWIDTH 9 0
BBX 7 7 1 2
BITMAP
9140
74D0
1D74
0A28
1D74
74D0
9140
ENDCHAR
STARTCHAR onequarter
ENCODING 188
SWIDTH 781 0
DWIDTH 16 0
BBX 14 14 1 0
BITMAP
00001800
2D003400
BD006000
0D00C000
0D018000
0D030000
0D0A0380
0D0C0A80
0D281D80
00303580
00A0A180
00C0FFF0
02400180
03000180
ENDCHAR
STARTCHAR onehalf
ENCODING 189
SWIDTH 808 0
DWIDTH 16 0
BBX 15 14 1 0
BITMAP
00002400
2D006000
BD00D000
0D018000
0D034000
0D060000
0D0D1F80
0D1830A0
0D3000A0
00A000A0
00C001C0
02800740
03002D00
0A003FF4
ENDCHAR
STARTCHAR threequarters
ENCODING 190
SWIDTH 796 0
DWIDTH 16 0
BBX 15 14 1 0
BITMAP
00000900
6E401C00
92C02400
01C07000
02809000
1F41C000
01D242C0
D1D606C0
6F490DC0
001828C0
003470C0
0060BFF4
00D000C0
018000C0
ENDCHAR
STARTCHAR questiondown
ENCODING 191
SWIDTH 425 0
DWIDTH 9 0
BBX 7 14 1 -4
BITMAP
0740
0B80
0740
0000
0000
0340
0700
0E00
2C00
B400
E000
E000
B474
2FD0
ENDCHAR
STARTCHAR Agrave
ENCODING 192
SWIDTH 544 0
DWIDTH 11 0
BBX 11 17 0 0
BITMAP
024000
01E000
006400
000000
00B800
00EC00
01DD00
028E00
034B00
074740
0B0380
0E02C0
1FFFD0
2C00E0
3800B0
740074
B00038
ENDCHAR
STARTCHAR Aacute
ENCODING 193
SWIDTH 544 0
DWIDTH 11 0
BBX 11 17 0 0
BITMAP
000600
002D00
006000
000000
00B800
00EC00
01DD00
028E00
034B00
074740
0B0380
0E02C0
1FFFD0
2C00E0
3800B0
740074
B00038
ENDCHAR
STARTCHAR Acircumflex
ENCODING 194
SWIDTH 544 0
DWIDTH 11 0
BBX 11 17 0 0
BITMAP
00B800
029E00
060200
000000
00B800
00EC00
01DD00
028E00
034B00
074740
0B0380
0E02C0
1FFFD0
2C00E0
3800B0
740074
B00038
ENDCHAR
STARTCHAR Atilde
ENCODING 195
SWIDTH 544 0
DWIDTH 11 0
BBX 11 16 0 0
BITMAP
0BE1C0
0C2F40
000000
00B800
00EC00
01DD00
028E00
034B00
074740
0B0380
0E02C0
1FFFD0
2C00E0
3800B0
740074
B00038
ENDCHAR
STARTCHAR Adieresis
ENCODING 196
SWIDTH 544 0
DWIDTH 11 0
BBX 11 16 0 0
BITMAP
074740
074740
000000
00B800
00EC00
01DD00
028E00
034B00
074740
0B0380
0E02C0
1FFFD0
2C00E0
3800B0
740074
B00038
ENDCHAR
STARTCHAR Aring
ENCODING 197
SWIDTH 544 0
DWIDTH 11 0
BBX 11 18 0 0
BITMAP
00B800
018900
018900
00B800
000000
00B800
00EC00
01DD00
028E00
034B00
074740
0B0380
0E02C0
1FFFD0
2C00E0
3800B0
740074
B00038
ENDCHAR
STARTCHAR AE
ENCODING 198
SWIDTH 822 0
DWIDTH 16 0
BBX 16 13 0 0
BITMAP
0007FFFD
000BE000
001DE000
002CE000
0074E000
00F0E000
01D0FFF4
0380E000
07FFE000
0E00E000
2D00E000
3800E000
B400FFFD
ENDCHAR
STARTCHAR Ccedilla
ENCODING 199
SWIDTH 571 0
DWIDTH 11 0
BBX 10 18 1 -5
BITMAP
01BE40
0E41D0
2C0000
740000
B00000
E00000
E00000
F00000
B00000
740000
3C0040
1E41E0
02FE40
003400
007800
001D00
001D00
00E400
ENDCHAR
STARTCHAR Egrave
ENCODING 200
SWIDTH 527 0
DWIDTH 11 0
BBX 9 17 1 0
BITMAP
0A0000
078000
009000
000000
7FFF40
740000
740000
740000
740000
740000
7FFD00
740000
740000
740000
740000
740000
7FFF80
ENDCHAR
STARTCHAR Eacute
ENCODING 201
SWIDTH 527 0
DWIDTH 11 0
BBX 9 17 1 0
BITMAP
001800
007800
009000
000000
7FFF40
740000
740000
740000
740000
740000
7FFD00
740000
740000
740000
740000
740000
7FFF80
ENDCHAR
STARTCHAR Ecircumflex
ENCODING 202
SWIDTH 527 0
DWIDTH 11 0
BBX 9 17 1 0
BITMAP
02F000
076800
080900
000000
7FFF40
740000
740000
740000
740000
740000
7FFD00
740000
740000
740000
740000
740000
7FFF80
ENDCHAR
STARTCHAR Edieresis
ENCODING 203
SWIDTH 527 0
DWIDTH 11 0
BBX 9 16 1 0
BITMAP
1D0E00
1D0E00
000000
7FFF40
740000
740000
740000
740000
740000
7FFD00
740000
740000
740000
740000
740000
7FFF80
ENDCHAR
STARTCHAR Igrave
ENCODING 204
SWIDTH 263 0
DWIDTH 5 0
BBX 4 17 0 0
BITMAP
90
78
09
00
1D
1D
1D
1D
1D
1D
1D
1D
1D
1D
1D
1D
1D
ENDCHAR
STARTCHAR Iacute
ENCODING 205
SWIDTH 263 0
DWIDTH 5 0
BBX 4 17 1 0
BITMAP
06
1E
64
00
74
74
74
74
74
74
74
74
74
74
74
74
74
ENDCHAR
STARTCHAR Icircumflex
ENCODING 206
SWIDTH 263 0
DWIDTH 5 0
BBX 6 17 0 0
BITMAP
2F00
B680
8090
0000
1D00
1D00
1D00
1D00
1D00
1D00
1D00
1D00
1D00
1D00
1D00
1D00
1D00
ENDCHAR
STARTCHAR Idieresis
ENCODING 207
SWIDTH 263 0
DWIDTH 5 0
BBX 7 16 -1 0
BITMAP
7434
7434
0000
0740
0740
0740
0740
0740
0740
0740
0740
0740
0740
0740
0740
0740
ENDCHAR
STARTCHAR Eth
ENCODING 208
SWIDTH 638 0
DWIDTH 13 0
BBX 12 13 0 0
BITMAP
0BFE40
0B01E0
0B0078
0B002D
0B001E
0B000E
7FFC0E
0B000E
0B001D
0B002D
0B0078
0B01E0
0BFE40
ENDCHAR
STARTCHAR Ntilde
ENCODING 209
SWIDTH 647 0
DWIDTH 13 0
BBX 10 16 1 0
BITMAP
07E1C0
091F40
000000
780070
7D0070
7B0070
778070
76C070
74E070
747470
742C70
741D70
740B70
7403B0
7401F0
7400F0
ENDCHAR
STARTCHAR Ograve
ENCODING 210
SWIDTH 664 0
DWIDTH 13 0
BBX 12 17 1 0
BITMAP
028000
01E000
002400
000000
02FE40
1E42D0
3800B4
740038
B0002C
E0002D
E0002D
E0002D
B0002C
740038
3C00B4
1E42D0
02FE40
ENDCHAR
STARTCHAR Oacute
ENCODING 211
SWIDTH 664 0
DWIDTH 13 0
BBX 12 17 1 0
BITMAP
000600
001E00
002400
000000
02FE40
1E42D0
3800B4
740038
B0002C
E0002D
E0002D
E0002D
B0002C
740038
3C00B4
1E42D0
02FE40
ENDCHAR
STARTCHAR Ocircumflex
ENCODING 212
SWIDTH 664 0
DWIDTH 13 0
BBX 12 17 1 0
BITMAP
00BC00
02DA00
020240
000000
02FE40
1E42D0
3800B4
740038
B0002C
E0002D
E0002D
E0002D
B0002C
740038
3C00B4
1E42D0
02FE40
ENDCHAR
STARTCHAR Otilde
ENCODING 213
SWIDTH 664 0
DWIDTH 13 0
BBX 12 16 1 0
BITMAP
07E5C0
091F40
000000
02FE40
1E42D0
3800B4
740038
B0002C
E0002D
E0002D
E0002D
B0002C
740038
3C00B4
1E42D0
02FE40
ENDCHAR
STARTCHAR Odieresis
ENCODING 214
SWIDTH 664 0
DWIDTH 13 0
BBX 12 16 1 0
BITMAP
074340
074340
000000
02FE40
1E42D0
3800B4
740038
B0002C
E0002D
E0002D
E0002D
B0002C
740038
3C00B4
1E42D0
02FE40
ENDCHAR
STARTCHAR multiply
ENCODING 215
SWIDTH 497 0
DWIDTH 10 0
BBX 8 8 1 3
BITMAP
9006
741D
1D74
07D0
07D0
1D74
741D
9006
ENDCHAR
STARTCHAR Oslash
ENCODING 216
SWIDTH 664 0
DWIDTH 13 0
BBX 12 14 1 0
BITMAP
000004
02FE5C
1E42F8
3C00F4
7402B8
B00B2C
F01D2D
F0341D
B0A01D
B2C02C
7B4038
2D00B4
7F42D0
A2FE40
ENDCHAR
STARTCHAR Ugrave
ENCODING 217
SWIDTH 645 0
DWIDTH 13 0
BBX 10 17 1 0
BITMAP
024000
01E000
006400
000000
740070
740070
740070
740070
740070
740070
740070
740070
740070
3800B0
2C00E0
1E46C0
02FE00
ENDCHAR
STARTCHAR Uacute
ENCODING 218
SWIDTH 645 0
DWIDTH 13 0
BBX 10 17 1 0
BITMAP
000600
002D00
006000
000000
740070
740070
740070
740070
740070
740070
740070
740070
740070
3800B0
2C00E0
1E46C0
02FE00
ENDCHAR
STARTCHAR Ucircumflex
ENCODING 219
SWIDTH 645 0
DWIDTH 13 0
BBX 10 17 1 0
BITMAP
00B800
029E00
060200
000000
740070
740070
740070
740070
740070
740070
740070
740070
740070
3800B0
2C00E0
1E46C0
02FE00
ENDCHAR
STARTCHAR Udieresis
ENCODING 220
SWIDTH 645 0
DWIDTH 13 0
BBX 10 16 1 0
BITMAP
074740
074740
000000
740070
740070
740070
740070
740070
740070
740070
740070
740070
3800B0
2C00E0
1E46C0
02FE00
ENDCHAR
STARTCHAR Yacute
ENCODING 221
SWIDTH 476 0
DWIDTH 10 0
BBX 10 17 0 0
BITMAP
001800
007800
009000
000000
B001D0
740380
2C0740
1D0A00
0A1D00
076800
02F400
01E000
00E000
00E000
00E000
00E000
00E000
ENDCHAR
STARTCHAR Thorn
ENCODING 222
SWIDTH 583 0
DWIDTH 12 0
BBX 10 13 1 0
BITMAP
740000
740000
7FFA00
7407C0
7401D0
7400E0
7400E0
7401D0
740780
7FF900
740000
740000
740000
ENDCHAR
STARTCHAR germandbls
ENCODING 223
SWIDTH 576 0
DWIDTH 12 0
BBX 10 14 1 0
BITMAP
0BF400
2D1D00
380E00
740E00
742D00
747400
74B000
747400
742E40
7406D0
7400F0
7400B0
7491E0
746F80
ENDCHAR
STARTCHAR agrave
ENCODING 224
SWIDTH 504 0
DWIDTH 10 0
BBX 8 15 1 0
BITMAP
0800
1E00
0780
0080
0000
1BE4
642C
001D
000E
06BE
3E4E
B00E
E00E
B46E
2F8A
ENDCHAR
STARTCHAR aacute
ENCODING 225
SWIDTH 504 0
DWIDTH 10 0
BBX 8 15 1 0
BITMAP
0024
0078
01E0
0240
0000
1BE4
642C
001D
000E
06BE
3E4E
B00E
E00E
B46E
2F8A
ENDCHAR
STARTCHAR acircumflex
ENCODING 226
SWIDTH 504 0
DWIDTH 10 0
BBX 8 14 1 0
BITMAP
03E0
0E74
2408
0000
1BE4
642C
001D
000E
06BE
3E4E
B00E
E00E
B46E
2F8A
ENDCHAR
STARTCHAR atilde
ENCODING 227
SWIDTH 504 0
DWIDTH 10 0
BBX 8 14 1 0
BITMAP
0505
3A8A
30B8
0000
1BE4
642C
001D
000E
06BE
3E4E
B00E
E00E
B46E
2F8A
ENDCHAR
STARTCHAR adieresis
ENCODING 228
SWIDTH 504 0
DWIDTH 10 0
BBX 8 14 1 0
BITMAP
1C2C
1C2C
0000
0000
1BE4
642C
001D
000E
06BE
3E4E
B00E
E00E
B46E
2F8A
ENDCHAR
STARTCHAR aring
ENCODING 229
SWIDTH 504 0
DWIDTH 10 0
BBX 8 15 1 0
BITMAP
07E0
0D24
0D24
07E0
0000
1BE4
642C
001D
000E
06BE
3E4E
B00E
E00E
B46E
2F8A
ENDCHAR
STARTCHAR ae
ENCODING 230
SWIDTH 785 0
DWIDTH 16 0
BBX 14 10 1 0
BITMAP
1BE07E40
242A81D0
000F00A0
001E00A0
0BEFAAB0
7D0E5550
B00A0000
A00B4000
B46AD180
2F907F90
ENDCHAR
STARTCHAR ccedilla
ENCODING 231
SWIDTH 456 0
DWIDTH 9 0
BBX 8 15 1 -5
BITMAP
07F8
2D18
7400
F000
E000
E000
F000
B400
3D09
0BF8
0180
02D0
00B0
00A0
0780
ENDCHAR
STARTCHAR egrave
ENCODING 232
SWIDTH 496 0
DWIDTH 10 0
BBX 8 15 1 0
BITMAP
0800
1F00
0380
0080
0000
0BE4
291D
B00B
E007
FFFF
E000
E000
B400
2D05
0BF9
ENDCHAR
STARTCHAR eacute
ENCODING 233
SWIDTH 496 0
DWIDTH 10 0
BBX 8 15 1 0
BITMAP
0018
0078
01E0
0180
0000
0BE4
291D
B00B
E007
FFFF
E000
E000
B400
2D05
0BF9
ENDCHAR
STARTCHAR ecircumflex
ENCODING 234
SWIDTH 496 0
DWIDTH 10 0
BBX 8 14 1 0
BITMAP
03E0
0E78
2408
0000
0BE4
291D
B00B
E007
FFFF
E000
E000
B400
2D05
0BF9
ENDCHAR
STARTCHAR edieresis
ENCODING 235
SWIDTH 496 0
DWIDTH 10 0
BBX 8 14 1 0
BITMAP
1D2C
1D2C
0000
0000
0BE4
291D
B00B
E007
FFFF
E000
E000
B400
2D05
0BF9
ENDCHAR
STARTCHAR igrave
ENCODING 236
SWIDTH 246 0
DWIDTH 5 0
BBX 4 15 0 0
BITMAP
90
F0
2C
09
00
1D
1D
1D
1D
1D
1D
1D
1D
1D
1D
ENDCHAR
STARTCHAR iacute
ENCODING 237
SWIDTH 246 0
DWIDTH 5 0
BBX 4 15 1 0
BITMAP
06
1E
38
60
00
74
74
74
74
74
74
74
74
74
74
ENDCHAR
STARTCHAR icircumflex
ENCODING 238
SWIDTH 246 0
DWIDTH 5 0
BBX 7 14 -1 0
BITMAP
0B80
29A0
6024
0000
0740
0740
0740
0740
0740
0740
0740
0740
0740
0740
ENDCHAR
STARTCHAR idieresis
ENCODING 239
SWIDTH 246 0
DWIDTH 5 0
BBX 7 14 -1 0
BITMAP
7474
7474
0000
0000
0740
0740
0740
0740
0740
0740
0740
0740
0740
0740
ENDCHAR
STARTCHAR eth
ENCODING 240
SWIDTH 545 0
DWIDTH 11 0
BBX 9 14 1 0
BITMAP
090100
0B9B40
01F800
0BB800
181D00
000B00
0BEB40
391B80
B00380
E00380
E00380
B00740
391E00
0BF400
ENDCHAR
STARTCHAR ntilde
ENCODING 241
SWIDTH 547 0
DWIDTH 11 0
BBX 9 14 1 0
BITMAP
050100
1ED300
186E00
000000
71F900
790B00
740740
740740
740740
740740
740740
740740
740740
740740
ENDCHAR
STARTCHAR ograve
ENCODING 242
SWIDTH 542 0
DWIDTH 11 0
BBX 9 15 1 0
BITMAP
090000
0F0000
02C000
009000
000000
0BF400
2D1E00
B40740
E00380
E003C0
E003C0
E00380
B40740
2D1E00
0BF400
ENDCHAR
STARTCHAR oacute
ENCODING 243
SWIDTH 542 0
DWIDTH 11 0
BBX 9 15 1 0
BITMAP
001800
007800
00E000
018000
000000
0BF400
2D1E00
B40740
E00380
E003C0
E003C0
E00380
B40740
2D1E00
0BF400
ENDCHAR
STARTCHAR ocircumflex
ENCODING 244
SWIDTH 542 0
DWIDTH 11 0
BBX 9 14 1 0
BITMAP
02E000
0A7800
180900
000000
0BF400
2D1E00
B40740
E00380
E003C0
E003C0
E00380
B40740
2D1E00
0BF400
ENDCHAR
STARTCHAR otilde
ENCODING 245
SWIDTH 542 0
DWIDTH 11 0
BBX 9 14 1 0
BITMAP
050100
2A8A00
307D00
000000
0BF400
2D1E00
B40740
E00380
E003C0
E003C0
E00380
B40740
2D1E00
0BF400
ENDCHAR
STARTCHAR odieresis
ENCODING 246
SWIDTH 542 0
DWIDTH 11 0
BBX 9 14 1 0
BITMAP
1D1D00
1D1D00
000000
000000
0BF400
2D1E00
B40740
E00380
E003C0
E003C0
E00380
B40740
2D1E00
0BF400
ENDCHAR
STARTCHAR divide
ENCODING 247
SWIDTH 497 0
DWIDTH 10 0
BBX 10 9 0 2
BITMAP
00E000
00E000
000000
000000
7FFFD0
000000
000000
00E000
00E000
ENDCHAR
STARTCHAR oslash
ENCODING 248
SWIDTH 542 0
DWIDTH 11 0
BBX 9 10 1 0
BITMAP
0BE580
2D1F00
B00F40
E03780
E092C0
E282C0
E60380
7C0740
7D1E00
9BF400
ENDCHAR
STARTCHAR ugrave
ENCODING 249
SWIDTH 544 0
DWIDTH 11 0
BBX 9 15 1 0
BITMAP
090000
0F0000
02C000
009000
000000
B00740
B00740
B00740
B00740
B00740
B00740
740740
740B40
382B40
1B9340
ENDCHAR
STARTCHAR uacute
ENCODING 250
SWIDTH 544 0
DWIDTH 11 0
BBX 9 15 1 0
BITMAP
001800
007800
00E000
018000
000000
B00740
B00740
B00740
B00740
B00740
B00740
740740
740B40
382B40
1B9340
ENDCHAR
STARTCHAR ucircumflex
ENCODING 251
SWIDTH 544 0
DWIDTH 11 0
BBX 9 14 1 0
BITMAP
02E000
0A6800
180900
000000
B00740
B00740
B00740
B00740
B00740
B00740
740740
740B40
382B40
1B9340
ENDCHAR
STARTCHAR udieresis
ENCODING 252
SWIDTH 544 0
DWIDTH 11 0
BBX 9 14 1 0
BITMAP
1D1D00
1D1D00
000000
000000
B00740
B00740
B00740
B00740
B00740
B00740
740740
740B40
382B40
1B9340
ENDCHAR
STARTCHAR yacute
ENCODING 253
SWIDTH 467 0
DWIDTH 9 0
BBX 9 19 0 -4
BITMAP
000900
002D00
00B400
009000
000000
B002C0
740380
2C0740
1D0B00
0E0E00
0B1D00
076C00
02B800
01F000
00E000
00D000
01C000
074000
7D0000
ENDCHAR
STARTCHAR thorn
ENCODING 254
SWIDTH 555 0
DWIDTH 11 0
BBX 9 18 1 -4
BITMAP
740000
740000
740000
740000
76F900
7D0B40
740380
7402C0
7402C0
7402C0
7402C0
740780
7D1F00
76F800
740000
740000
740000
740000
ENDCHAR
STARTCHAR ydieresis
ENCODING 255
SWIDTH 467 0
DWIDTH 9 0
BBX 9 18 0 -4
BITMAP
0E0E00
0E0E00
000000
000000
B002C0
740380
2C0740
1D0B00
0E0E00
0B1D00
076C00
02B800
01F000
00E000
00D000
01C000
074000
7D0000
ENDCHAR
STARTCHAR Amacron
ENCODING 256
SWIDTH 544 0
DWIDTH 11 0
BBX 11 15 0 0
BITMAP
07FF00
000000
00B800
00EC00
01DD00
028E00
034B00
074740
0B0380
0E02C0
1FFFD0
2C00E0
3800B0
740074
B00038
ENDCHAR
STARTCHAR amacron
ENCODING 257
SWIDTH 504 0
DWIDTH 10 0
BBX 8 13 1 0
BITMAP
1FFC
0000
0000
1BE4
642C
001D
000E
06BE
3E4E
B00E
E00E
B46E
2F8A
ENDCHAR
STARTCHAR Abreve
ENCODING 258
SWIDTH 544 0
DWIDTH 11 0
BBX 11 17 0 0
BITMAP
060240
034700
01B900
000000
00B800
00EC00
01DD00
028E00
034B00
074740
0B0380
0E02C0
1FFFD0
2C00E0
3800B0
740074
B00038
ENDCHAR
STARTCHAR abreve
ENCODING 259
SWIDTH 504 0
DWIDTH 10 0
BBX 8 14 1 0
BITMAP
2409
1D2C
0BE0
0000
1BE4
642C
001D
000E
06BE
3E4E
B00E
E00E
B46E
2F8A
ENDCHAR
STARTCHAR Aogonek
ENCODING 260
SWIDTH 544 0
DWIDTH 11 0
BBX 12 17 0 -4
BITMAP
00B800
00EC00
01DD00
028E00
034B00
074740
0B0380
0E02C0
1FFFD0
2C00E0
3800B0
740074
B00038
000074
0000D0
0000D0
0000BD
ENDCHAR
STARTCHAR aogonek
ENCODING 261
SWIDTH 504 0
DWIDTH 10 0
BBX 8 14 1 -4
BITMAP
1BE4
642C
001D
001E
0BEE
790E
B00E
E00E
B46E
2F8A
0018
0030
0070
002E
ENDCHAR
STARTCHAR Cacute
ENCODING 262
SWIDTH 571 0
DWIDTH 11 0
BBX 10 17 1 0
BITMAP
000600
002E00
006400
000000
01BE40
0E41D0
2C0000
740000
B00000
E00000
E00000
F00000
B00000
740000
3C0040
1E41E0
02FE40
ENDCHAR
STARTCHAR cacute
ENCODING 263
SWIDTH 456 0
DWIDTH 9 0
BBX 8 15 1 0
BITMAP
0018
003C
00E0
0180
0000
07F8
2D18
7400
F000
E000
E000
F000
B400
3D09
0BF8
ENDCHAR
STARTCHAR Ccircumflex
ENCODING 264
SWIDTH 571 0
DWIDTH 11 0
BBX 10 17 1 0
BITMAP
00B800
02DA00
020240
000000
01BE40
0E41D0
2C0000
740000
B00000
E00000
E00000
F00000
B00000
740000
3C0040
1E41E0
02FE40
ENDCHAR
STARTCHAR ccircumflex
ENCODING 265
SWIDTH 456 0
DWIDTH 9 0
BBX 8 14 1 0
BITMAP
02E0
0B68
1809
0000
07F8
2D18
7400
F000
E000
E000
F000
B400
3D09
0BF8
ENDCHAR
STARTCHAR Cdotaccent
ENCODING 266
SWIDTH 571 0
DWIDTH 11 0
BBX 10 16 1 0
BITMAP
007400
007400
000000
01BE40
0E41D0
2C0000
740000
B00000
E00000
E00000
F00000
B00000
740000
3C0040
1E41E0
02FE40
ENDCHAR
STARTCHAR cdotaccent
ENCODING 267
SWIDTH 456 0
DWIDTH 9 0
BBX 8 14 1 0
BITMAP
01D0
01D0
0000
0000
07F8
2D18
7400
F000
E000
E000
F000
B400
3D09
0BF8
ENDCHAR
STARTCHAR Ccaron
ENCODING 268
SWIDTH 571 0
DWIDTH 11 0
BBX 10 17 1 0
BITMAP
020240
02DA00
00B800
000000
01BE40
0E41D0
2C0000
740000
B00000
E00000
E00000
F00000
B00000
740000
3C0040
1E41E0
02FE40
ENDCHAR
STARTCHAR ccaron
ENCODING 269
SWIDTH 456 0
DWIDTH 9 0
BBX 8 14 1 0
BITMAP
1809
0B68
02E0
0000
07F8
2D18
7400
F000
E000
E000
F000
B400
3D09
0BF8
ENDCHAR
STARTCHAR Dcaron
ENCODING 270
SWIDTH 615 0
DWIDTH 12 0
BBX 11 17 1 0
BITMAP
090600
039D00
01F400
000000
7FF900
741B40
7402D0
7400E0
7400B0
740074
740074
7400B4
7400B0
7400E0
7402D0
741B40
7FF900
ENDCHAR
STARTCHAR dcaron
ENCODING 271
SWIDTH 573 0
DWIDTH 11 0
BBX 11 15 1 0
BITMAP
000018
000758
000758
000754
000740
0BE740
2D1B40
B40740
F00740
E00740
E00740
E00740
B00740
381B40
1BE340
ENDCHAR
STARTCHAR Dcroat
ENCODING 272
SWIDTH 638 0
DWIDTH 13 0
BBX 12 13 0 0
BITMAP
0BFE40
0B01E0
0B0078
0B002D
0B001E
0B000E
7FFC0E
0B000E
0B001D
0B002D
0B0078
0B01E0
0BFE40
ENDCHAR
STARTCHAR dcroat
ENCODING 273
SWIDTH 555 0
DWIDTH 11 0
BBX 10 14 1 0
BITMAP
000740
000740
01FFF0
000740
000740
0BE740
3D1B40
B40740
E00740
E00740
E00740
B00740
791B40
1BE340
ENDCHAR
STARTCHAR Emacron
ENCODING 274
SWIDTH 527 0
DWIDTH 11 0
BBX 9 15 1 0
BITMAP
0FFD00
000000
7FFF40
740000
740000
740000
740000
740000
7FFD00
740000
740000
740000
740000
740000
7FFF80
ENDCHAR
STARTCHAR emacron
ENCODING 275
SWIDTH 496 0
DWIDTH 10 0
BBX 8 13 1 0
BITMAP
1FFC
0000
0000
0BE4
291D
B00B
E007
FFFF
E000
E000
B400
2D05
0BF9
ENDCHAR
STARTCHAR Ebreve
ENCODING 276
SWIDTH 527 0
DWIDTH 11 0
BBX 9 17 1 0
BITMAP
0C0900
0A1D00
02F400
000000
7FFF40
740000
740000
740000
740000
740000
7FFD00
740000
740000
740000
740000
740000
7FFF80
ENDCHAR
STARTCHAR ebreve
ENCODING 277
SWIDTH 496 0
DWIDTH 10 0
BBX 8 14 1 0
BITMAP
2409
1D1C
07E4
0000
0BE4
291D
B00B
E007
FFFF
E000
E000
B400
2D05
0BF9
ENDCHAR
STARTCHAR Edotaccent
ENCODING 278
SWIDTH 527 0
DWIDTH 11 0
BBX 9 16 1 0
BITMAP
01E000
01E000
000000
7FFF40
740000
740000
740000
740000
740000
7FFD00
740000
740000
740000
740000
740000
7FFF80
ENDCHAR
STARTCHAR edotaccent
ENCODING 279
SWIDTH 496 0
DWIDTH 10 0
BBX 8 14 1 0
BITMAP
02D0
02D0
0000
0000
0BE4
291D
B00B
E007
FFFF
E000
E000
B400
2D05
0BF9
ENDCHAR
STARTCHAR Eogonek
ENCODING 280
SWIDTH 527 0
DWIDTH 11 0
BBX 9 17 1 -4
BITMAP
7FFF40
740000
740000
740000
740000
740000
7FFD00
740000
740000
740000
740000
740000
7FFF80
000A00
001800
002800
001F80
ENDCHAR
STARTCHAR eogonek
ENCODING 281
SWIDTH 496 0
DWIDTH 10 0
BBX 8 14 1 -4
BITMAP
0BE4
291D
B00B
E007
FFFF
E000
E000
B400
2D05
0BFD
0034
0060
00A0
007D
ENDCHAR
STARTCHAR Ecaron
ENCODING 282
SWIDTH 527 0
DWIDTH 11 0
BBX 9 17 1 0
BITMAP
080900
076800
02F000
000000
7FFF40
740000
740000
740000
740000
740000
7FFD00
740000
740000
740000
740000
740000
7FFF80
ENDCHAR
STARTCHAR ecaron
ENCODING 283
SWIDTH 496 0
DWIDTH 10 0
BBX 8 14 1 0
BITMAP
2408
0E78
03E0
0000
0BE4
291D
B00B
E007
FFFF
E000
E000
B400
2D05
0BF9
ENDCHAR
STARTCHAR Gcircumflex
ENCODING 284
SWIDTH 617 0
DWIDTH 12 0
BBX 10 17 1 0
BITMAP
007D00
00D740
024180
000000
01BF80
0F41E0
2C0000
740000
B00000
E00000
E00000
F01FF0
B000B0
7400B0
3C00B0
0F41B0
02BF80
ENDCHAR
STARTCHAR gcircumflex
ENCODING 285
SWIDTH 504 0
DWIDTH 10 0
BBX 9 18 1 -4
BITMAP
03E000
0A7800
180900
000000
0BFF80
382C00
B01D00
B00D00
B01D00
382800
2BE000
700000
3FFE00
600780
D00280
D00380
B41F00
1BE400
ENDCHAR
STARTCHAR Gbreve
ENCODING 286
SWIDTH 617 0
DWIDTH 12 0
BBX 10 17 1 0
BITMAP
024080
018280
00BE00
000000
01BF80
0F41E0
2C0000
740000
B00000
E00000
E00000
F01FF0
B000B0
7400B0
3C00B0
0F41B0
02BF80
ENDCHAR
STARTCHAR gbreve
ENCODING 287
SWIDTH 504 0
DWIDTH 10 0
BBX 9 18 1 -4
BITMAP
240900
1D1C00
07E400
000000
0BFF80
382C00
B01D00
B00D00
B01D00
382800
2BE000
700000
3FFE00
600780
D00280
D00380
B41F00
1BE400
ENDCHAR
STARTCHAR Gdotaccent
ENCODING 288
SWIDTH 617 0
DWIDTH 12 0
BBX 10 16 1 0
BITMAP
002C00
002C00
000000
01BF80
0F41E0
2C0000
740000
B00000
E00000
E00000
F01FF0
B000B0
7400B0
3C00B0
0F41B0
02BF80
ENDCHAR
STARTCHAR gdotaccent
ENCODING 289
SWIDTH 504 0
DWIDTH 10 0
BBX 9 18 1 -4
BITMAP
01D000
02D000
000000
000000
0BFF80
382C00
B01D00
B00D00
B01D00
382800
2BE000
700000
3FFE00
600780
D00280
D00380
B41F00
1BE400
ENDCHAR
STARTCHAR uni0122
ENCODING 290
SWIDTH 617 0
DWIDTH 12 0
BBX 10 18 1 -5
BITMAP
01BF80
0F41E0
2C0000
740000
B00000
E00000
E00000
F01FF0
B000B0
7400B0
3C00B0
0F41B0
02BF80
000000
003800
000D00
001D00
00A400
ENDCHAR
STARTCHAR uni0123
ENCODING 291
SWIDTH 504 0
DWIDTH 10 0
BBX 9 19 1 -4
BITMAP
01B000
034000
034000
01D000
000000
0BFF80
382C00
B01D00
B00D00
B01D00
382800
2BE000
700000
3FFE00
600780
D00280
D00380
B41F00
1BE400
ENDCHAR
STARTCHAR Hcircumflex
ENCODING 292
SWIDTH 652 0
DWIDTH 13 0
BBX 11 17 1 0
BITMAP
00B800
029A00
060240
000000
740074
740074
740074
740074
740074
740074
7FFFF4
740074
740074
740074
740074
740074
740074
ENDCHAR
STARTCHAR hcircumflex
ENCODING 293
SWIDTH 544 0
DWIDTH 11 0
BBX 11 18 -1 0
BITMAP
0B8000
29A000
602400
000000
074000
074000
074000
074000
075F90
07A0B0
074074
074074
074074
074074
074074
074074
074074
074074
ENDCHAR
STARTCHAR Hbar
ENCODING 294
SWIDTH 687 0
DWIDTH 14 0
BBX 13 13 0 0
BITMAP
0B000E00
0B000E00
7FFFFFC0
0B000E00
0B000E00
0BFFFE00
0B000E00
0B000E00
0B000E00
0B000E00
0B000E00
0B000E00
0B000E00
ENDCHAR
STARTCHAR hbar
ENCODING 295
SWIDTH 544 0
DWIDTH 11 0
BBX 10 14 0 0
BITMAP
1D0000
1D0000
BFFC00
1D0000
1D0000
1D6A00
1E97C0
1E01D0
1D01D0
1D01D0
1D01D0
1D01D0
1D01D0
1D01D0
ENDCHAR
STARTCHAR Itilde
ENCODING 296
SWIDTH 263 0
DWIDTH 5 0
BBX 7 16 -1 0
BITMAP
7E5C
91F4
0000
0740
0740
0740
0740
0740
0740
0740
0740
0740
0740
0740
0740
0740
ENDCHAR
STARTCHAR itilde
ENCODING 297
SWIDTH 246 0
DWIDTH 5 0
BBX 7 14 -1 0
BITMAP
1404
AA18
91F4
0000
0740
0740
0740
0740
0740
0740
0740
0740
0740
0740
ENDCHAR
STARTCHAR Imacron
ENCODING 298
SWIDTH 263 0
DWIDTH 5 0
BBX 6 15 0 0
BITMAP
FFD0
0000
1D00
1D00
1D00
1D00
1D00
1D00
1D00
1D00
1D00
1D00
1D00
1D00
1D00
ENDCHAR
STARTCHAR imacron
ENCODING 299
SWIDTH 246 0
DWIDTH 5 0
BBX 6 13 -1 0
BITMAP
7FF0
0000
0000
0740
0740
0740
0740
0740
0740
0740
0740
0740
0740
ENDCHAR
STARTCHAR uni012C
ENCODING 300
SWIDTH 263 0
DWIDTH 5 0
BBX 7 17 -1 0
BITMAP
6024
3470
0BD0
0000
0740
0740
0740
0740
0740
0740
0740
0740
0740
0740
0740
0740
0740
ENDCHAR
STARTCHAR uni012D
ENCODING 301
SWIDTH 246 0
DWIDTH 5 0
BBX 7 14 -1 0
BITMAP
6024
7474
1B90
0000
0740
0740
0740
0740
0740
0740
0740
0740
0740
0740
ENDCHAR
STARTCHAR Iogonek
ENCODING 302
SWIDTH 263 0
DWIDTH 5 0
BBX 3 17 1 -4
BITMAP
74
74
74
74
74
74
74
74
74
74
74
74
74
60
D0
D0
BC
ENDCHAR
STARTCHAR iogonek
ENCODING 303
SWIDTH 246 0
DWIDTH 5 0
BBX 4 18 0 -4
BITMAP
1D
1D
00
00
1D
1D
1D
1D
1D
1D
1D
1D
1D
1D
18
30
74
2E
ENDCHAR
STARTCHAR Idotaccent
ENCODING 304
SWIDTH 263 0
DWIDTH 5 0
BBX 3 16 1 0
BITMAP
78
78
00
74
74
74
74
74
74
74
74
74
74
74
74
74
ENDCHAR
STARTCHAR dotlessi
ENCODING 305
SWIDTH 246 0
DWIDTH 5 0
BBX 3 10 1 0
BITMAP
74
74
74
74
74
74
74
74
74
74
ENDCHAR
STARTCHAR uni0132
ENCODING 306
SWIDTH 526 0
DWIDTH 11 0
BBX 8 16 1 -3
BITMAP
740E
740E
740E
740E
740E
740E
740E
740E
740E
740E
740E
740E
740E
000E
001D
01F8
ENDCHAR
STARTCHAR uni0133
ENCODING 307
SWIDTH 493 0
DWIDTH 10 0
BBX 8 18 1 -4
BITMAP
742D
741D
0000
0000
741D
741D
741D
741D
741D
741D
741D
741D
741D
741D
001D
001C
002C
02E4
ENDCHAR
STARTCHAR Jcircumflex
ENCODING 308
SWIDTH 480 0
DWIDTH 10 0
BBX 9 17 1 0
BITMAP
007D00
01D700
024180
000000
002C00
002C00
002C00
002C00
002C00
002C00
002C00
002C00
002C00
003800
403800
E0B400
6F9000
ENDCHAR
STARTCHAR jcircumflex
ENCODING 309
SWIDTH 247 0
DWIDTH 5 0
BBX 7 18 -1 -4
BITMAP
0B80
29A0
6024
0000
0740
0740
0740
0740
0740
0740
0740
0740
0740
0740
0740
0740
0B00
BD00
ENDCHAR
STARTCHAR uni0136
ENCODING 310
SWIDTH 579 0
DWIDTH 12 0
BBX 11 18 1 -5
BITMAP
7401D0
740780
741E00
743C00
74B400
76F000
7FB800
7E2D00
780E00
740740
7402C0
7401E0
7400B4
000000
006400
001C00
002C00
01E000
ENDCHAR
STARTCHAR uni0137
ENCODING 311
SWIDTH 495 0
DWIDTH 10 0
BBX 9 19 1 -5
BITMAP
740000
740000
740000
740000
740E00
742C00
747400
75D000
77D000
7FF000
7D7800
742D00
740E00
740740
000000
029000
00B000
00A000
078000
ENDCHAR
STARTCHAR kgreenlandic
ENCODING 312
SWIDTH 495 0
DWIDTH 10 0
BBX 9 10 1 0
BITMAP
740E00
742C00
747400
75D000
77D000
7EB000
7C7800
742D00
740E00
740740
ENDCHAR
STARTCHAR Lacute
ENCODING 313
SWIDTH 486 0
DWIDTH 10 0
BBX 9 17 1 0
BITMAP
060000
1E0000
240000
000000
740000
740000
740000
740000
740000
740000
740000
740000
740000
740000
740000
740000
7FFF40
ENDCHAR
STARTCHAR lacute
ENCODING 314
SWIDTH 255 0
DWIDTH 5 0
BBX 4 18 1 0
BITMAP
06
2D
60
00
74
74
74
74
74
74
74
74
74
74
74
74
74
2D
ENDCHAR
STARTCHAR uni013B
ENCODING 315
SWIDTH 486 0
DWIDTH 10 0
BBX 9 18 1 -5
BITMAP
740000
740000
740000
740000
740000
740000
740000
740000
740000
740000
740000
740000
7FFF40
000000
01E000
007400
007000
039000
ENDCHAR
STARTCHAR uni013C
ENCODING 316
SWIDTH 255 0
DWIDTH 5 0
BBX 4 19 1 -5
BITMAP
74
74
74
74
74
74
74
74
74
74
74
74
74
2D
00
28
0A
1E
B8
ENDCHAR
STARTCHAR Lcaron
ENCODING 317
SWIDTH 486 0
DWIDTH 10 0
BBX 9 14 1 0
BITMAP
001800
741800
741800
741800
740000
740000
740000
740000
740000
740000
740000
740000
740000
7FFF40
ENDCHAR
STARTCHAR lcaron
ENCODING 318
SWIDTH 270 0
DWIDTH 5 0
BBX 5 15 1 0
BITMAP
0280
7640
7640
7640
7400
7400
7400
7400
7400
7400
7400
7400
7400
7400
2D00
ENDCHAR
STARTCHAR Ldot
ENCODING 319
SWIDTH 486 0
DWIDTH 10 0
BBX 9 13 1 0
BITMAP
740000
740000
740000
740000
741D00
742E00
741D00
740000
740000
740000
740000
740000
7FFF40
ENDCHAR
STARTCHAR ldot
ENCODING 320
SWIDTH 362 0
DWIDTH 7 0
BBX 7 14 1 0
BITMAP
7400
7400
7400
7400
7400
74A0
74F4
74B0
7400
7400
7400
7400
7400
2D00
ENDCHAR
STARTCHAR Lslash
ENCODING 321
SWIDTH 489 0
DWIDTH 10 0
BBX 10 13 0 0
BITMAP
0E0000
0E0000
0E0000
0E0000
0E0400
0E6D00
0FD000
7E0000
9E0000
0E0000
0E0000
0E0000
0FFFD0
ENDCHAR
STARTCHAR lslash
ENCODING 322
SWIDTH 262 0
DWIDTH 5 0
BBX 5 14 0 0
BITMAP
1D00
1D00
1D00
1D00
1D40
1F80
7D00
5D00
1D00
1D00
1D00
1D00
1D00
0B40
ENDCHAR
STARTCHAR Nacute
ENCODING 323
SWIDTH 647 0
DWIDTH 13 0
BBX 10 17 1 0
BITMAP
000600
002D00
006000
000000
780070
7D0070
7B0070
778070
76C070
74E070
747470
742C70
741D70
740B70
7403B0
7401F0
7400F0
ENDCHAR
STARTCHAR nacute
ENCODING 324
SWIDTH 547 0
DWIDTH 11 0
BBX 9 15 1 0
BITMAP
000900
002D00
00B400
009000
000000
71F900
790B00
740740
740740
740740
740740
740740
740740
740740
740740
ENDCHAR
STARTCHAR uni0145
ENCODING 325
SWIDTH 647 0
DWIDTH 13 0
BBX 10 18 1 -5
BITMAP
780070
7D0070
7B0070
778070
76C070
74E070
747470
742C70
741D70
740B70
7403B0
7401F0
7400F0
000000
007400
001C00
002C00
01E400
ENDCHAR
STARTCHAR uni0146
ENCODING 326
SWIDTH 547 0
DWIDTH 11 0
BBX 9 15 1 -5
BITMAP
71F900
790B00
740740
740740
740740
740740
740740
740740
740740
740740
000000
01D000
007000
00B000
079000
ENDCHAR
STARTCHAR Ncaron
ENCODING 327
SWIDTH 647 0
DWIDTH 13 0
BBX 10 17 1 0
BITMAP
060240
029A00
00B800
000000
780070
7D0070
7B0070
778070
76C070
74E070
747470
742C70
741D70
740B70
7403B0
7401F0
7400F0
ENDCHAR
STARTCHAR ncaron
ENCODING 328
SWIDTH 547 0
DWIDTH 11 0
BBX 9 14 1 0
BITMAP
080600
076C00
01F400
000000
71F900
790B00
740740
740740
740740
740740
740740
740740
740740
740740
ENDCHAR
STARTCHAR napostrophe
ENCODING 329
SWIDTH 775 0
DWIDTH 16 0
BBX 13 14 1 0
BITMAP
74000000
78000000
18000000
24000000
A035BE00
003E4740
00380380
00380280
003802C0
003802C0
003802C0
003802C0
003802C0
003802C0
ENDCHAR
STARTCHAR uni014A
ENCODING 330
SWIDTH 635 0
DWIDTH 13 0
BBX 11 13 1 0
BITMAP
74BE40
7A42D0
7800B0
740074
740078
740038
740038
740038
740038
740074
7400B0
7401E0
241F80
ENDCHAR
STARTCHAR uni014B
ENCODING 331
SWIDTH 547 0
DWIDTH 11 0
BBX 9 13 1 -3
BITMAP
71F900
7A0B00
740740
740740
740740
740740
740740
740740
740740
740740
000740
000B00
007D00
ENDCHAR
STARTCHAR Omacron
ENCODING 332
SWIDTH 664 0
DWIDTH 13 0
BBX 12 15 1 0
BITMAP
03FF40
000000
02FE40
1E42D0
3800B4
740038
B0002C
E0002D
E0002D
E0002D
B0002C
740038
3C00B4
1E42D0
02FE40
ENDCHAR
STARTCHAR omacron
ENCODING 333
SWIDTH 542 0
DWIDTH 11 0
BBX 9 13 1 0
BITMAP
1FFC00
000000
000000
0BF400
2D1E00
B40740
E00380
E003C0
E003C0
E00380
B40740
2D1E00
0BF400
ENDCHAR
STARTCHAR uni014E
ENCODING 334
SWIDTH 664 0
DWIDTH 13 0
BBX 12 17 1 0
BITMAP
020240
034700
00BD00
000000
02FE40
1E42D0
3800B4
740038
B0002C
E0002D
E0002D
E0002D
B0002C
740038
3C00B4
1E42D0
02FE40
ENDCHAR
STARTCHAR uni014F
ENCODING 335
SWIDTH 542 0
DWIDTH 11 0
BBX 9 14 1 0
BITMAP
240900
1D1C00
07E400
000000
0BF400
2D1E00
B40740
E00380
E003C0
E003C0
E00380
B40740
2D1E00
0BF400
ENDCHAR
STARTCHAR Ohungarumlaut
ENCODING 336
SWIDTH 664 0
DWIDTH 13 0
BBX 12 17 1 0
BITMAP
002490
00A1C0
008200
000000
02FE40
1E42D0
3800B4
740038
B0002C
E0002D
E0002D
E0002D
B0002C
740038
3C00B4
1E42D0
02FE40
ENDCHAR
STARTCHAR ohungarumlaut
ENCODING 337
SWIDTH 542 0
DWIDTH 11 0
BBX 9 15 1 0
BITMAP
008340
02CA00
034C00
060400
000000
0BF400
2D1E00
B40740
E00380
E003C0
E003C0
E00380
B40740
2D1E00
0BF400
ENDCHAR
STARTCHAR OE
ENCODING 338
SWIDTH 847 0
DWIDTH 17 0
BBX 15 13 1 0
BITMAP
01BFFFF8
0F41D000
3C01D000
7401D000
B001D000
E001D000
E001FFF0
F001D000
B001D000
7401D000
2C01D000
0F41D000
01BFFFFC
ENDCHAR
STARTCHAR oe
ENCODING 339
SWIDTH 839 0
DWIDTH 17 0
BBX 15 10 1 0
BITMAP
0BE41F90
3D1DA074
B40BC028
E003802C
E003EAAC
E0039554
E0038000
B40BD000
3D1DB424
0BE41FE4
ENDCHAR
STARTCHAR Racute
ENCODING 340
SWIDTH 569 0
DWIDTH 11 0
BBX 10 17 1 0
BITMAP
001800
007800
009000
000000
7FF900
740780
7401D0
7401D0
7401D0
7407C0
7FFF40
743800
741D00
740A00
740740
7402C0
7401E0
ENDCHAR
STARTCHAR racute
ENCODING 341
SWIDTH 347 0
DWIDTH 7 0
BBX 6 15 1 0
BITMAP
0060
01E0
0780
0600
0000
72E0
7900
7400
7400
7400
7400
7400
7400
7400
7400
ENDCHAR
STARTCHAR uni0156
ENCODING 342
SWIDTH 569 0
DWIDTH 11 0
BBX 10 18 1 -5
BITMAP
7FF900
740780
7401D0
7401D0
7401D0
7407C0
7FFF40
743800
741D00
740A00
740740
7402C0
7401E0
000000
00A000
002800
007400
029000
ENDCHAR
STARTCHAR uni0157
ENCODING 343
SWIDTH 347 0
DWIDTH 7 0
BBX 7 15 0 -5
BITMAP
1CB8
1E40
1D00
1D00
1D00
1D00
1D00
1D00
1D00
1D00
0000
2900
0B00
0A00
7800
ENDCHAR
STARTCHAR Rcaron
ENCODING 344
SWIDTH 569 0
DWIDTH 11 0
BBX 10 17 1 0
BITMAP
090900
076C00
02F000
000000
7FF900
740780
7401D0
7401D0
7401D0
7407C0
7FFF40
743800
741D00
740A00
740740
7402C0
7401E0
ENDCHAR
STARTCHAR rcaron
ENCODING 345
SWIDTH 347 0
DWIDTH 7 0
BBX 7 14 1 0
BITMAP
6024
29E0
0F80
0000
72E0
7900
7400
7400
7400
7400
7400
7400
7400
7400
ENDCHAR
STARTCHAR Sacute
ENCODING 346
SWIDTH 534 0
DWIDTH 11 0
BBX 9 17 1 0
BITMAP
001800
00B400
019000
000000
0AF900
2D0B40
740000
740000
780000
2F9000
06F900
002F40
000780
0003C0
400380
F40B40
1BF800
ENDCHAR
STARTCHAR sacute
ENCODING 347
SWIDTH 419 0
DWIDTH 8 0
BBX 7 15 1 0
BITMAP
0060
01E0
0780
0600
0000
2FE0
B460
E000
B400
2E40
06F0
0078
0038
D074
6F90
ENDCHAR
STARTCHAR Scircumflex
ENCODING 348
SWIDTH 534 0
DWIDTH 11 0
BBX 9 17 1 0
BITMAP
02E000
0B6800
080900
000000
0AF900
2D0B40
740000
740000
780000
2F9000
06F900
002F40
000780
0003C0
400380
F40B40
1BF800
ENDCHAR
STARTCHAR scircumflex
ENCODING 349
SWIDTH 419 0
DWIDTH 8 0
BBX 7 14 1 0
BITMAP
0B80
29E0
6024
0000
2FE0
B460
E000
B400
2E40
06F0
0078
0038
D074
6F90
ENDCHAR
STARTCHAR uni015E
ENCODING 350
SWIDTH 534 0
DWIDTH 11 0
BBX 9 18 1 -5
BITMAP
0AF900
2D0B40
740000
740000
780000
2F9000
06F900
002F40
000780
0003C0
400380
F40B40
1BF800
018000
02D000
00B000
00A000
078000
ENDCHAR
STARTCHAR uni015F
ENCODING 351
SWIDTH 419 0
DWIDTH 8 0
BBX 7 15 1 -5
BITMAP
2FE0
B460
E000
B400
2E40
06F0
0078
0038
D074
6F90
0600
0B40
02C0
0280
1E00
ENDCHAR
STARTCHAR Scaron
ENCODING 352
SWIDTH 534 0
DWIDTH 11 0
BBX 9 17 1 0
BITMAP
080900
0B6800
02E000
000000
0AF900
2D0B40
740000
740000
780000
2F9000
06F900
002F40
000780
0003C0
400380
F40B40
1BF800
ENDCHAR
STARTCHAR scaron
ENCODING 353
SWIDTH 419 0
DWIDTH 8 0
BBX 7 14 1 0
BITMAP
6024
29E0
0B80
0000
2FE0
B460
E000
B400
2E40
06F0
0078
0038
D074
6F90
ENDCHAR
STARTCHAR uni0162
ENCODING 354
SWIDTH 536 0
DWIDTH 11 0
BBX 10 18 0 -5
BITMAP
7FFFF0
007400
007400
007400
007400
007400
007400
007400
007400
007400
007400
007400
00B400
006000
00B400
002800
006800
02E000
ENDCHAR
STARTCHAR uni0163
ENCODING 355
SWIDTH 338 0
DWIDTH 7 0
BBX 7 18 0 -5
BITMAP
0E00
0E00
0E00
7FF4
0E00
0E00
0E00
0E00
0E00
0E00
0E00
0B00
02F4
0180
02D0
00A0
01A0
0780
ENDCHAR
STARTCHAR Tcaron
ENCODING 356
SWIDTH 536 0
DWIDTH 11 0
BBX 10 17 0 0
BITMAP
060200
029D00
00F800
000000
7FFFF0
007400
007400
007400
007400
007400
007400
007400
007400
007400
007400
007400
007400
ENDCHAR
STARTCHAR tcaron
ENCODING 357
SWIDTH 338 0
DWIDTH 7 0
BBX 7 15 0 0
BITMAP
0034
0034
0E30
0E30
0E00
7FF4
0E00
0E00
0E00
0E00
0E00
0E00
0E00
0B00
02F4
ENDCHAR
STARTCHAR uni0166
ENCODING 358
SWIDTH 536 0
DWIDTH 11 0
BBX 10 13 0 0
BITMAP
7FFFF0
55B400
007400
007400
007400
007400
0FFF80
007400
007400
007400
007400
007400
007400
ENDCHAR
STARTCHAR uni0167
ENCODING 359
SWIDTH 338 0
DWIDTH 7 0
BBX 7 13 0 0
BITMAP
0E00
0E00
0E00
7FF4
0E00
0E00
0E00
7FF4
0E00
0E00
0E00
0B00
02F4
ENDCHAR
STARTCHAR Utilde
ENCODING 360
SWIDTH 645 0
DWIDTH 13 0
BBX 10 16 1 0
BITMAP
0BE1C0
0D2F40
000000
740070
740070
740070
740070
740070
740070
740070
740070
740070
3800B0
2C00E0
1E46C0
02FE00
ENDCHAR
STARTCHAR utilde
ENCODING 361
SWIDTH 544 0
DWIDTH 11 0
BBX 9 14 1 0
BITMAP
050100
2A8A00
347D00
000000
B00740
B00740
B00740
B00740
B00740
B00740
740740
740B40
382B40
1B9340
ENDCHAR
STARTCHAR Umacron
ENCODING 362
SWIDTH 645 0
DWIDTH 13 0
BBX 10 15 1 0
BITMAP
07FF00
000000
740070
740070
740070
740070
740070
740070
740070
740070
740070
3800B0
2C00E0
1E46C0
02FE00
ENDCHAR
STARTCHAR umacron
ENCODING 363
SWIDTH 544 0
DWIDTH 11 0
BBX 9 13 1 0
BITMAP
1FFC00
000000
000000
B00740
B00740
B00740
B00740
B00740
B00740
740740
740B40
382B40
1B9340
ENDCHAR
STARTCHAR Ubreve
ENCODING 364
SWIDTH 645 0
DWIDTH 13 0
BBX 10 17 1 0
BITMAP
060240
034700
01B900
000000
740070
740070
740070
740070
740070
740070
740070
740070
740070
3800B0
2C00E0
1E46C0
02FE00
ENDCHAR
STARTCHAR ubreve
ENCODING 365
SWIDTH 544 0
DWIDTH 11 0
BBX 9 14 1 0
BITMAP
240900
1D1C00
07E400
000000
B00740
B00740
B00740
B00740
B00740
B00740
740740
740B40
382B40
1B9340
ENDCHAR
STARTCHAR Uring
ENCODING 366
SWIDTH 645 0
DWIDTH 13 0
BBX 10 18 1 0
BITMAP
00B800
018900
018900
00B800
000000
740070
740070
740070
740070
740070
740070
740070
740070
740070
3800B0
2C00E0
1E46C0
02FE00
ENDCHAR
STARTCHAR uring
ENCODING 367
SWIDTH 544 0
DWIDTH 11 0
BBX 9 15 1 0
BITMAP
02E000
0A2800
0A2800
02E000
000000
B00740
B00740
B00740
B00740
B00740
B00740
740740
740B40
382B40
1B9340
ENDCHAR
STARTCHAR Uhungarumlaut
ENCODING 368
SWIDTH 645 0
DWIDTH 13 0
BBX 10 17 1 0
BITMAP
002090
00A280
018200
000000
740070
740070
740070
740070
740070
740070
740070
740070
740070
3800B0
2C00E0
1E46C0
02FE00
ENDCHAR
STARTCHAR uhungarumlaut
ENCODING 369
SWIDTH 544 0
DWIDTH 11 0
BBX 9 15 1 0
BITMAP
009340
01CA00
034C00
060400
000000
B00740
B00740
B00740
B00740
B00740
B00740
740740
740B40
382B40
1B9340
ENDCHAR
STARTCHAR Uogonek
ENCODING 370
SWIDTH 645 0
DWIDTH 13 0
BBX 10 17 1 -4
BITMAP
740070
740070
740070
740070
740070
740070
740070
740070
740070
3800B0
2C00E0
0E46C0
02FE00
007400
00A000
00E000
007D00
ENDCHAR
STARTCHAR uogonek
ENCODING 371
SWIDTH 544 0
DWIDTH 11 0
BBX 9 14 1 -4
BITMAP
B00740
B00740
B00740
B00740
B00740
B00740
740740
740B40
382B40
1B9740
000D00
002800
002800
001F40
ENDCHAR
STARTCHAR Wcircumflex
ENCODING 372
SWIDTH 786 0
DWIDTH 16 0
BBX 15 17 0 0
BITMAP
0007D000
001DB000
00241800
00000000
7403801C
7407C02C
380AD038
2C0AE038
2C0DA074
1D1C7070
0D2834B0
0E2838A0
0A3428D0
0B701DD0
07B00EC0
03E00F80
03D00B80
ENDCHAR
STARTCHAR wcircumflex
ENCODING 373
SWIDTH 718 0
DWIDTH 14 0
BBX 14 14 0 0
BITMAP
000F4000
0039D000
00902000
00000000
740B00A0
380F40D0
381E81D0
2C19C2C0
1D24D280
0E34D340
0A70A740
07A07700
07D03E00
03D03D00
ENDCHAR
STARTCHAR Ycircumflex
ENCODING 374
SWIDTH 476 0
DWIDTH 10 0
BBX 10 17 0 0
BITMAP
02F000
076C00
090900
000000
B001D0
740380
2C0740
1D0A00
0A1D00
076800
02F400
01E000
00E000
00E000
00E000
00E000
00E000
ENDCHAR
STARTCHAR ycircumflex
ENCODING 375
SWIDTH 467 0
DWIDTH 9 0
BBX 9 18 0 -4
BITMAP
01F400
076C00
090600
000000
B002C0
740380
2C0740
1D0B00
0E0E00
0B1D00
076C00
02B800
01F000
00E000
00D000
01C000
074000
7D0000
ENDCHAR
STARTCHAR Ydieresis
ENCODING 376
SWIDTH 476 0
DWIDTH 10 0
BBX 10 16 0 0
BITMAP
0D0E00
0D0E00
000000
B001D0
740380
2C0740
1D0A00
0A1D00
076800
02F400
01E000
00E000
00E000
00E000
00E000
00E000
ENDCHAR
STARTCHAR Zacute
ENCODING 377
SWIDTH 539 0
DWIDTH 11 0
BBX 9 17 1 0
BITMAP
001800
00B800
019000
000000
7FFFC0
000B80
000F00
002D00
007800
00F000
02D000
078000
0F4000
2E0000
7C0000
B40000
FFFFC0
ENDCHAR
STARTCHAR zacute
ENCODING 378
SWIDTH 425 0
DWIDTH 9 0
BBX 8 15 0 0
BITMAP
0018
003C
00E0
0180
0000
2FFE
002D
0078
00F4
02E0
03C0
0B40
1E00
3C00
7FFF
ENDCHAR
STARTCHAR Zdotaccent
ENCODING 379
SWIDTH 539 0
DWIDTH 11 0
BBX 9 16 1 0
BITMAP
01D000
01D000
000000
7FFFC0
000B80
000F00
002D00
007800
00F000
02D000
078000
0F4000
2E0000
7C0000
B40000
FFFFC0
ENDCHAR
STARTCHAR zdotaccent
ENCODING 380
SWIDTH 425 0
DWIDTH 9 0
BBX 8 14 0 0
BITMAP
01D0
01D0
0000
0000
2FFE
002D
0078
00F4
02E0
03C0
0B40
1E00
3C00
7FFF
ENDCHAR
STARTCHAR Zcaron
ENCODING 381
SWIDTH 539 0
DWIDTH 11 0
BBX 9 17 1 0
BITMAP
080900
0B6800
02E000
000000
7FFFC0
000B80
000F00
002D00
007800
00F000
02D000
078000
0F4000
2E0000
7C0000
B40000
FFFFC0
ENDCHAR
STARTCHAR zcaron
ENCODING 382
SWIDTH 425 0
DWIDTH 9 0
BBX 8 14 0 0
BITMAP
1809
0A68
02E0
0000
2FFE
002D
0078
00F4
02E0
03C0
0B40
1E00
3C00
7FFF
ENDCHAR
STARTCHAR uni0180
ENCODING 384
SWIDTH 544 0
DWIDTH 11 0
BBX 10 14 0 0
BITMAP
1D0000
1D0000
BFFC00
1D0000
1D0000
1D7E40
1F42D0
1D00E0
1D00B0
1D00B0
1D00B0
1D00E0
1F46C0
1CBE00
ENDCHAR
STARTCHAR uni018F
ENCODING 399
SWIDTH 658 0
DWIDTH 13 0
BBX 11 13 1 0
BITMAP
06FE40
1E02D0
0000B4
000038
00002C
00002C
BFFFFC
B0002C
B0002C
740038
3800B4
1E42D0
02FE40
ENDCHAR
STARTCHAR uni0192
ENCODING 402
SWIDTH 497 0
DWIDTH 10 0
BBX 9 15 0 -2
BITMAP
001BC0
003800
007400
00B000
00B000
0BFF40
00E000
00D000
01D000
01D000
01C000
02C000
028000
074000
7D0000
ENDCHAR
STARTCHAR uni0193
ENCODING 403
SWIDTH 617 0
DWIDTH 12 0
BBX 11 16 1 0
BITMAP
00007C
0000D0
0001D0
01BFE0
0F4190
2C0000
740000
B00000
E00000
E00000
F01FF0
B000B0
7400B0
3C00B0
0F41B0
02BF80
ENDCHAR
STARTCHAR Ohorn
ENCODING 416
SWIDTH 664 0
DWIDTH 13 0
BBX 12 16 1 0
BITMAP
00001D
00000D
00001C
02FFE4
1E42E0
3C00B4
74003C
B0002C
F0001D
E0001D
B0001D
B0002C
740038
2C00B4
0E42D0
02FE40
ENDCHAR
STARTCHAR ohorn
ENCODING 417
SWIDTH 542 0
DWIDTH 11 0
BBX 10 13 1 0
BITMAP
0000D0
0000D0
0001D0
0BFA40
2D1F00
B40740
E00380
E003C0
E003C0
E00380
B40740
2D1E00
0BF400
ENDCHAR
STARTCHAR Uhorn
ENCODING 431
SWIDTH 659 0
DWIDTH 13 0
BBX 13 16 1 0
BITMAP
00000340
00000340
00000B00
74007D00
74007000
74007000
74007000
74007000
74007000
74007000
74007000
74007000
3800B000
2C00E000
1E46C000
02FE0000
ENDCHAR
STARTCHAR uhorn
ENCODING 432
SWIDTH 544 0
DWIDTH 11 0
BBX 10 14 1 0
BITMAP
000010
000070
000070
0000A0
B00780
B00740
B00740
B00740
B00740
B00740
740740
740B40
382B40
1BD740
ENDCHAR
STARTCHAR uni01C2
ENCODING 450
SWIDTH 288 0
DWIDTH 6 0
BBX 6 21 0 -5
BITMAP
0500
0A00
0A00
0A00
0A00
0A00
0A00
0A00
BFE0
0A00
0A00
0A00
BFE0
0A00
0A00
0A00
0A00
0A00
0A00
0A00
0A00
ENDCHAR
STARTCHAR uni01CD
ENCODING 461
SWIDTH 544 0
DWIDTH 11 0
BBX 11 17 0 0
BITMAP
060200
029E00
00B800
000000
00B800
00EC00
01DD00
028E00
034B00
074740
0B0380
0E02C0
1FFFD0
2C00E0
3800B0
740074
B00038
ENDCHAR
STARTCHAR uni01CE
ENCODING 462
SWIDTH 504 0
DWIDTH 10 0
BBX 8 14 1 0
BITMAP
2408
0E74
03E0
0000
1BE4
642C
001D
000E
06BE
3E4E
B00E
E00E
B46E
2F8A
ENDCHAR
STARTCHAR uni01CF
ENCODING 463
SWIDTH 263 0
DWIDTH 5 0
BBX 6 17 0 0
BITMAP
8090
B680
2F00
0000
1D00
1D00
1D00
1D00
1D00
1D00
1D00
1D00
1D00
1D00
1D00
1D00
1D00
ENDCHAR
STARTCHAR uni01D0
ENCODING 464
SWIDTH 246 0
DWIDTH 5 0
BBX 7 14 -1 0
BITMAP
6024
29A0
0B80
0000
0740
0740
0740
0740
0740
0740
0740
0740
0740
0740
ENDCHAR
STARTCHAR uni01D1
ENCODING 465
SWIDTH 664 0
DWIDTH 13 0
BBX 12 17 1 0
BITMAP
020240
02DA00
00BC00
000000
02FE40
1E42D0
3800B4
740038
B0002C
E0002D
E0002D
E0002D
B0002C
740038
3C00B4
1E42D0
02FE40
ENDCHAR
STARTCHAR uni01D2
ENCODING 466
SWIDTH 542 0
DWIDTH 11 0
BBX 9 14 1 0
BITMAP
180900
0A7800
02E000
000000
0BF400
2D1E00
B40740
E00380
E003C0
E003C0
E00380
B40740
2D1E00
0BF400
ENDCHAR
STARTCHAR uni01D3
ENCODING 467
SWIDTH 645 0
DWIDTH 13 0
BBX 10 17 1 0
BITMAP
060200
029E00
00B800
000000
740070
740070
740070
740070
740070
740070
740070
740070
740070
3800B0
2C00E0
1E46C0
02FE00
ENDCHAR
STARTCHAR uni01D4
ENCODING 468
SWIDTH 544 0
DWIDTH 11 0
BBX 9 14 1 0
BITMAP
180900
0A6800
02E000
000000
B00740
B00740
B00740
B00740
B00740
B00740
740740
740B40
382B40
1B9340
ENDCHAR
STARTCHAR uni01D5
ENCODING 469
SWIDTH 645 0
DWIDTH 13 0
BBX 10 18 1 0
BITMAP
07FF00
000000
070740
070740
000000
740070
740070
740070
740070
740070
740070
740070
740070
740070
3800B0
2C00E0
1E46C0
02FE00
ENDCHAR
STARTCHAR uni01D6
ENCODING 470
SWIDTH 544 0
DWIDTH 11 0
BBX 9 16 1 0
BITMAP
1FFC00
000000
1D1C00
1D1C00
000000
000000
B00740
B00740
B00740
B00740
B00740
B00740
740740
740B40
382B40
1B9340
ENDCHAR
STARTCHAR uni01D7
ENCODING 471
SWIDTH 645 0
DWIDTH 13 0
BBX 10 19 1 0
BITMAP
000900
002800
002000
070740
070740
000000
740070
740070
740070
740070
740070
740070
740070
740070
740070
3800B0
2C00E0
1E46C0
02FE00
ENDCHAR
STARTCHAR uni01D8
ENCODING 472
SWIDTH 544 0
DWIDTH 11 0
BBX 9 17 1 0
BITMAP
002000
00A000
018000
1D1C00
1D1C00
000000
000000
B00740
B00740
B00740
B00740
B00740
B00740
740740
740B40
382B40
1B9340
ENDCHAR
STARTCHAR uni01D9
ENCODING 473
SWIDTH 645 0
DWIDTH 13 0
BBX 10 19 1 0
BITMAP
024600
00B800
000000
070740
070740
000000
740070
740070
740070
740070
740070
740070
740070
740070
740070
3800B0
2C00E0
1E46C0
02FE00
ENDCHAR
STARTCHAR uni01DA
ENCODING 474
SWIDTH 544 0
DWIDTH 11 0
BBX 9 17 1 0
BITMAP
091800
02E000
000000
1D1C00
1D1C00
000000
000000
B00740
B00740
B00740
B00740
B00740
B00740
740740
740B40
382B40
1B9340
ENDCHAR
STARTCHAR uni01DB
ENCODING 475
SWIDTH 645 0
DWIDTH 13 0
BBX 10 19 1 0
BITMAP
018000
00D000
002000
070740
070740
000000
740070
740070
740070
740070
740070
740070
740070
740070
740070
3800B0
2C00E0
1E46C0
02FE00
ENDCHAR
STARTCHAR uni01DC
ENCODING 476
SWIDTH 544 0
DWIDTH 11 0
BBX 9 17 1 0
BITMAP
020000
028000
008000
1D1C00
1D1C00
000000
000000
B00740
B00740
B00740
B00740
B00740
B00740
740740
740B40
382B40
1B9340
ENDCHAR
STARTCHAR uni01E2
ENCODING 482
SWIDTH 822 0
DWIDTH 16 0
BBX 16 15 0 0
BITMAP
00007FF0
00000000
0007FFFD
000BE000
001DE000
002CE000
0074E000
00F0E000
01D0FFF4
0380E000
07FFE000
0E00E000
2D00E000
3800E000
B400FFFD
ENDCHAR
STARTCHAR uni01E3
ENCODING 483
SWIDTH 785 0
DWIDTH 16 0
BBX 14 13 1 0
BITMAP
007FF000
00000000
00000000
1BE07E40
242A81D0
000F00A0
001E00A0
0BEFAAB0
7D0E5550
B00A0000
A00B4000
B46AD180
2F907F90
ENDCHAR
STARTCHAR Gcaron
ENCODING 486
SWIDTH 617 0
DWIDTH 12 0
BBX 10 17 1 0
BITMAP
024180
00D740
007D00
000000
01BF80
0F41E0
2C0000
740000
B00000
E00000
E00000
F01FF0
B000B0
7400B0
3C00B0
0F41B0
02BF80
ENDCHAR
STARTCHAR gcaron
ENCODING 487
SWIDTH 504 0
DWIDTH 10 0
BBX 9 18 1 -4
BITMAP
180900
0A7800
03E000
000000
0BFF80
382C00
B01D00
B00D00
B01D00
382800
2BE000
700000
3FFE00
600780
D00280
D00380
B41F00
1BE400
ENDCHAR
STARTCHAR uni01EA
ENCODING 490
SWIDTH 664 0
DWIDTH 13 0
BBX 12 17 1 -4
BITMAP
02FE40
1E42D0
3800B4
740038
B0002C
E0002D
E0002D
E0002D
B0002C
740038
3C00B4
1E42D0
02FE00
002400
00A000
00A000
007D00
ENDCHAR
STARTCHAR uni01EB
ENCODING 491
SWIDTH 542 0
DWIDTH 11 0
BBX 9 14 1 -4
BITMAP
0BF400
2D1E00
B40740
E00380
E003C0
E003C0
E00380
740740
2D1E00
0BF400
01C000
024000
038000
01F400
ENDCHAR
STARTCHAR uni01F4
ENCODING 500
SWIDTH 617 0
DWIDTH 12 0
BBX 10 17 1 0
BITMAP
000240
001E40
002400
000000
01BF80
0F41E0
2C0000
740000
B00000
E00000
E00000
F01FF0
B000B0
7400B0
3C00B0
0F41B0
02BF80
ENDCHAR
STARTCHAR uni01F5
ENCODING 501
SWIDTH 504 0
DWIDTH 10 0
BBX 9 19 1 -4
BITMAP
001800
007800
01E000
018000
000000
0BFF80
382C00
B01D00
B00D00
B01D00
382800
2BE000
700000
3FFE00
600780
D00280
D00380
B41F00
1BE400
ENDCHAR
STARTCHAR uni01F8
ENCODING 504
SWIDTH 647 0
DWIDTH 13 0
BBX 10 17 1 0
BITMAP
024000
01E000
002400
000000
780070
7D0070
7B0070
778070
76C070
74E070
747470
742C70
741D70
740B70
7403B0
7401F0
7400F0
ENDCHAR
STARTCHAR uni01F9
ENCODING 505
SWIDTH 547 0
DWIDTH 11 0
BBX 9 15 1 0
BITMAP
060000
0B4000
02D000
006000
000000
71F900
790B00
740740
740740
740740
740740
740740
740740
740740
740740
ENDCHAR
STARTCHAR uni01FC
ENCODING 508
SWIDTH 822 0
DWIDTH 16 0
BBX 16 17 0 0
BITMAP
000000A0
000002D0
00000600
00000000
0007FFFD
000BE000
001DE000
002CE000
0074E000
00F0E000
01D0FFF4
0380E000
07FFE000
0E00E000
2D00E000
3800E000
B400FFFD
ENDCHAR
STARTCHAR uni01FD
ENCODING 509
SWIDTH 785 0
DWIDTH 16 0
BBX 14 15 1 0
BITMAP
00009000
0001E000
00078000
00090000
00000000
1BE07E40
242A81D0
000F00A0
001E00A0
0BEFAAB0
7D0E5550
B00A0000
A00B4000
B46AD180
2F907F90
ENDCHAR
STARTCHAR uni0218
ENCODING 536
SWIDTH 534 0
DWIDTH 11 0
BBX 9 18 1 -5
BITMAP
0AF900
2D0B40
740000
740000
780000
2F9000
06F900
002F40
000780
0003C0
400380
F40B40
1BF800
000000
019000
00B000
00A000
078000
ENDCHAR
STARTCHAR uni0219
ENCODING 537
SWIDTH 419 0
DWIDTH 8 0
BBX 7 15 1 -5
BITMAP
2FE0
B460
E000
B400
2E40
06F0
0078
0038
D074
6F90
0000
0A40
02C0
0280
1E00
ENDCHAR
STARTCHAR uni021A
ENCODING 538
SWIDTH 536 0
DWIDTH 11 0
BBX 10 18 0 -5
BITMAP
7FFFF0
007400
007400
007400
007400
007400
007400
007400
007400
007400
007400
007400
007400
000000
00A400
002C00
002800
01E000
ENDCHAR
STARTCHAR uni021B
ENCODING 539
SWIDTH 338 0
DWIDTH 7 0
BBX 7 18 0 -5
BITMAP
0E00
0E00
0E00
7FF4
0E00
0E00
0E00
0E00
0E00
0E00
0E00
0B00
02F4
0000
0290
00A0
01A0
0B80
ENDCHAR
STARTCHAR uni0237
ENCODING 567
SWIDTH 247 0
DWIDTH 5 0
BBX 5 14 -1 -4
BITMAP
0740
0740
0740
0740
0740
0740
0740
0740
0740
0740
0740
0740
0B00
BD00
ENDCHAR
STARTCHAR uni0243
ENCODING 579
SWIDTH 603 0
DWIDTH 12 0
BBX 12 13 0 0
BITMAP
0FFF80
0E01F0
0E0074
0E0034
0E0074
0F56D0
0FAB90
0E0078
1F541D
6FA81D
0E002C
0E01B4
0FFF90
ENDCHAR
STARTCHAR uni0250
ENCODING 592
SWIDTH 512 0
DWIDTH 10 0
BBX 8 10 1 0
BITMAP
B1F9
B90F
B40B
B00B
B06D
7BE0
7400
7400
2D0A
0BF9
ENDCHAR
STARTCHAR uni0251
ENCODING 593
SWIDTH 555 0
DWIDTH 11 0
BBX 9 10 1 0
BITMAP
0BE740
2D1B40
B40740
F00740
E00740
E00740
E00740
B00740
381B40
1BE340
ENDCHAR
STARTCHAR uni0252
ENCODING 594
SWIDTH 555 0
DWIDTH 11 0
BBX 9 10 1 0
BITMAP
71F900
7D0B40
740380
7402C0
7402C0
7402C0
7402C0
740780
7D1F00
76F800
ENDCHAR
STARTCHAR uni0253
ENCODING 595
SWIDTH 555 0
DWIDTH 11 0
BBX 9 14 1 0
BITMAP
0BD000
2C0000
740000
740000
75F900
7D0B40
740380
7402C0
7402C0
7402C0
7402C0
740780
791F00
76F800
ENDCHAR
STARTCHAR uni0254
ENCODING 596
SWIDTH 456 0
DWIDTH 9 0
BBX 7 10 1 0
BITMAP
BF80
91F0
0038
002C
002C
002C
002C
0038
91F0
BF80
ENDCHAR
STARTCHAR uni0255
ENCODING 597
SWIDTH 456 0
DWIDTH 9 0
BBX 8 11 1 -1
BITMAP
07F8
2D18
7400
E000
E000
E000
E1F8
BA4E
3D0D
7BF8
A000
ENDCHAR
STARTCHAR uni0256
ENCODING 598
SWIDTH 555 0
DWIDTH 11 0
BBX 11 17 1 -3
BITMAP
000740
000740
000740
000740
0BE740
2D1B40
B40740
F00740
E00740
E00740
E00740
B00740
381B40
1BE740
000340
000380
0001F4
ENDCHAR
STARTCHAR uni0257
ENCODING 599
SWIDTH 555 0
DWIDTH 11 0
BBX 11 14 1 0
BITMAP
0001B4
000380
000340
000340
0BE740
2D1B40
B40740
F00740
E00740
E00740
E00740
B00740
381B40
1BE340
ENDCHAR
STARTCHAR uni0258
ENCODING 600
SWIDTH 496 0
DWIDTH 10 0
BBX 9 10 0 0
BITMAP
06F800
1D0A00
380340
740280
7FFFC0
0002C0
000380
000740
141E00
1BF800
ENDCHAR
STARTCHAR uni0259
ENCODING 601
SWIDTH 496 0
DWIDTH 10 0
BBX 9 10 0 0
BITMAP
1BF800
191B00
000340
000280
7FFFC0
7402C0
340380
280740
1D1E00
06F800
ENDCHAR
STARTCHAR uni025A
ENCODING 602
SWIDTH 648 0
DWIDTH 13 0
BBX 12 10 1 0
BITMAP
6FE000
647800
001D60
000FB4
006F1F
1B9B00
F40B00
D00D00
742C00
1BE000
ENDCHAR
STARTCHAR uni025B
ENCODING 603
SWIDTH 440 0
DWIDTH 9 0
BBX 7 10 1 0
BITMAP
1BE4
7814
7400
3800
1FE0
7400
E000
E000
7818
1BF8
ENDCHAR
STARTCHAR uni025C
ENCODING 604
SWIDTH 456 0
DWIDTH 9 0
BBX 7 10 1 0
BITMAP
6F90
50B4
0038
00B4
1FD0
0078
002C
002C
9078
AF90
ENDCHAR
STARTCHAR uni025E
ENCODING 606
SWIDTH 546 0
DWIDTH 11 0
BBX 9 10 1 0
BITMAP
1BE400
781E00
740740
380380
1FC2C0
7402C0
E00380
E00740
781E00
1BF400
ENDCHAR
STARTCHAR uni025F
ENCODING 607
SWIDTH 270 0
DWIDTH 5 0
BBX 7 14 -1 -4
BITMAP
0380
0380
0380
0780
3FF4
0380
0380
0380
0380
0380
0380
0340
0740
7D00
ENDCHAR
STARTCHAR uni0260
ENCODING 608
SWIDTH 559 0
DWIDTH 11 0
BBX 11 16 1 -4
BITMAP
0001B4
000380
0BE780
2D1B80
740380
B00380
E00380
E00380
F00380
B40780
391B80
0BE780
000340
000740
241E00
1BE800
ENDCHAR
STARTCHAR uni0261
ENCODING 609
SWIDTH 559 0
DWIDTH 11 0
BBX 9 14 1 -4
BITMAP
0BE780
2D1B80
740380
B00380
E00380
E00380
F00380
B40780
391B80
0BE780
000340
000740
241E00
1BE400
ENDCHAR
STARTCHAR uni0262
ENCODING 610
SWIDTH 497 0
DWIDTH 10 0
BBX 8 10 1 0
BITMAP
07F9
2D09
B400
E000
E000
E0BF
E00B
B40B
2D0B
0BF9
ENDCHAR
STARTCHAR uni0263
ENCODING 611
SWIDTH 467 0
DWIDTH 9 0
BBX 9 14 0 -4
BITMAP
B002C0
740380
2C0700
1D0A00
0E0D00
0B1C00
077800
02F400
01F000
02B400
076800
072C00
072800
02F400
ENDCHAR
STARTCHAR uni0264
ENCODING 612
SWIDTH 511 0
DWIDTH 10 0
BBX 10 10 0 0
BITMAP
7E07E0
07AD00
01F400
02EC00
0B4E00
0E0740
1D0380
1D0340
0E0B00
02F900
ENDCHAR
STARTCHAR uni0265
ENCODING 613
SWIDTH 547 0
DWIDTH 11 0
BBX 9 14 1 -4
BITMAP
B00740
B00740
B00740
B00740
B00740
B00740
740740
740B40
382B40
1BD740
000740
000740
000740
000740
ENDCHAR
STARTCHAR uni0266
ENCODING 614
SWIDTH 544 0
DWIDTH 11 0
BBX 9 14 1 0
BITMAP
0BD000
2D0000
740000
740000
75B900
760B00
780740
740740
740740
740740
740740
740740
740740
740740
ENDCHAR
STARTCHAR uni0267
ENCODING 615
SWIDTH 544 0
DWIDTH 11 0
BBX 9 17 1 -3
BITMAP
0BD000
2D0000
740000
740000
75B900
760B00
780740
740740
740740
740740
740740
740740
740740
740740
000740
000B00
007D00
ENDCHAR
STARTCHAR uni0268
ENCODING 616
SWIDTH 270 0
DWIDTH 5 0
BBX 6 14 0 0
BITMAP
1E00
1E00
0000
0000
0E00
0E00
0E00
0E00
BFD0
0E00
0E00
0E00
0E00
0E00
ENDCHAR
STARTCHAR uni026A
ENCODING 618
SWIDTH 341 0
DWIDTH 7 0
BBX 5 10 1 0
BITMAP
FFC0
1D00
1D00
1D00
1D00
1D00
1D00
1D00
1D00
FFC0
ENDCHAR
STARTCHAR uni026C
ENCODING 620
SWIDTH 302 0
DWIDTH 6 0
BBX 6 14 0 0
BITMAP
0740
0740
0740
0740
1B40
EF40
C740
7FF0
0740
0740
0740
0740
0740
02D0
ENDCHAR
STARTCHAR uni026D
ENCODING 621
SWIDTH 255 0
DWIDTH 5 0
BBX 5 17 1 -3
BITMAP
7400
7400
7400
7400
7400
7400
7400
7400
7400
7400
7400
7400
7400
7400
7400
3800
1F40
ENDCHAR
STARTCHAR uni026E
ENCODING 622
SWIDTH 577 0
DWIDTH 12 0
BBX 10 18 1 -4
BITMAP
740000
740000
740000
740000
7FFFE0
7402D0
740780
740E00
742C00
74B400
74FF80
7401E0
7400B0
7400B0
0000B0
0000E0
0A42D0
02FE00
ENDCHAR
STARTCHAR uni026F
ENCODING 623
SWIDTH 829 0
DWIDTH 17 0
BBX 14 10 1 0
BITMAP
740B00B0
740B00B0
740B00B0
740B00B0
740B00B0
740B00B0
740B00B0
740F40F0
382782B0
1B91F970
ENDCHAR
STARTCHAR uni0270
ENCODING 624
SWIDTH 829 0
DWIDTH 17 0
BBX 14 14 1 -4
BITMAP
740B00B0
740B00B0
740B00B0
740B00B0
740B00B0
740B00B0
740B00B0
740F40F0
382786B0
1B91F9B0
000000B0
000000B0
000000B0
000000B0
ENDCHAR
STARTCHAR uni0271
ENCODING 625
SWIDTH 829 0
DWIDTH 17 0
BBX 14 13 1 -3
BITMAP
71F81F80
791E91E0
740B40B0
740740B0
740740B0
740740B0
740740B0
740740B0
740740B0
740740B0
000000B0
000000E0
00000B80
ENDCHAR
STARTCHAR uni0272
ENCODING 626
SWIDTH 547 0
DWIDTH 11 0
BBX 11 13 -1 -3
BITMAP
071F90
07A0B0
074074
074074
074074
074074
074074
074074
074074
074074
074000
0B0000
7D0000
ENDCHAR
STARTCHAR uni0273
ENCODING 627
SWIDTH 547 0
DWIDTH 11 0
BBX 11 13 1 -3
BITMAP
71F900
7A0B00
740740
740740
740740
740740
740740
740740
740740
740740
000340
000380
0001F4
ENDCHAR
STARTCHAR uni0274
ENCODING 628
SWIDTH 543 0
DWIDTH 11 0
BBX 9 10 1 0
BITMAP
780740
7C0740
7A0740
774740
72C740
74D740
747740
742B40
741F40
740B40
ENDCHAR
STARTCHAR uni0275
ENCODING 629
SWIDTH 542 0
DWIDTH 11 0
BBX 9 10 1 0
BITMAP
0BF400
391E00
B00740
E00280
FFFFC0
E002C0
E00380
B40740
3D1E00
0BF400
ENDCHAR
STARTCHAR uni0276
ENCODING 630
SWIDTH 699 0
DWIDTH 14 0
BBX 13 10 1 0
BITMAP
07FFFF40
2D0E0000
B40E0000
F00E0000
E00FFE00
E00E0000
F00E0000
B40E0000
2D0E0000
0BFFFF40
ENDCHAR
STARTCHAR uni0278
ENCODING 632
SWIDTH 680 0
DWIDTH 14 0
BBX 12 18 1 -4
BITMAP
003800
003800
003800
003800
06FF80
2D39B4
74382C
F0381D
E0380E
E0380E
F0381D
74382C
2D39B4
06FF80
003800
003800
003800
003800
ENDCHAR
STARTCHAR uni0279
ENCODING 633
SWIDTH 347 0
DWIDTH 7 0
BBX 6 10 0 0
BITMAP
01D0
01D0
01D0
01D0
01D0
01D0
01D0
02D0
0AD0
F4D0
ENDCHAR
STARTCHAR uni027A
ENCODING 634
SWIDTH 347 0
DWIDTH 7 0
BBX 6 14 0 0
BITMAP
01D0
01D0
01D0
01D0
01D0
01D0
01D0
01D0
01D0
01D0
01D0
02D0
0AD0
F4D0
ENDCHAR
STARTCHAR uni027B
ENCODING 635
SWIDTH 347 0
DWIDTH 7 0
BBX 8 13 0 -3
BITMAP
01D0
01D0
01D0
01D0
01D0
01D0
01D0
02D0
0AD0
F5D0
01D0
00E0
007D
ENDCHAR
STARTCHAR uni027D
ENCODING 637
SWIDTH 347 0
DWIDTH 7 0
BBX 6 13 1 -3
BITMAP
71E0
7900
7800
7400
7400
7400
7400
7400
7400
7400
7400
3800
1F40
ENDCHAR
STARTCHAR uni027E
ENCODING 638
SWIDTH 334 0
DWIDTH 7 0
BBX 6 10 1 0
BITMAP
0BE0
2D00
7400
7400
7400
7400
7400
7400
7400
7400
ENDCHAR
STARTCHAR uni0280
ENCODING 640
SWIDTH 495 0
DWIDTH 10 0
BBX 8 10 1 0
BITMAP
7FE4
742D
740E
740E
742D
7FF4
74B0
7438
741D
740F
ENDCHAR
STARTCHAR uni0281
ENCODING 641
SWIDTH 495 0
DWIDTH 10 0
BBX 8 10 1 0
BITMAP
E01D
741D
2C1D
1E1D
1FFD
781D
B01D
B01D
741D
1FFD
ENDCHAR
STARTCHAR uni0282
ENCODING 642
SWIDTH 419 0
DWIDTH 8 0
BBX 8 14 0 -4
BITMAP
0BF8
2D18
3800
2D00
0B90
01BC
001E
000E
241D
7BE4
7000
7000
3400
1F40
ENDCHAR
STARTCHAR uni0283
ENCODING 643
SWIDTH 247 0
DWIDTH 5 0
BBX 7 18 -1 -4
BITMAP
01B8
0380
0740
0740
0740
0740
0740
0740
0740
0740
0740
0740
0740
0740
0740
0740
0B00
BD00
ENDCHAR
STARTCHAR uni0284
ENCODING 644
SWIDTH 270 0
DWIDTH 5 0
BBX 7 18 -1 -4
BITMAP
01B8
0380
0380
0380
0380
0380
0380
0780
3FF4
0380
0380
0380
0380
0380
0380
0340
0740
7D00
ENDCHAR
STARTCHAR uni0288
ENCODING 648
SWIDTH 338 0
DWIDTH 7 0
BBX 7 17 0 -4
BITMAP
0900
0E00
0E00
7FF4
0E00
0E00
0E00
0E00
0E00
0E00
0E00
0E00
0E00
0E00
0E00
0B00
02F4
ENDCHAR
STARTCHAR uni0289
ENCODING 649
SWIDTH 575 0
DWIDTH 12 0
BBX 12 10 0 0
BITMAP
0E00E0
0E00E0
0E00E0
0E00E0
BFFFFD
0E00E0
0E00E0
0E01E0
0B46E0
02F8A0
ENDCHAR
STARTCHAR uni028A
ENCODING 650
SWIDTH 541 0
DWIDTH 11 0
BBX 10 10 0 0
BITMAP
7F4BF0
0B0740
1D01C0
2C00E0
3800E0
3800F0
3800E0
2C01D0
0B4780
02FD00
ENDCHAR
STARTCHAR uni028B
ENCODING 651
SWIDTH 530 0
DWIDTH 11 0
BBX 9 10 1 0
BITMAP
B07D00
B00B00
B00740
B00380
B00380
700740
740740
740B00
2D1D00
0BE400
ENDCHAR
STARTCHAR uni028C
ENCODING 652
SWIDTH 467 0
DWIDTH 9 0
BBX 9 10 0 0
BITMAP
01E000
02B000
077400
0B2800
0E1C00
1D0E00
2C0B00
380740
740380
B002C0
ENDCHAR
STARTCHAR uni028D
ENCODING 653
SWIDTH 718 0
DWIDTH 14 0
BBX 14 10 0 0
BITMAP
03D03D00
07D03E00
0BA07B00
0E70A700
0D34D340
1C38C380
2C29C2C0
381E81D0
340F41D0
740B00E0
ENDCHAR
STARTCHAR uni028E
ENCODING 654
SWIDTH 467 0
DWIDTH 9 0
BBX 9 14 0 0
BITMAP
000B80
003800
00B000
00E000
01D000
02E000
03B000
073400
0A2800
0D1D00
1C0E00
380B00
740340
B002C0
ENDCHAR
STARTCHAR uni028F
ENCODING 655
SWIDTH 415 0
DWIDTH 8 0
BBX 8 10 0 0
BITMAP
B00B
740E
2C2C
1D38
0A70
07E0
02C0
02C0
02C0
02C0
ENDCHAR
STARTCHAR uni0290
ENCODING 656
SWIDTH 425 0
DWIDTH 9 0
BBX 10 13 0 -3
BITMAP
2FFE00
002D00
007800
00B000
01D000
038000
0B4000
1E0000
2C0000
7FFE00
000E00
000B00
0002E0
ENDCHAR
STARTCHAR uni0291
ENCODING 657
SWIDTH 449 0
DWIDTH 9 0
BBX 10 12 0 -2
BITMAP
2FFE00
002D00
007800
00F000
02D000
038000
0B4B80
1E28D0
3C61C0
7FFE40
00C000
004000
ENDCHAR
STARTCHAR uni0292
ENCODING 658
SWIDTH 425 0
DWIDTH 9 0
BBX 8 14 0 -4
BITMAP
3FFE
002D
0078
00E0
02C0
0740
0FF4
042D
000F
000B
000B
000E
A42C
2FE4
ENDCHAR
STARTCHAR uni0294
ENCODING 660
SWIDTH 417 0
DWIDTH 8 0
BBX 8 14 0 0
BITMAP
2FE4
B42D
000E
000B
000E
001E
0078
02E0
0380
0380
0380
0380
0380
0380
ENDCHAR
STARTCHAR uni0295
ENCODING 661
SWIDTH 443 0
DWIDTH 9 0
BBX 9 14 0 0
BITMAP
06F900
2D0740
780100
740000
740000
3C0000
1F4000
07D000
00E000
00E000
00E000
00E000
00E000
00E000
ENDCHAR
STARTCHAR uni0298
ENCODING 664
SWIDTH 525 0
DWIDTH 11 0
BBX 9 14 1 0
BITMAP
07E000
2D2C00
340E00
700B00
B00700
A00740
A1C740
A00740
A00740
B00700
700B00
340E00
2D2C00
07E400
ENDCHAR
STARTCHAR uni0299
ENCODING 665
SWIDTH 508 0
DWIDTH 10 0
BBX 9 10 1 0
BITMAP
7FF800
741E00
740B00
741E00
7FF800
741F00
740740
740740
741F00
7FF800
ENDCHAR
STARTCHAR uni029C
ENCODING 668
SWIDTH 562 0
DWIDTH 11 0
BBX 9 10 1 0
BITMAP
740380
740380
740380
740380
7FFF80
740380
740380
740380
740380
740380
ENDCHAR
STARTCHAR uni029D
ENCODING 669
SWIDTH 284 0
DWIDTH 6 0
BBX 8 19 -2 -5
BITMAP
00B4
00B4
0000
0000
00B0
00B0
00B0
00B0
00B0
00B0
00B0
00B0
00B0
00B0
2FF0
A1F0
B1F8
2F9D
000B
ENDCHAR
STARTCHAR uni029F
ENCODING 671
SWIDTH 411 0
DWIDTH 8 0
BBX 7 10 1 0
BITMAP
7400
7400
7400
7400
7400
7400
7400
7400
7400
7FF8
ENDCHAR
STARTCHAR uni02A1
ENCODING 673
SWIDTH 441 0
DWIDTH 9 0
BBX 9 14 0 0
BITMAP
1BE400
741D00
100B00
000740
000B00
000E00
002D00
00B400
BFFF40
038000
038000
038000
038000
038000
ENDCHAR
STARTCHAR uni02A2
ENCODING 674
SWIDTH 441 0
DWIDTH 9 0
BBX 9 14 0 0
BITMAP
06F900
2D0740
740100
740000
740000
380000
1E0000
078000
BFFF80
00E000
00E000
00E000
00E000
00E000
ENDCHAR
STARTCHAR h.sups
ENCODING 688
SWIDTH 366 0
DWIDTH 7 0
BBX 6 9 1 8
BITMAP
D000
D000
D000
DB80
E0D0
D090
D090
D090
D090
ENDCHAR
STARTCHAR j.sups
ENCODING 690
SWIDTH 169 0
DWIDTH 3 0
BBX 4 12 -1 5
BITMAP
0D
0D
00
0D
0D
0D
0D
0D
0D
0D
0D
78
ENDCHAR
STARTCHAR r.sups
ENCODING 691
SWIDTH 240 0
DWIDTH 5 0
BBX 4 6 1 8
BITMAP
9E
E0
D0
D0
D0
D0
ENDCHAR
STARTCHAR w.sups
ENCODING 695
SWIDTH 487 0
DWIDTH 10 0
BBX 10 6 0 8
BITMAP
A0A0D0
70F0C0
35A580
2A6640
1B1B00
0E0F00
ENDCHAR
STARTCHAR y.sups
ENCODING 696
SWIDTH 319 0
DWIDTH 6 0
BBX 6 9 0 5
BITMAP
A030
7060
2490
18C0
0D80
0B40
0700
0900
7800
ENDCHAR
STARTCHAR uni02B9
ENCODING 697
SWIDTH 249 0
DWIDTH 5 0
BBX 3 5 1 9
BITMAP
38
34
34
70
60
ENDCHAR
STARTCHAR uni02BB
ENCODING 699
SWIDTH 249 0
DWIDTH 5 0
BBX 3 5 1 9
BITMAP
28
60
90
B4
74
ENDCHAR
STARTCHAR uni02BC
ENCODING 700
SWIDTH 249 0
DWIDTH 5 0
BBX 3 5 1 9
BITMAP
74
78
18
24
A0
ENDCHAR
STARTCHAR uni02BE
ENCODING 702
SWIDTH 166 0
DWIDTH 3 0
BBX 3 4 0 11
BITMAP
74
1C
1C
74
ENDCHAR
STARTCHAR uni02BF
ENCODING 703
SWIDTH 166 0
DWIDTH 3 0
BBX 3 4 0 11
BITMAP
28
A0
A0
28
ENDCHAR
STARTCHAR uni02C1
ENCODING 705
SWIDTH 302 0
DWIDTH 6 0
BBX 6 10 0 7
BITMAP
1F80
7460
A000
7000
2800
0B00
0700
0700
0700
0100
ENDCHAR
STARTCHAR circumflex
ENCODING 710
SWIDTH 542 0
DWIDTH 11 0
BBX 7 3 2 11
BITMAP
0B80
29E0
6024
ENDCHAR
STARTCHAR caron
ENCODING 711
SWIDTH 542 0
DWIDTH 11 0
BBX 7 3 2 11
BITMAP
6024
29E0
0B80
ENDCHAR
STARTCHAR uni02C8
ENCODING 712
SWIDTH 114 0
DWIDTH 2 0
BBX 2 4 0 11
BITMAP
A0
A0
60
60
ENDCHAR
STARTCHAR uni02C9
ENCODING 713
SWIDTH 277 0
DWIDTH 6 0
BBX 6 1 0 12
BITMAP
FFD0
ENDCHAR
STARTCHAR uni02CA
ENCODING 714
SWIDTH 225 0
DWIDTH 5 0
BBX 4 4 1 11
BITMAP
09
1E
78
90
ENDCHAR
STARTCHAR uni02CB
ENCODING 715
SWIDTH 225 0
DWIDTH 5 0
BBX 4 4 -1 11
BITMAP
20
78
1E
02
ENDCHAR
STARTCHAR uni02CC
ENCODING 716
SWIDTH 114 0
DWIDTH 2 0
BBX 2 4 0 -5
BITMAP
60
60
A0
A0
ENDCHAR
STARTCHAR uni02D0
ENCODING 720
SWIDTH 249 0
DWIDTH 5 0
BBX 3 9 1 0
BITMAP
B8
74
20
00
00
00
20
74
B8
ENDCHAR
STARTCHAR uni02D1
ENCODING 721
SWIDTH 249 0
DWIDTH 5 0
BBX 3 3 1 5
BITMAP
B8
74
20
ENDCHAR
STARTCHAR breve
ENCODING 728
SWIDTH 542 0
DWIDTH 11 0
BBX 7 3 2 11
BITMAP
9024
7470
1F90
ENDCHAR
STARTCHAR dotaccent
ENCODING 729
SWIDTH 542 0
DWIDTH 11 0
BBX 3 2 4 12
BITMAP
74
74
ENDCHAR
STARTCHAR ring
ENCODING 730
SWIDTH 542 0
DWIDTH 11 0
BBX 5 4 3 11
BITMAP
2E00
A280
A280
2E00
ENDCHAR
STARTCHAR ogonek
ENCODING 731
SWIDTH 542 0
DWIDTH 11 0
BBX 4 4 4 -4
BITMAP
30
90
E0
7D
ENDCHAR
STARTCHAR tilde
ENCODING 732
SWIDTH 542 0
DWIDTH 11 0
BBX 7 3 2 11
BITMAP
1404
AA28
C1F4
ENDCHAR
STARTCHAR hungarumlaut
ENCODING 733
SWIDTH 542 0
DWIDTH 11 0
BBX 7 4 3 11
BITMAP
0834
2CA0
34C0
6040
ENDCHAR
STARTCHAR uni02DE
ENCODING 734
SWIDTH 151 0
DWIDTH 3 0
BBX 6 4 -2 5
BITMAP
0400
7C00
9A00
07D0
ENDCHAR
STARTCHAR uni02E0
ENCODING 736
SWIDTH 318 0
DWIDTH 6 0
BBX 6 9 0 5
BITMAP
A070
70A0
24D0
1980
0E40
0B00
0E80
1980
0B40
ENDCHAR
STARTCHAR l.sups
ENCODING 737
SWIDTH 174 0
DWIDTH 3 0
BBX 2 9 1 8
BITMAP
D0
D0
D0
D0
D0
D0
D0
D0
B0
ENDCHAR
STARTCHAR s.sups
ENCODING 738
SWIDTH 283 0
DWIDTH 6 0
BBX 6 6 0 8
BITMAP
2F80
7040
2900
06C0
51D0
2F80
ENDCHAR
STARTCHAR x.sups
ENCODING 739
SWIDTH 307 0
DWIDTH 6 0
BBX 6 6 0 8
BITMAP
7090
2980
0F40
0F40
25C0
A0A0
ENDCHAR
STARTCHAR uni0300
ENCODING 768
SWIDTH 0 0
DWIDTH 0 0
BBX 4 4 -3 11
BITMAP
60
78
1D
06
ENDCHAR
STARTCHAR uni0301
ENCODING 769
SWIDTH 0 0
DWIDTH 0 0
BBX 4 4 -1 11
BITMAP
09
2D
74
90
ENDCHAR
STARTCHAR uni0302
ENCODING 770
SWIDTH 0 0
DWIDTH 0 0
BBX 6 3 -3 11
BITMAP
1F40
75D0
9060
ENDCHAR
STARTCHAR uni0303
ENCODING 771
SWIDTH 0 0
DWIDTH 0 0
BBX 8 3 -4 11
BITMAP
0504
3B4D
60B8
ENDCHAR
STARTCHAR uni0304
ENCODING 772
SWIDTH 0 0
DWIDTH 0 0
BBX 6 1 -3 12
BITMAP
BFE0
ENDCHAR
STARTCHAR uni0305
ENCODING 773
SWIDTH 0 0
DWIDTH 0 0
BBX 6 1 -3 12
BITMAP
BFE0
ENDCHAR
STARTCHAR uni0306
ENCODING 774
SWIDTH 0 0
DWIDTH 0 0
BBX 6 3 -3 11
BITMAP
C030
A0A0
2F80
ENDCHAR
STARTCHAR uni0307
ENCODING 775
SWIDTH 0 0
DWIDTH 0 0
BBX 2 2 -1 12
BITMAP
A0
A0
ENDCHAR
STARTCHAR uni0308
ENCODING 776
SWIDTH 0 0
DWIDTH 0 0
BBX 6 2 -3 12
BITMAP
A0A0
A0A0
ENDCHAR
STARTCHAR uni0309
ENCODING 777
SWIDTH 0 0
DWIDTH 0 0
BBX 4 4 -2 11
BITMAP
78
0D
0D
28
ENDCHAR
STARTCHAR uni030A
ENCODING 778
SWIDTH 0 0
DWIDTH 0 0
BBX 4 4 -2 11
BITMAP
7D
C3
C3
7D
ENDCHAR
STARTCHAR uni030B
ENCODING 779
SWIDTH 0 0
DWIDTH 0 0
BBX 6 4 -2 11
BITMAP
18A0
34D0
7280
9100
ENDCHAR
STARTCHAR uni030C
ENCODING 780
SWIDTH 0 0
DWIDTH 0 0
BBX 6 3 -3 11
BITMAP
9060
75D0
1F40
ENDCHAR
STARTCHAR uni030F
ENCODING 783
SWIDTH 0 0
DWIDTH 0 0
BBX 6 4 -4 11
BITMAP
9240
71C0
34D0
1860
ENDCHAR
STARTCHAR uni0311
ENCODING 785
SWIDTH 0 0
DWIDTH 0 0
BBX 6 3 -3 11
BITMAP
2F80
A0A0
C030
ENDCHAR
STARTCHAR uni0312
ENCODING 786
SWIDTH 0 0
DWIDTH 0 0
BBX 2 4 -1 11
BITMAP
60
80
E0
A0
ENDCHAR
STARTCHAR uni0313
ENCODING 787
SWIDTH 0 0
DWIDTH 0 0
BBX 2 4 -1 11
BITMAP
A0
B0
20
90
ENDCHAR
STARTCHAR uni0318
ENCODING 792
SWIDTH 0 0
DWIDTH 0 0
BBX 4 5 -2 -6
BITMAP
01
06
BE
06
01
ENDCHAR
STARTCHAR uni0319
ENCODING 793
SWIDTH 0 0
DWIDTH 0 0
BBX 4 5 -2 -6
BITMAP
40
90
BE
90
40
ENDCHAR
STARTCHAR uni031A
ENCODING 794
SWIDTH 0 0
DWIDTH 0 0
BBX 4 3 -2 11
BITMAP
BE
06
06
ENDCHAR
STARTCHAR uni031B
ENCODING 795
SWIDTH 0 0
DWIDTH 0 0
BBX 3 4 0 9
BITMAP
28
2C
78
D0
ENDCHAR
STARTCHAR uni031C
ENCODING 796
SWIDTH 0 0
DWIDTH 0 0
BBX 3 4 -2 -5
BITMAP
2C
60
60
2C
ENDCHAR
STARTCHAR uni031D
ENCODING 797
SWIDTH 0 0
DWIDTH 0 0
BBX 4 3 -2 -4
BITMAP
28
28
FF
ENDCHAR
STARTCHAR uni031E
ENCODING 798
SWIDTH 0 0
DWIDTH 0 0
BBX 4 3 -2 -5
BITMAP
FF
28
28
ENDCHAR
STARTCHAR uni031F
ENCODING 799
SWIDTH 0 0
DWIDTH 0 0
BBX 4 5 -2 -6
BITMAP
14
28
FF
28
14
ENDCHAR
STARTCHAR uni0320
ENCODING 800
SWIDTH 0 0
DWIDTH 0 0
BBX 4 1 -2 -4
BITMAP
FF
ENDCHAR
STARTCHAR uni0323
ENCODING 803
SWIDTH 0 0
DWIDTH 0 0
BBX 2 2 -1 -4
BITMAP
A0
A0
ENDCHAR
STARTCHAR uni0324
ENCODING 804
SWIDTH 0 0
DWIDTH 0 0
BBX 6 2 -3 -4
BITMAP
A0A0
A0A0
ENDCHAR
STARTCHAR uni0325
ENCODING 805
SWIDTH 0 0
DWIDTH 0 0
BBX 4 4 -2 -5
BITMAP
7D
C3
C3
7D
ENDCHAR
STARTCHAR uni0326
ENCODING 806
SWIDTH 0 0
DWIDTH 0 0
BBX 4 4 -2 -5
BITMAP
38
0D
1D
A4
ENDCHAR
STARTCHAR uni0327
ENCODING 807
SWIDTH 0 0
DWIDTH 0 0
BBX 4 6 -2 -5
BITMAP
04
24
38
1E
1D
A4
ENDCHAR
STARTCHAR uni0328
ENCODING 808
SWIDTH 0 0
DWIDTH 0 0
BBX 4 4 -2 -4
BITMAP
18
30
70
2E
ENDCHAR
STARTCHAR uni0329
ENCODING 809
SWIDTH 0 0
DWIDTH 0 0
BBX 2 4 -1 -5
BITMAP
A0
A0
A0
A0
ENDCHAR
STARTCHAR uni032A
ENCODING 810
SWIDTH 0 0
DWIDTH 0 0
BBX 6 3 -3 -5
BITMAP
7FD0
6090
5050
ENDCHAR
STARTCHAR uni032C
ENCODING 812
SWIDTH 0 0
DWIDTH 0 0
BBX 6 3 -3 -5
BITMAP
9060
75D0
1F40
ENDCHAR
STARTCHAR uni032E
ENCODING 814
SWIDTH 0 0
DWIDTH 0 0
BBX 6 3 -3 -5
BITMAP
C030
A0A0
2F80
ENDCHAR
STARTCHAR uni032F
ENCODING 815
SWIDTH 0 0
DWIDTH 0 0
BBX 6 3 -3 -5
BITMAP
2F80
A0A0
C030
ENDCHAR
STARTCHAR uni0330
ENCODING 816
SWIDTH 0 0
DWIDTH 0 0
BBX 8 3 -4 -5
BITMAP
0504
3B4D
60B8
ENDCHAR
STARTCHAR uni0331
ENCODING 817
SWIDTH 0 0
DWIDTH 0 0
BBX 6 1 -3 -3
BITMAP
BFE0
ENDCHAR
STARTCHAR uni0334
ENCODING 820
SWIDTH 0 0
DWIDTH 0 0
BBX 8 3 -4 3
BITMAP
0504
3B4D
60B8
ENDCHAR
STARTCHAR uni0339
ENCODING 825
SWIDTH 0 0
DWIDTH 0 0
BBX 3 4 -1 -5
BITMAP
E0
24
24
E0
ENDCHAR
STARTCHAR uni033A
ENCODING 826
SWIDTH 0 0
DWIDTH 0 0
BBX 6 3 -3 -5
BITMAP
5050
6090
7FD0
ENDCHAR
STARTCHAR uni033B
ENCODING 827
SWIDTH 0 0
DWIDTH 0 0
BBX 6 4 -3 -5
BITMAP
7FD0
6090
6090
7FD0
ENDCHAR
STARTCHAR uni033C
ENCODING 828
SWIDTH 0 0
DWIDTH 0 0
BBX 8 2 -4 -4
BITMAP
2EB8
6289
ENDCHAR
STARTCHAR uni033D
ENCODING 829
SWIDTH 0 0
DWIDTH 0 0
BBX 4 3 -2 11
BITMAP
55
3C
69
ENDCHAR
STARTCHAR uni0342
ENCODING 834
SWIDTH 0 0
DWIDTH 0 0
BBX 8 3 -4 11
BITMAP
0504
3B4D
60B8
ENDCHAR
STARTCHAR uni0345
ENCODING 837
SWIDTH 0 0
DWIDTH 0 0
BBX 3 3 -1 -4
BITMAP
50
A0
78
ENDCHAR
STARTCHAR uni0361
ENCODING 865
SWIDTH 0 0
DWIDTH 0 0
BBX 18 3 -9 11
BITMAP
016FFF9400
1F94016F40
A4000001A0
ENDCHAR
STARTCHAR uni0374
ENCODING 884
SWIDTH 249 0
DWIDTH 5 0
BBX 3 5 1 9
BITMAP
38
34
34
70
60
ENDCHAR
STARTCHAR uni0375
ENCODING 885
SWIDTH 249 0
DWIDTH 5 0
BBX 3 5 1 0
BITMAP
34
34
70
70
B0
ENDCHAR
STARTCHAR uni037A
ENCODING 890
SWIDTH 542 0
DWIDTH 11 0
BBX 3 3 5 -4
BITMAP
80
D0
B4
ENDCHAR
STARTCHAR uni037E
ENCODING 894
SWIDTH 249 0
DWIDTH 5 0
BBX 3 13 1 -3
BITMAP
74
B8
74
00
00
00
00
00
78
7C
18
24
A0
ENDCHAR
STARTCHAR tonos
ENCODING 900
SWIDTH 542 0
DWIDTH 11 0
BBX 2 4 5 11
BITMAP
70
B0
D0
C0
ENDCHAR
STARTCHAR dieresistonos
ENCODING 901
SWIDTH 542 0
DWIDTH 11 0
BBX 7 4 2 11
BITMAP
0180
72A4
7324
0200
ENDCHAR
STARTCHAR Alphatonos
ENCODING 902
SWIDTH 566 0
DWIDTH 11 0
BBX 11 13 0 0
BITMAP
707C00
B0BD00
A0DA00
91DB00
02C740
038380
0742C0
0B01D0
0FFFE0
1D00B0
2C0074
380038
74002C
ENDCHAR
STARTCHAR anoteleia
ENCODING 903
SWIDTH 249 0
DWIDTH 5 0
BBX 3 3 1 7
BITMAP
74
B8
74
ENDCHAR
STARTCHAR Epsilontonos
ENCODING 904
SWIDTH 591 0
DWIDTH 12 0
BBX 12 13 -1 0
BITMAP
28FFFE
34E000
70E000
70E000
00E000
00E000
00FFF8
00E000
00E000
00E000
00E000
00E000
00FFFF
ENDCHAR
STARTCHAR Etatonos
ENCODING 905
SWIDTH 716 0
DWIDTH 14 0
BBX 14 13 -1 0
BITMAP
28E000E0
34E000E0
70E000E0
70E000E0
00E000E0
00E000E0
00FFFFE0
00E000E0
00E000E0
00E000E0
00E000E0
00E000E0
00E000E0
ENDCHAR
STARTCHAR Iotatonos
ENCODING 906
SWIDTH 327 0
DWIDTH 7 0
BBX 6 13 -1 0
BITMAP
28E0
34E0
70E0
70E0
00E0
00E0
00E0
00E0
00E0
00E0
00E0
00E0
00E0
ENDCHAR
STARTCHAR Omicrontonos
ENCODING 908
SWIDTH 711 0
DWIDTH 14 0
BBX 15 13 -1 0
BITMAP
280BF900
34790B40
70E002D0
71D000E0
02C000B0
038000B0
038000B4
038000B0
02C000B0
01D000E0
00E002C0
00790B40
000BF900
ENDCHAR
STARTCHAR Upsilontonos
ENCODING 910
SWIDTH 600 0
DWIDTH 12 0
BBX 13 13 -1 0
BITMAP
29D00380
34B00740
70740E00
702C1D00
001D2800
000A7400
0007E000
0002D000
0002C000
0002C000
0002C000
0002C000
0002C000
ENDCHAR
STARTCHAR Omegatonos
ENCODING 911
SWIDTH 723 0
DWIDTH 14 0
BBX 15 13 -1 0
BITMAP
340BF900
34390B40
70B001D0
61D000E0
02C000B0
02C00074
03C00074
02C000B4
02D000B0
01E000E0
00B002C0
003C0B40
03FE0FF8
ENDCHAR
STARTCHAR iotadieresistonos
ENCODING 912
SWIDTH 262 0
DWIDTH 5 0
BBX 7 15 -1 0
BITMAP
0280
6274
6334
0600
0000
0740
0740
0740
0740
0740
0740
0740
0740
0740
02E0
ENDCHAR
STARTCHAR Alpha
ENCODING 913
SWIDTH 544 0
DWIDTH 11 0
BBX 11 13 0 0
BITMAP
00B800
00EC00
01DD00
028E00
034B00
074740
0B0380
0E02C0
1FFFD0
2C00E0
3800B0
740074
B00038
ENDCHAR
STARTCHAR Beta
ENCODING 914
SWIDTH 588 0
DWIDTH 12 0
BBX 10 13 1 0
BITMAP
7FF900
740780
7402C0
7401C0
7402C0
740B40
7FFE40
7406D0
7400F0
7400B0
7400E0
7406D0
7FFA00
ENDCHAR
STARTCHAR Gamma
ENCODING 915
SWIDTH 498 0
DWIDTH 10 0
BBX 9 13 1 0
BITMAP
7FFF40
740000
740000
740000
740000
740000
740000
740000
740000
740000
740000
740000
740000
ENDCHAR
STARTCHAR uni0394
ENCODING 916
SWIDTH 588 0
DWIDTH 12 0
BBX 11 13 0 0
BITMAP
007C00
00BD00
00DA00
01D700
02C340
038280
0741D0
0B01E0
0E00F0
2D00B4
3C0078
78003C
7FFFFC
ENDCHAR
STARTCHAR Epsilon
ENCODING 917
SWIDTH 527 0
DWIDTH 11 0
BBX 9 13 1 0
BITMAP
7FFF40
740000
740000
740000
740000
740000
7FFD00
740000
740000
740000
740000
740000
7FFF80
ENDCHAR
STARTCHAR Zeta
ENCODING 918
SWIDTH 539 0
DWIDTH 11 0
BBX 9 13 1 0
BITMAP
7FFFC0
000B80
000F00
002D00
007800
00F000
02D000
078000
0F4000
2E0000
7C0000
B40000
FFFFC0
ENDCHAR
STARTCHAR Eta
ENCODING 919
SWIDTH 652 0
DWIDTH 13 0
BBX 11 13 1 0
BITMAP
740074
740074
740074
740074
740074
740074
7FFFF4
740074
740074
740074
740074
740074
740074
ENDCHAR
STARTCHAR Theta
ENCODING 920
SWIDTH 664 0
DWIDTH 13 0
BBX 12 13 1 0
BITMAP
02FE40
1E42D0
3800B4
740038
B0002C
E0002D
E2FF2D
E0002D
B0002C
740038
3C00B4
1E42D0
02FE40
ENDCHAR
STARTCHAR Iota
ENCODING 921
SWIDTH 263 0
DWIDTH 5 0
BBX 3 13 1 0
BITMAP
74
74
74
74
74
74
74
74
74
74
74
74
74
ENDCHAR
STARTCHAR Kappa
ENCODING 922
SWIDTH 579 0
DWIDTH 12 0
BBX 11 13 1 0
BITMAP
7401D0
740780
741E00
743C00
74B400
76F000
7FB800
7E2D00
780E00
740740
7402C0
7401E0
7400B4
ENDCHAR
STARTCHAR Lambda
ENCODING 923
SWIDTH 515 0
DWIDTH 10 0
BBX 10 13 0 0
BITMAP
00F400
01F800
02AC00
039D00
074E00
0B0B00
0E0740
1D0380
2C02C0
3802C0
7401D0
B000E0
F000B0
ENDCHAR
STARTCHAR Mu
ENCODING 924
SWIDTH 727 0
DWIDTH 15 0
BBX 12 13 1 0
BITMAP
7C001E
7D002E
7A007A
7700AA
7740DA
7681CA
75C28A
74E34A
74770A
743A0A
742D0A
74180A
74000A
ENDCHAR
STARTCHAR Nu
ENCODING 925
SWIDTH 647 0
DWIDTH 13 0
BBX 10 13 1 0
BITMAP
780070
7D0070
7B0070
778070
76C070
74E070
747470
742C70
741D70
740B70
7403B0
7401F0
7400F0
ENDCHAR
STARTCHAR Xi
ENCODING 926
SWIDTH 533 0
DWIDTH 11 0
BBX 9 13 1 0
BITMAP
BFFF40
000000
000000
000000
000000
000000
2FFD00
000000
000000
000000
000000
000000
FFFF80
ENDCHAR
STARTCHAR Omicron
ENCODING 927
SWIDTH 664 0
DWIDTH 13 0
BBX 12 13 1 0
BITMAP
02FE40
1E42D0
3800B4
740038
B0002C
E0002D
E0002D
E0002D
B0002C
740038
3C00B4
1E42D0
02FE40
ENDCHAR
STARTCHAR Pi
ENCODING 928
SWIDTH 645 0
DWIDTH 13 0
BBX 10 13 1 0
BITMAP
7FFFF0
7400B0
7400B0
7400B0
7400B0
7400B0
7400B0
7400B0
7400B0
7400B0
7400B0
7400B0
7400B0
ENDCHAR
STARTCHAR Rho
ENCODING 929
SWIDTH 566 0
DWIDTH 11 0
BBX 10 13 1 0
BITMAP
7FF900
740780
7402D0
7401D0
7401D0
7402C0
740780
7FF900
740000
740000
740000
740000
740000
ENDCHAR
STARTCHAR Sigma
ENCODING 931
SWIDTH 538 0
DWIDTH 11 0
BBX 9 13 1 0
BITMAP
FFFF40
B40000
2D0000
0F0000
078000
01D000
00B000
01D000
078000
0E0000
3C0000
B40000
FFFFC0
ENDCHAR
STARTCHAR Tau
ENCODING 932
SWIDTH 536 0
DWIDTH 11 0
BBX 10 13 0 0
BITMAP
7FFFF0
007400
007400
007400
007400
007400
007400
007400
007400
007400
007400
007400
007400
ENDCHAR
STARTCHAR Upsilon
ENCODING 933
SWIDTH 476 0
DWIDTH 10 0
BBX 10 13 0 0
BITMAP
B001D0
740380
2C0740
1D0A00
0A1D00
076800
02F400
01E000
00E000
00E000
00E000
00E000
00E000
ENDCHAR
STARTCHAR Phi
ENCODING 934
SWIDTH 719 0
DWIDTH 14 0
BBX 13 14 1 0
BITMAP
002C0000
002C0000
06FF9000
2E6C7C00
742C0E00
A02C0740
E02C0740
E02C0740
B02C0740
742C0E00
2E6C7800
06FF9000
002C0000
002C0000
ENDCHAR
STARTCHAR Chi
ENCODING 935
SWIDTH 513 0
DWIDTH 10 0
BBX 10 13 0 0
BITMAP
7801D0
2D02C0
0E0740
074E00
039D00
01F800
00F400
02F800
035D00
0B0B00
1D0780
3C02C0
7400E0
ENDCHAR
STARTCHAR Psi
ENCODING 936
SWIDTH 699 0
DWIDTH 14 0
BBX 12 13 1 0
BITMAP
B0280E
B0280E
B0280E
B0280E
B0280E
78282D
1E79B4
06BE90
002800
002800
002800
002800
002800
ENDCHAR
STARTCHAR uni03A9
ENCODING 937
SWIDTH 678 0
DWIDTH 14 0
BBX 12 13 1 0
BITMAP
02FE40
0E41E0
2C0074
74003C
B0002D
B0001D
B0001D
B0001D
74002C
380038
2D00B4
0B01D0
FF83FE
ENDCHAR
STARTCHAR Iotadieresis
ENCODING 938
SWIDTH 263 0
DWIDTH 5 0
BBX 7 16 -1 0
BITMAP
7434
7434
0000
0740
0740
0740
0740
0740
0740
0740
0740
0740
0740
0740
0740
0740
ENDCHAR
STARTCHAR Upsilondieresis
ENCODING 939
SWIDTH 476 0
DWIDTH 10 0
BBX 10 16 0 0
BITMAP
0D0E00
0D0E00
000000
B001D0
740380
2C0740
1D0A00
0A1D00
076800
02F400
01E000
00E000
00E000
00E000
00E000
00E000
ENDCHAR
STARTCHAR alphatonos
ENCODING 940
SWIDTH 560 0
DWIDTH 11 0
BBX 10 15 1 0
BITMAP
007400
007000
00A000
009000
000000
0BE1C0
2D1AC0
B40B80
F00780
E00740
E00740
E00700
B00B00
782B40
1BD2E0
ENDCHAR
STARTCHAR epsilontonos
ENCODING 941
SWIDTH 448 0
DWIDTH 9 0
BBX 8 15 1 0
BITMAP
00E0
01D0
01C0
0280
0000
1BE4
7818
B000
7800
2FD0
B400
E000
E000
B419
1BF8
ENDCHAR
STARTCHAR etatonos
ENCODING 942
SWIDTH 541 0
DWIDTH 11 0
BBX 9 18 1 -3
BITMAP
003400
007400
00B000
009000
000000
71BD00
760B00
780740
740740
740740
740740
740740
740740
740740
740740
000740
000740
000740
ENDCHAR
STARTCHAR iotatonos
ENCODING 943
SWIDTH 262 0
DWIDTH 5 0
BBX 4 15 1 0
BITMAP
1D
2C
38
30
00
74
74
74
74
74
74
74
74
74
2E
ENDCHAR
STARTCHAR upsilondieresistonos
ENCODING 944
SWIDTH 510 0
DWIDTH 10 0
BBX 8 15 1 0
BITMAP
00C0
35D8
3658
0200
0000
B01D
B00E
B00B
B00B
B00B
B00B
B00B
B00E
382C
1BE4
ENDCHAR
STARTCHAR alpha
ENCODING 945
SWIDTH 560 0
DWIDTH 11 0
BBX 10 10 1 0
BITMAP
0BE1C0
2D1AC0
B40B80
F00780
E00740
E00740
E00700
B00B00
782B40
1BD2E0
ENDCHAR
STARTCHAR beta
ENCODING 946
SWIDTH 565 0
DWIDTH 11 0
BBX 10 17 1 -3
BITMAP
07F800
2D1E00
380B00
740740
740B00
741D00
70F800
705B40
7002C0
7001D0
7001D0
7402D0
790780
76FD00
740000
740000
740000
ENDCHAR
STARTCHAR gamma
ENCODING 947
SWIDTH 484 0
DWIDTH 10 0
BBX 10 13 0 -3
BITMAP
B001D0
3802C0
1D0380
0E0340
070B00
034E00
029C00
01F800
01F000
00D000
00E000
00E000
00E000
ENDCHAR
STARTCHAR delta
ENCODING 948
SWIDTH 531 0
DWIDTH 11 0
BBX 9 14 1 0
BITMAP
0BFA40
2C0600
280000
1E0000
078000
02F400
1E6D00
780B00
B00780
E00380
E00380
B00740
391E00
0BF800
ENDCHAR
STARTCHAR epsilon
ENCODING 949
SWIDTH 448 0
DWIDTH 9 0
BBX 8 10 1 0
BITMAP
1BE4
7818
B000
7800
2FD0
B400
E000
E000
B419
1BF8
ENDCHAR
STARTCHAR zeta
ENCODING 950
SWIDTH 424 0
DWIDTH 8 0
BBX 8 17 1 -3
BITMAP
7FFD
0074
01D0
0780
0E00
2C00
7800
B000
E000
E000
E000
B000
7D00
0BE4
006D
001C
0028
ENDCHAR
STARTCHAR eta
ENCODING 951
SWIDTH 541 0
DWIDTH 11 0
BBX 9 13 1 -3
BITMAP
71BD00
760B00
780740
740740
740740
740740
740740
740740
740740
740740
000740
000740
000740
ENDCHAR
STARTCHAR theta
ENCODING 952
SWIDTH 522 0
DWIDTH 10 0
BBX 9 14 1 0
BITMAP
07E000
2D2C00
340E00
700B00
B00700
A00740
BFFF40
A00740
B00740
B00B00
700B00
340E00
2D2C00
0BE000
ENDCHAR
STARTCHAR iota
ENCODING 953
SWIDTH 262 0
DWIDTH 5 0
BBX 4 10 1 0
BITMAP
74
74
74
74
74
74
74
74
74
2E
ENDCHAR
STARTCHAR kappa
ENCODING 954
SWIDTH 494 0
DWIDTH 10 0
BBX 9 10 1 0
BITMAP
700640
741F00
747800
75D000
77D000
7EE000
7C7400
742C00
740E00
740780
ENDCHAR
STARTCHAR lambda
ENCODING 955
SWIDTH 494 0
DWIDTH 10 0
BBX 10 14 0 0
BITMAP
7E0000
02C000
00D000
00B000
00B400
00F800
01EC00
039D00
074E00
0B0B00
1D0740
2C0380
3802D0
7401E0
ENDCHAR
STARTCHAR uni03BC
ENCODING 956
SWIDTH 562 0
DWIDTH 11 0
BBX 10 13 1 -3
BITMAP
740740
740740
740740
740740
740740
740740
740740
740B40
7C2B40
7BE2E0
740000
740000
740000
ENDCHAR
STARTCHAR nu
ENCODING 957
SWIDTH 474 0
DWIDTH 9 0
BBX 9 10 0 0
BITMAP
B002C0
380280
2C0380
0D0740
0A0B00
070E00
035D00
02A800
02F400
01E000
ENDCHAR
STARTCHAR xi
ENCODING 958
SWIDTH 431 0
DWIDTH 9 0
BBX 9 17 0 -3
BITMAP
7FFF40
078000
0E0000
0E0000
0F0000
078000
01FD00
0B4000
2D0000
380000
380000
2C0000
1F4000
02FE00
000B40
000740
000A00
ENDCHAR
STARTCHAR omicron
ENCODING 959
SWIDTH 535 0
DWIDTH 11 0
BBX 9 10 1 0
BITMAP
0BE400
391E00
B40740
E00380
E00380
E00380
E00380
B00740
391E00
0BF400
ENDCHAR
STARTCHAR pi
ENCODING 960
SWIDTH 586 0
DWIDTH 12 0
BBX 12 10 0 0
BITMAP
BFFFFD
0741D0
0741D0
0701D0
0701C0
0701C0
0B01C0
0B01C0
0A01D0
0E00BC
ENDCHAR
STARTCHAR rho
ENCODING 961
SWIDTH 549 0
DWIDTH 11 0
BBX 9 13 1 -3
BITMAP
06F900
1D0B00
380380
7402C0
7002C0
7002C0
7003C0
740740
791F00
76F800
700000
740000
740000
ENDCHAR
STARTCHAR uni03C2
ENCODING 962
SWIDTH 432 0
DWIDTH 9 0
BBX 7 13 1 -3
BITMAP
0BF4
3D14
B400
E000
E000
E000
E000
B400
2D00
07E0
0074
0034
00A0
ENDCHAR
STARTCHAR sigma
ENCODING 963
SWIDTH 546 0
DWIDTH 11 0
BBX 10 10 1 0
BITMAP
0BFFE0
3D1D00
B00B00
E00740
E00340
E00340
E00740
B40B00
3D1D00
0BE400
ENDCHAR
STARTCHAR tau
ENCODING 964
SWIDTH 460 0
DWIDTH 9 0
BBX 9 10 0 0
BITMAP
7FFF80
01D000
01D000
01D000
01D000
01D000
01D000
01D000
00D000
00BD00
ENDCHAR
STARTCHAR upsilon
ENCODING 965
SWIDTH 510 0
DWIDTH 10 0
BBX 8 10 1 0
BITMAP
B01D
B00E
B00B
B00B
B00B
B00B
B00B
B00E
382C
1BE4
ENDCHAR
STARTCHAR phi
ENCODING 966
SWIDTH 680 0
DWIDTH 14 0
BBX 12 16 1 -3
BITMAP
003800
003800
003800
06FF80
2D39B4
74382C
F0381D
E0380E
E0380E
F0381D
74382C
2D39B4
06FF80
003800
003800
003800
ENDCHAR
STARTCHAR chi
ENCODING 967
SWIDTH 481 0
DWIDTH 10 0
BBX 10 13 0 -3
BITMAP
7403C0
380740
1D0E00
0B1D00
03B800
02F400
00F000
02F400
076C00
0A0E00
1D0740
380280
B001D0
ENDCHAR
STARTCHAR psi
ENCODING 968
SWIDTH 689 0
DWIDTH 14 0
BBX 12 16 1 -3
BITMAP
003800
003800
003800
B0382C
B0381D
B0381D
B0380E
B0380E
B0380E
B0381D
74382C
2D39B4
06FF90
003800
003800
003800
ENDCHAR
STARTCHAR omega
ENCODING 969
SWIDTH 701 0
DWIDTH 14 0
BBX 12 10 1 0
BITMAP
180028
3C002C
74001E
B0000E
E0380B
E0280B
E0280B
B03C0E
74692D
1F82F4
ENDCHAR
STARTCHAR iotadieresis
ENCODING 970
SWIDTH 262 0
DWIDTH 5 0
BBX 7 14 -1 0
BITMAP
7474
7474
0000
0000
0740
0740
0740
0740
0740
0740
0740
0740
0740
02E0
ENDCHAR
STARTCHAR upsilondieresis
ENCODING 971
SWIDTH 510 0
DWIDTH 10 0
BBX 8 14 1 0
BITMAP
2838
2838
0000
0000
B01D
B00E
B00B
B00B
B00B
B00B
B00B
B00E
382C
1BE4
ENDCHAR
STARTCHAR omicrontonos
ENCODING 972
SWIDTH 535 0
DWIDTH 11 0
BBX 9 15 1 0
BITMAP
00B000
00A000
00D000
01C000
000000
0BE400
391E00
B40740
E00380
E00380
E00380
E00380
B00740
391E00
0BF400
ENDCHAR
STARTCHAR upsilontonos
ENCODING 973
SWIDTH 510 0
DWIDTH 10 0
BBX 8 15 1 0
BITMAP
00E0
01D0
01C0
0280
0000
B01D
B00E
B00B
B00B
B00B
B00B
B00B
B00E
382C
1BE4
ENDCHAR
STARTCHAR omegatonos
ENCODING 974
SWIDTH 701 0
DWIDTH 14 0
BBX 12 15 1 0
BITMAP
000E00
000D00
001C00
001800
000000
180028
3C002C
74001E
B0000E
E0380B
E0280B
E0280B
B03C0E
74692D
1F82F4
ENDCHAR
STARTCHAR uni03D0
ENCODING 976
SWIDTH 560 0
DWIDTH 11 0
BBX 10 14 1 0
BITMAP
07F400
2D1E00
380B00
740B00
700F00
707D00
7BF400
7E5F40
7003C0
7001D0
7401D0
3802C0
1E0740
06F900
ENDCHAR
STARTCHAR uni03D1
ENCODING 977
SWIDTH 522 0
DWIDTH 10 0
BBX 9 14 1 0
BITMAP
0BE000
382C00
B00E00
B00B00
B00B00
380740
1BAB40
015B40
600740
740B00
740B00
740E00
3C2C00
0BE400
ENDCHAR
STARTCHAR uni03D5
ENCODING 981
SWIDTH 680 0
DWIDTH 14 0
BBX 12 13 1 -3
BITMAP
1807E0
3C1D78
B4281D
F0380E
E0380E
E0380E
E0381D
74382C
2D39B4
06FF80
003800
003800
003800
ENDCHAR
STARTCHAR uni03D7
ENCODING 983
SWIDTH 494 0
DWIDTH 10 0
BBX 9 13 1 -3
BITMAP
700640
741F00
747400
75D000
77D000
7EE000
7C7400
742C00
740E00
740780
000780
001E00
007800
ENDCHAR
STARTCHAR uni03D9
ENCODING 985
SWIDTH 535 0
DWIDTH 11 0
BBX 9 13 1 -3
BITMAP
0BE400
391E00
B00740
E00380
E00380
E00380
E00380
B00740
391E00
0BF400
01D000
01D000
01D000
ENDCHAR
STARTCHAR uni03DB
ENCODING 987
SWIDTH 466 0
DWIDTH 9 0
BBX 8 13 1 -3
BITMAP
0BFE
2D00
B400
E000
E000
E000
F000
B400
2D00
07E4
002C
001C
0024
ENDCHAR
STARTCHAR uni03DD
ENCODING 989
SWIDTH 413 0
DWIDTH 8 0
BBX 7 13 1 -3
BITMAP
7FF8
7400
7400
7400
7400
7400
7FF4
7400
7400
7400
7400
7400
7400
ENDCHAR
STARTCHAR uni03E1
ENCODING 993
SWIDTH 498 0
DWIDTH 10 0
BBX 10 17 0 -3
BITMAP
190000
1F4000
02D000
00B400
003C00
001E00
01BF00
1BD740
7D0380
1007C0
007FD0
07E5D0
0A41D0
0000D0
0001D0
0001D0
0001D0
ENDCHAR
STARTCHAR uni0400
ENCODING 1024
SWIDTH 527 0
DWIDTH 11 0
BBX 9 17 1 0
BITMAP
0A0000
078000
009000
000000
7FFF40
740000
740000
740000
740000
740000
7FFD00
740000
740000
740000
740000
740000
7FFF80
ENDCHAR
STARTCHAR uni0401
ENCODING 1025
SWIDTH 527 0
DWIDTH 11 0
BBX 9 16 1 0
BITMAP
1D0E00
1D0E00
000000
7FFF40
740000
740000
740000
740000
740000
7FFD00
740000
740000
740000
740000
740000
7FFF80
ENDCHAR
STARTCHAR uni0402
ENCODING 1026
SWIDTH 687 0
DWIDTH 14 0
BBX 13 13 0 0
BITMAP
7FFFF400
00E00000
00E00000
00E00000
00E00000
00FFE400
00F01F00
00E00740
00E00380
00E00380
00E00380
00E00B00
00E0F900
ENDCHAR
STARTCHAR uni0403
ENCODING 1027
SWIDTH 498 0
DWIDTH 10 0
BBX 9 17 1 0
BITMAP
001800
007800
009000
000000
7FFF40
740000
740000
740000
740000
740000
740000
740000
740000
740000
740000
740000
740000
ENDCHAR
STARTCHAR uni0404
ENCODING 1028
SWIDTH 571 0
DWIDTH 11 0
BBX 10 13 1 0
BITMAP
02FE40
1E41D0
3C0000
740000
B00000
E00000
FFFD00
E00000
B00000
700000
380040
1E41E0
02FE40
ENDCHAR
STARTCHAR uni0405
ENCODING 1029
SWIDTH 534 0
DWIDTH 11 0
BBX 9 13 1 0
BITMAP
0AF900
2D0B40
740000
740000
780000
2F9000
06F900
002F40
000780
0003C0
400380
F40B40
1BF800
ENDCHAR
STARTCHAR uni0406
ENCODING 1030
SWIDTH 263 0
DWIDTH 5 0
BBX 3 13 1 0
BITMAP
74
74
74
74
74
74
74
74
74
74
74
74
74
ENDCHAR
STARTCHAR uni0407
ENCODING 1031
SWIDTH 263 0
DWIDTH 5 0
BBX 7 16 -1 0
BITMAP
7434
7434
0000
0740
0740
0740
0740
0740
0740
0740
0740
0740
0740
0740
0740
0740
ENDCHAR
STARTCHAR uni0408
ENCODING 1032
SWIDTH 480 0
DWIDTH 10 0
BBX 7 13 1 0
BITMAP
002C
002C
002C
002C
002C
002C
002C
002C
002C
0038
4038
E0B4
6F90
ENDCHAR
STARTCHAR uni0409
ENCODING 1033
SWIDTH 903 0
DWIDTH 18 0
BBX 17 13 0 0
BITMAP
00BFF80000
00E0380000
00D0380000
01D0380000
01C0380000
02C03FF900
0280381B40
03803802C0
03403802C0
07003802C0
0A003802C0
1D00381B40
B8003FF900
ENDCHAR
STARTCHAR uni040A
ENCODING 1034
SWIDTH 929 0
DWIDTH 19 0
BBX 17 13 1 0
BITMAP
7400B00000
7400B00000
7400B00000
7400B00000
7400B00000
7400B00000
7FFFFFF800
7400B01B00
7400B00380
7400B00380
7400B00780
7400B01F00
7400BFE800
ENDCHAR
STARTCHAR uni040B
ENCODING 1035
SWIDTH 696 0
DWIDTH 14 0
BBX 13 13 0 0
BITMAP
7FFFF400
00E00000
00E00000
00E00000
00E00000
00FFE800
00F01E00
00E00740
00E00380
00E00380
00E00380
00E00380
00E00380
ENDCHAR
STARTCHAR uni040C
ENCODING 1036
SWIDTH 580 0
DWIDTH 12 0
BBX 11 17 1 0
BITMAP
000600
002D00
006000
000000
7400B0
740280
740700
740D00
741C00
743400
7FF400
743800
741D00
740B40
740380
7401E0
7400B4
ENDCHAR
STARTCHAR uni040D
ENCODING 1037
SWIDTH 656 0
DWIDTH 13 0
BBX 11 17 1 0
BITMAP
028000
01E000
002400
000000
7400B4
7401F4
7403B4
740B74
740E74
742C74
747474
74E074
75D074
778074
7B0074
7D0074
7C0074
ENDCHAR
STARTCHAR uni040E
ENCODING 1038
SWIDTH 514 0
DWIDTH 10 0
BBX 10 17 0 0
BITMAP
0A0700
074A00
02F800
000000
B000B0
7800E0
2C01D0
1D02C0
0A0740
074B00
028E00
01DD00
00B800
00B400
00B000
01D000
1F4000
ENDCHAR
STARTCHAR uni040F
ENCODING 1039
SWIDTH 645 0
DWIDTH 13 0
BBX 10 16 1 -3
BITMAP
7400B0
7400B0
7400B0
7400B0
7400B0
7400B0
7400B0
7400B0
7400B0
7400B0
7400B0
7400B0
7FFFF0
007400
007400
007400
ENDCHAR
STARTCHAR uni0410
ENCODING 1040
SWIDTH 544 0
DWIDTH 11 0
BBX 11 13 0 0
BITMAP
00B800
00EC00
01DD00
028E00
034B00
074740
0B0380
0E02C0
1FFFD0
2C00E0
3800B0
740074
B00038
ENDCHAR
STARTCHAR uni0411
ENCODING 1041
SWIDTH 580 0
DWIDTH 12 0
BBX 10 13 1 0
BITMAP
7FFFC0
740000
740000
740000
740000
795000
7EAF40
7402D0
7400E0
7400E0
7400E0
7406C0
7FFE00
ENDCHAR
STARTCHAR uni0412
ENCODING 1042
SWIDTH 588 0
DWIDTH 12 0
BBX 10 13 1 0
BITMAP
7FF900
740780
7402C0
7401C0
7402C0
740B40
7FFE40
7406D0
7400F0
7400B0
7400E0
7406D0
7FFA00
ENDCHAR
STARTCHAR uni0413
ENCODING 1043
SWIDTH 498 0
DWIDTH 10 0
BBX 9 13 1 0
BITMAP
7FFF40
740000
740000
740000
740000
740000
740000
740000
740000
740000
740000
740000
740000
ENDCHAR
STARTCHAR uni0414
ENCODING 1044
SWIDTH 638 0
DWIDTH 13 0
BBX 13 16 0 -3
BITMAP
00FFF800
00D03800
01D03800
01C03800
02C03800
02803800
03803800
03403800
07403800
0B003800
0E003800
1D003800
7FFFFF40
70000740
70000700
70000700
ENDCHAR
STARTCHAR uni0415
ENCODING 1045
SWIDTH 527 0
DWIDTH 11 0
BBX 9 13 1 0
BITMAP
7FFF40
740000
740000
740000
740000
740000
7FFD00
740000
740000
740000
740000
740000
7FFF80
ENDCHAR
STARTCHAR uni0416
ENCODING 1046
SWIDTH 805 0
DWIDTH 16 0
BBX 16 13 0 0
BITMAP
B402C01E
0D02C074
0702C0A0
0342C1C0
0282C280
01D2C740
00FFFF00
02C2C380
0382C1D0
0B02C0E0
1D02C074
3802C02C
B402C00E
ENDCHAR
STARTCHAR uni0417
ENCODING 1047
SWIDTH 554 0
DWIDTH 11 0
BBX 10 13 1 0
BITMAP
1BF800
741F00
000740
000380
000740
001E00
07FD00
000B80
0002C0
0001D0
4002C0
F40B40
2BF900
ENDCHAR
STARTCHAR uni0418
ENCODING 1048
SWIDTH 656 0
DWIDTH 13 0
BBX 11 13 1 0
BITMAP
7400B4
7401F4
7403B4
740B74
740E74
742C74
747474
74E074
75D074
778074
7B0074
7D0074
7C0074
ENDCHAR
STARTCHAR uni0419
ENCODING 1049
SWIDTH 656 0
DWIDTH 13 0
BBX 11 17 1 0
BITMAP
070380
038740
01BD00
000000
7400B4
7401F4
7403B4
740B74
740E74
742C74
747474
74E074
75D074
778074
7B0074
7D0074
7C0074
ENDCHAR
STARTCHAR uni041A
ENCODING 1050
SWIDTH 580 0
DWIDTH 12 0
BBX 11 13 1 0
BITMAP
7400B0
740280
740700
740D00
741C00
743400
7FF400
743800
741D00
740B40
740380
7401E0
7400B4
ENDCHAR
STARTCHAR uni041B
ENCODING 1051
SWIDTH 630 0
DWIDTH 13 0
BBX 11 13 0 0
BITMAP
00FFF8
00D038
01D038
01C038
02C038
028038
038038
034038
074038
0B0038
0A0038
1D0038
B80038
ENDCHAR
STARTCHAR uni041C
ENCODING 1052
SWIDTH 727 0
DWIDTH 15 0
BBX 12 13 1 0
BITMAP
7C001E
7D002E
7A007A
7700AA
7740DA
7681CA
75C28A
74E34A
74770A
743A0A
742D0A
74180A
74000A
ENDCHAR
STARTCHAR uni041D
ENCODING 1053
SWIDTH 652 0
DWIDTH 13 0
BBX 11 13 1 0
BITMAP
740074
740074
740074
740074
740074
740074
7FFFF4
740074
740074
740074
740074
740074
740074
ENDCHAR
STARTCHAR uni041E
ENCODING 1054
SWIDTH 664 0
DWIDTH 13 0
BBX 12 13 1 0
BITMAP
02FE40
1E42D0
3800B4
740038
B0002C
E0002D
E0002D
E0002D
B0002C
740038
3C00B4
1E42D0
02FE40
ENDCHAR
STARTCHAR uni041F
ENCODING 1055
SWIDTH 645 0
DWIDTH 13 0
BBX 10 13 1 0
BITMAP
7FFFF0
7400B0
7400B0
7400B0
7400B0
7400B0
7400B0
7400B0
7400B0
7400B0
7400B0
7400B0
7400B0
ENDCHAR
STARTCHAR uni0420
ENCODING 1056
SWIDTH 566 0
DWIDTH 11 0
BBX 10 13 1 0
BITMAP
7FF900
740780
7402D0
7401D0
7401D0
7402C0
740780
7FF900
740000
740000
740000
740000
740000
ENDCHAR
STARTCHAR uni0421
ENCODING 1057
SWIDTH 571 0
DWIDTH 11 0
BBX 10 13 1 0
BITMAP
01BE40
0E41D0
2C0000
740000
B00000
E00000
E00000
F00000
B00000
740000
3C0040
1E41E0
02FE40
ENDCHAR
STARTCHAR uni0422
ENCODING 1058
SWIDTH 536 0
DWIDTH 11 0
BBX 10 13 0 0
BITMAP
7FFFF0
007400
007400
007400
007400
007400
007400
007400
007400
007400
007400
007400
007400
ENDCHAR
STARTCHAR uni0423
ENCODING 1059
SWIDTH 514 0
DWIDTH 10 0
BBX 10 13 0 0
BITMAP
B000B0
7800E0
2C01D0
1D02C0
0A0740
074B00
028E00
01DD00
00B800
00B400
00B000
01D000
1F4000
ENDCHAR
STARTCHAR uni0424
ENCODING 1060
SWIDTH 732 0
DWIDTH 15 0
BBX 13 13 1 0
BITMAP
001C0000
001C0000
06FFE400
2D5C6D00
B01C0740
E01C0380
E01C0380
E01C0380
B41C0B40
2D5C6D00
06FFE400
001C0000
001C0000
ENDCHAR
STARTCHAR uni0425
ENCODING 1061
SWIDTH 513 0
DWIDTH 10 0
BBX 10 13 0 0
BITMAP
7801D0
2D02C0
0E0740
074E00
039D00
01F800
00F400
02F800
035D00
0B0B00
1D0780
3C02C0
7400E0
ENDCHAR
STARTCHAR uni0426
ENCODING 1062
SWIDTH 642 0
DWIDTH 13 0
BBX 12 16 1 -3
BITMAP
7400B0
7400B0
7400B0
7400B0
7400B0
7400B0
7400B0
7400B0
7400B0
7400B0
7400B0
7400B0
7FFFFD
00001D
00001D
00001C
ENDCHAR
STARTCHAR uni0427
ENCODING 1063
SWIDTH 598 0
DWIDTH 12 0
BBX 9 13 1 0
BITMAP
B002C0
B002C0
B002C0
B002C0
7402C0
3D02C0
0BFFC0
0002C0
0002C0
0002C0
0002C0
0002C0
0002C0
ENDCHAR
STARTCHAR uni0428
ENCODING 1064
SWIDTH 865 0
DWIDTH 17 0
BBX 15 13 1 0
BITMAP
74034038
74034038
74034038
74034038
74034038
74034038
74034038
74034038
74034038
74034038
74034038
74034038
7FFFFFF8
ENDCHAR
STARTCHAR uni0429
ENCODING 1065
SWIDTH 874 0
DWIDTH 17 0
BBX 16 16 1 -3
BITMAP
74034038
74034038
74034038
74034038
74034038
74034038
74034038
74034038
74034038
74034038
74034038
74034038
7FFFFFFF
0000000B
0000000B
0000000A
ENDCHAR
STARTCHAR uni042A
ENCODING 1066
SWIDTH 720 0
DWIDTH 14 0
BBX 14 13 0 0
BITMAP
7FF40000
00740000
00740000
00740000
00740000
007FF900
00740780
007401D0
007401D0
007401D0
007401D0
00740780
007FF900
ENDCHAR
STARTCHAR uni042B
ENCODING 1067
SWIDTH 798 0
DWIDTH 16 0
BBX 13 13 1 0
BITMAP
740002C0
740002C0
740002C0
740002C0
740002C0
7FF902C0
740B82C0
7402C2C0
7401D2C0
7401D2C0
7402C2C0
740B42C0
7FF902C0
ENDCHAR
STARTCHAR uni042C
ENCODING 1068
SWIDTH 580 0
DWIDTH 12 0
BBX 10 13 1 0
BITMAP
740000
740000
740000
740000
740000
7FF900
7407C0
7401D0
7400E0
7400E0
7401D0
740780
7FFA00
ENDCHAR
STARTCHAR uni042D
ENCODING 1069
SWIDTH 571 0
DWIDTH 11 0
BBX 10 13 1 0
BITMAP
6FE400
A41E00
000740
0003C0
0002C0
0001D0
0BFFD0
0001D0
0001C0
0002C0
400740
E41E00
6FE400
ENDCHAR
STARTCHAR uni042E
ENCODING 1070
SWIDTH 908 0
DWIDTH 18 0
BBX 16 13 1 0
BITMAP
74007F90
7402D0B4
740B002C
740E000E
741D000B
742C000B
7FFC000B
742C000B
741D000B
740E000E
740B002C
7402D0B4
7400BF90
ENDCHAR
STARTCHAR uni042F
ENCODING 1071
SWIDTH 582 0
DWIDTH 12 0
BBX 10 13 0 0
BITMAP
06FFF0
1E40B0
2C00B0
2C00B0
2C00B0
1E40B0
02FFF0
01D0B0
03C0B0
0740B0
0E00B0
2D00B0
7800B0
ENDCHAR
STARTCHAR uni0430
ENCODING 1072
SWIDTH 504 0
DWIDTH 10 0
BBX 8 10 1 0
BITMAP
1BE4
642C
001D
000E
06BE
3E4E
B00E
E00E
B46E
2F8A
ENDCHAR
STARTCHAR uni0431
ENCODING 1073
SWIDTH 544 0
DWIDTH 11 0
BBX 9 15 1 0
BITMAP
000100
01BF40
0A5000
280000
740000
B00000
A6F900
F41B00
E00780
E003C0
A002C0
B00380
740740
2D1E00
07F800
ENDCHAR
STARTCHAR uni0432
ENCODING 1074
SWIDTH 508 0
DWIDTH 10 0
BBX 9 10 1 0
BITMAP
7FF800
741E00
740B00
741E00
7FF800
741F00
740740
740740
741F00
7FF800
ENDCHAR
STARTCHAR uni0433
ENCODING 1075
SWIDTH 411 0
DWIDTH 8 0
BBX 7 10 1 0
BITMAP
7FF8
7400
7400
7400
7400
7400
7400
7400
7400
7400
ENDCHAR
STARTCHAR uni0434
ENCODING 1076
SWIDTH 532 0
DWIDTH 11 0
BBX 11 13 0 -3
BITMAP
07FF80
070380
0B0380
0A0380
0A0380
0E0380
0D0380
1D0380
2C0380
BFFFF4
B00074
B00070
700070
ENDCHAR
STARTCHAR uni0435
ENCODING 1077
SWIDTH 496 0
DWIDTH 10 0
BBX 8 10 1 0
BITMAP
0BE4
291D
B00B
E007
FFFF
E000
E000
B400
2D05
0BF9
ENDCHAR
STARTCHAR uni0436
ENCODING 1078
SWIDTH 681 0
DWIDTH 14 0
BBX 13 10 0 0
BITMAP
780902C0
0D0E0A00
070E1C00
034E2800
02FFF400
074E2C00
0A0E0D00
1D0E0B00
380E0380
740E02C0
ENDCHAR
STARTCHAR uni0437
ENCODING 1079
SWIDTH 456 0
DWIDTH 9 0
BBX 8 10 1 0
BITMAP
6FE0
9078
002C
0074
0FE0
0078
001D
001D
9078
6FE0
ENDCHAR
STARTCHAR uni0438
ENCODING 1080
SWIDTH 565 0
DWIDTH 11 0
BBX 9 10 1 0
BITMAP
740780
740B80
741F80
743780
74A380
75C380
774380
7A0380
7C0380
740380
ENDCHAR
STARTCHAR uni0439
ENCODING 1081
SWIDTH 565 0
DWIDTH 11 0
BBX 9 14 1 0
BITMAP
1C0A00
0E1D00
06F400
000000
740780
740B80
741F80
743780
74A380
75C380
774380
7A0380
7C0380
740380
ENDCHAR
STARTCHAR uni043A
ENCODING 1082
SWIDTH 498 0
DWIDTH 10 0
BBX 9 10 1 0
BITMAP
640B00
742800
743400
74A000
7FE000
74B000
743800
741D00
740E00
740740
ENDCHAR
STARTCHAR uni043B
ENCODING 1083
SWIDTH 531 0
DWIDTH 11 0
BBX 9 10 0 0
BITMAP
03FFC0
0742C0
0702C0
0702C0
0702C0
0A02C0
0A02C0
0D02C0
1C02C0
B40280
ENDCHAR
STARTCHAR uni043C
ENCODING 1084
SWIDTH 633 0
DWIDTH 13 0
BBX 10 10 1 0
BITMAP
7800F0
7C01F0
7A03B0
770770
734A70
728D70
71DC70
70B870
707070
700070
ENDCHAR
STARTCHAR uni043D
ENCODING 1085
SWIDTH 562 0
DWIDTH 11 0
BBX 9 10 1 0
BITMAP
740380
740380
740380
740380
7FFF80
740380
740380
740380
740380
740380
ENDCHAR
STARTCHAR uni043E
ENCODING 1086
SWIDTH 542 0
DWIDTH 11 0
BBX 9 10 1 0
BITMAP
0BF400
2D1E00
B40740
E00380
E003C0
E003C0
E00380
B40740
2D1E00
0BF400
ENDCHAR
STARTCHAR uni043F
ENCODING 1087
SWIDTH 553 0
DWIDTH 11 0
BBX 9 10 1 0
BITMAP
7FFF40
740740
740740
740740
740740
740740
740740
740740
740740
740740
ENDCHAR
STARTCHAR uni0440
ENCODING 1088
SWIDTH 555 0
DWIDTH 11 0
BBX 9 14 1 -4
BITMAP
71F900
7D0B40
740380
7402C0
7402C0
7402C0
7402C0
740780
7D1F00
76F800
740000
740000
740000
740000
ENDCHAR
STARTCHAR uni0441
ENCODING 1089
SWIDTH 456 0
DWIDTH 9 0
BBX 8 10 1 0
BITMAP
07F8
2D18
7400
F000
E000
E000
F000
B400
3D09
0BF8
ENDCHAR
STARTCHAR uni0442
ENCODING 1090
SWIDTH 460 0
DWIDTH 9 0
BBX 9 10 0 0
BITMAP
7FFF80
01D000
01D000
01D000
01D000
01D000
01D000
01D000
01D000
01D000
ENDCHAR
STARTCHAR uni0443
ENCODING 1091
SWIDTH 467 0
DWIDTH 9 0
BBX 9 14 0 -4
BITMAP
B002C0
740380
2C0740
1D0B00
0E0E00
0B1D00
076C00
02B800
01F000
00E000
00D000
01C000
074000
7D0000
ENDCHAR
STARTCHAR uni0444
ENCODING 1092
SWIDTH 734 0
DWIDTH 15 0
BBX 13 18 1 -4
BITMAP
001C0000
001C0000
001C0000
001C0000
0BAEF800
382D1F00
B01C0740
E01C0380
E01C0380
E01C0380
E01C0380
B01C0740
782D1E00
1BAEF800
001C0000
001C0000
001C0000
001C0000
ENDCHAR
STARTCHAR uni0445
ENCODING 1093
SWIDTH 446 0
DWIDTH 9 0
BBX 9 10 0 0
BITMAP
780B00
2D0E00
0E2C00
07B400
02E000
03E000
0B7400
1D2C00
280E00
740740
ENDCHAR
STARTCHAR uni0446
ENCODING 1094
SWIDTH 554 0
DWIDTH 11 0
BBX 10 13 1 -3
BITMAP
740740
740740
740740
740740
740740
740740
740740
740740
740740
7FFFE0
0000E0
0000E0
0000E0
ENDCHAR
STARTCHAR uni0447
ENCODING 1095
SWIDTH 512 0
DWIDTH 10 0
BBX 8 10 1 0
BITMAP
A00E
A00E
A00E
B00E
780E
1BFE
000E
000E
000E
000E
ENDCHAR
STARTCHAR uni0448
ENCODING 1096
SWIDTH 749 0
DWIDTH 15 0
BBX 13 10 1 0
BITMAP
741D0740
741D0740
741D0740
741D0740
741D0740
741D0740
741D0740
741D0740
741D0740
7FFFFF40
ENDCHAR
STARTCHAR uni0449
ENCODING 1097
SWIDTH 757 0
DWIDTH 15 0
BBX 14 13 1 -3
BITMAP
741D0740
741D0740
741D0740
741D0740
741D0740
741D0740
741D0740
741D0740
741D0740
7FFFFFE0
000000A0
000000A0
000000A0
ENDCHAR
STARTCHAR uni044A
ENCODING 1098
SWIDTH 596 0
DWIDTH 12 0
BBX 11 10 0 0
BITMAP
7FE000
00E000
00E000
00E000
00FFE0
00E078
00E02C
00E02C
00E078
00FFE0
ENDCHAR
STARTCHAR uni044B
ENCODING 1099
SWIDTH 674 0
DWIDTH 13 0
BBX 11 10 1 0
BITMAP
74002C
74002C
74002C
74002C
7FE42C
742C2C
741D2C
741D2C
742C2C
7FE42C
ENDCHAR
STARTCHAR uni044C
ENCODING 1100
SWIDTH 491 0
DWIDTH 10 0
BBX 8 10 1 0
BITMAP
7400
7400
7400
7400
7FE4
741E
740B
740B
741E
7FF4
ENDCHAR
STARTCHAR uni044D
ENCODING 1101
SWIDTH 456 0
DWIDTH 9 0
BBX 7 10 1 0
BITMAP
BF80
90B0
0038
002C
2FFC
001C
002C
0038
91B0
BF80
ENDCHAR
STARTCHAR uni044E
ENCODING 1102
SWIDTH 738 0
DWIDTH 15 0
BBX 13 10 1 0
BITMAP
7406F800
741D1E00
74340740
74700380
74B00380
7FF00380
74B00380
74740740
742D1E00
7407F800
ENDCHAR
STARTCHAR uni044F
ENCODING 1103
SWIDTH 514 0
DWIDTH 10 0
BBX 8 10 1 0
BITMAP
1BFE
780E
B00E
B00E
790E
1BFE
0E0E
2D0E
780E
E00E
ENDCHAR
STARTCHAR uni0450
ENCODING 1104
SWIDTH 496 0
DWIDTH 10 0
BBX 8 15 1 0
BITMAP
0800
1F00
0380
0080
0000
0BE4
291D
B00B
E007
FFFF
E000
E000
B400
2D05
0BF9
ENDCHAR
STARTCHAR uni0451
ENCODING 1105
SWIDTH 496 0
DWIDTH 10 0
BBX 8 14 1 0
BITMAP
1D2C
1D2C
0000
0000
0BE4
291D
B00B
E007
FFFF
E000
E000
B400
2D05
0BF9
ENDCHAR
STARTCHAR uni0452
ENCODING 1106
SWIDTH 548 0
DWIDTH 11 0
BBX 10 18 0 -4
BITMAP
1D0000
1D0000
BFFC00
1D0000
1D0000
1D7E40
1E42C0
1D00E0
1D00E0
1D00B0
1D00B0
1D00B0
1D00B0
1D00E0
0000E0
0001D0
000780
003E00
ENDCHAR
STARTCHAR uni0453
ENCODING 1107
SWIDTH 411 0
DWIDTH 8 0
BBX 7 15 1 0
BITMAP
0024
00B4
02D0
0240
0000
7FF8
7400
7400
7400
7400
7400
7400
7400
7400
7400
ENDCHAR
STARTCHAR uni0454
ENCODING 1108
SWIDTH 456 0
DWIDTH 9 0
BBX 8 10 1 0
BITMAP
0BF8
3918
B000
E000
FFF0
E000
E000
B000
3D09
0BF8
ENDCHAR
STARTCHAR uni0455
ENCODING 1109
SWIDTH 419 0
DWIDTH 8 0
BBX 7 10 1 0
BITMAP
2FE0
B460
E000
B400
2E40
06F0
0078
0038
D074
6F90
ENDCHAR
STARTCHAR uni0456
ENCODING 1110
SWIDTH 246 0
DWIDTH 5 0
BBX 3 14 1 0
BITMAP
74
74
00
00
74
74
74
74
74
74
74
74
74
74
ENDCHAR
STARTCHAR uni0457
ENCODING 1111
SWIDTH 246 0
DWIDTH 5 0
BBX 7 14 -1 0
BITMAP
7474
7474
0000
0000
0740
0740
0740
0740
0740
0740
0740
0740
0740
0740
ENDCHAR
STARTCHAR uni0458
ENCODING 1112
SWIDTH 247 0
DWIDTH 5 0
BBX 5 18 -1 -4
BITMAP
0740
0740
0000
0000
0740
0740
0740
0740
0740
0740
0740
0740
0740
0740
0740
0740
0B00
BD00
ENDCHAR
STARTCHAR uni0459
ENCODING 1113
SWIDTH 735 0
DWIDTH 15 0
BBX 14 10 0 0
BITMAP
03FF8000
07438000
07438000
07038000
0703FE40
0B0381D0
0A0380A0
0A0380A0
1D0381D0
B403FE40
ENDCHAR
STARTCHAR uni045A
ENCODING 1114
SWIDTH 758 0
DWIDTH 15 0
BBX 14 10 1 0
BITMAP
74074000
74074000
74074000
74074000
7FFFFE00
740747C0
740741D0
740741D0
740747C0
7407FE00
ENDCHAR
STARTCHAR uni045B
ENCODING 1115
SWIDTH 544 0
DWIDTH 11 0
BBX 10 14 0 0
BITMAP
1D0000
1D0000
BFFC00
1D0000
1D0000
1D6A00
1E97C0
1E01D0
1D01D0
1D01D0
1D01D0
1D01D0
1D01D0
1D01D0
ENDCHAR
STARTCHAR uni045C
ENCODING 1116
SWIDTH 498 0
DWIDTH 10 0
BBX 9 15 1 0
BITMAP
001800
003C00
00E000
018000
000000
640B00
742800
743400
74A000
7FE000
74B000
743800
741D00
740E00
740740
ENDCHAR
STARTCHAR uni045D
ENCODING 1117
SWIDTH 565 0
DWIDTH 11 0
BBX 9 15 1 0
BITMAP
090000
0B4000
02D000
009000
000000
740780
740B80
741F80
743780
74A380
75C380
774380
7A0380
7C0380
740380
ENDCHAR
STARTCHAR uni045E
ENCODING 1118
SWIDTH 467 0
DWIDTH 9 0
BBX 9 18 0 -4
BITMAP
1C0700
0E0E00
02F800
000000
B002C0
740380
2C0740
1D0B00
0E0E00
0B1D00
076C00
02B800
01F000
00E000
00D000
01C000
074000
7D0000
ENDCHAR
STARTCHAR uni045F
ENCODING 1119
SWIDTH 558 0
DWIDTH 11 0
BBX 9 13 1 -3
BITMAP
740380
740380
740380
740380
740380
740380
740380
740380
740380
7FFF80
01D000
01D000
00D000
ENDCHAR
STARTCHAR uni0462
ENCODING 1122
SWIDTH 614 0
DWIDTH 12 0
BBX 12 14 0 0
BITMAP
018000
02C000
02C000
7FFFE0
02C000
02C000
02C000
02FF90
02C078
02C01D
02C01D
02C01D
02C078
02FF90
ENDCHAR
STARTCHAR uni0463
ENCODING 1123
SWIDTH 576 0
DWIDTH 12 0
BBX 11 13 0 0
BITMAP
004000
01D000
01D000
7FFFC0
01D000
01D000
01D000
01FF90
01D0B4
01D038
01D038
01D0B4
01FF90
ENDCHAR
STARTCHAR uni0472
ENCODING 1138
SWIDTH 664 0
DWIDTH 13 0
BBX 12 13 1 0
BITMAP
02FE40
1E42D0
3800B4
740038
B0002C
E0002D
FFFFFD
E0001D
B0002C
700038
380074
1E42D0
02FE40
ENDCHAR
STARTCHAR uni0473
ENCODING 1139
SWIDTH 542 0
DWIDTH 11 0
BBX 9 10 1 0
BITMAP
0BF400
391E00
B00740
E00280
FFFFC0
E002C0
E00380
B40740
3D1E00
0BF400
ENDCHAR
STARTCHAR uni0474
ENCODING 1140
SWIDTH 529 0
DWIDTH 11 0
BBX 11 13 0 0
BITMAP
F0007C
B400E0
7801D0
3802C0
2C0380
1D0340
0E0700
0B0A00
074E00
039D00
02EC00
01F800
00F400
ENDCHAR
STARTCHAR uni0475
ENCODING 1141
SWIDTH 477 0
DWIDTH 10 0
BBX 10 10 0 0
BITMAP
B001E0
740340
380700
2C0A00
1D0D00
0E1C00
072800
037400
02B400
01F000
ENDCHAR
STARTCHAR uni0490
ENCODING 1168
SWIDTH 498 0
DWIDTH 10 0
BBX 9 17 1 0
BITMAP
000380
000340
000340
000340
7FFF40
740000
740000
740000
740000
740000
740000
740000
740000
740000
740000
740000
740000
ENDCHAR
STARTCHAR uni0491
ENCODING 1169
SWIDTH 416 0
DWIDTH 8 0
BBX 7 14 1 0
BITMAP
0004
001C
002C
002C
7FF8
7400
7400
7400
7400
7400
7400
7400
7400
7400
ENDCHAR
STARTCHAR uni0492
ENCODING 1170
SWIDTH 521 0
DWIDTH 10 0
BBX 10 13 0 0
BITMAP
0BFFE0
0B0000
0B0000
0B0000
0B0000
0B0000
7FFC00
0B0000
0B0000
0B0000
0B0000
0B0000
0B0000
ENDCHAR
STARTCHAR uni0493
ENCODING 1171
SWIDTH 424 0
DWIDTH 8 0
BBX 8 10 0 0
BITMAP
0FFF
0E00
0E00
0E00
0E00
7FF4
0E00
0E00
0E00
0E00
ENDCHAR
STARTCHAR uni0496
ENCODING 1174
SWIDTH 847 0
DWIDTH 17 0
BBX 17 16 0 -3
BITMAP
B402C01E00
0D02C07400
0702C0A000
0342C1C000
0282C28000
01D2C74000
00FFFF0000
02C2C38000
0382C1D000
0B02C0E000
1D02C07400
3802C02C00
B402C00F40
0000000740
0000000740
0000000740
ENDCHAR
STARTCHAR uni0497
ENCODING 1175
SWIDTH 718 0
DWIDTH 14 0
BBX 14 13 0 -3
BITMAP
780E02C0
0D0E0A00
070E1C00
034E2800
02FFF400
074E2800
0A0E0D00
1D0E0A00
380E0340
740E02F0
000000B0
000000B0
000000B0
ENDCHAR
STARTCHAR uni0498
ENCODING 1176
SWIDTH 554 0
DWIDTH 11 0
BBX 10 16 1 -3
BITMAP
1BF800
741F00
000740
000380
000740
001E00
07FD00
000B80
0002C0
0001D0
4002C0
F40B40
2BF900
01D000
01D000
01D000
ENDCHAR
STARTCHAR uni0499
ENCODING 1177
SWIDTH 456 0
DWIDTH 9 0
BBX 8 13 1 -3
BITMAP
6FE0
9078
002C
0078
0FE0
0078
001D
001D
9078
6FE0
0740
0740
0700
ENDCHAR
STARTCHAR uni049A
ENCODING 1178
SWIDTH 628 0
DWIDTH 13 0
BBX 11 16 1 -3
BITMAP
7400B0
740280
740700
740D00
741C00
743400
7FF400
743800
741D00
740B00
740380
7401D0
7400BC
00002C
00002C
00002C
ENDCHAR
STARTCHAR uni049B
ENCODING 1179
SWIDTH 536 0
DWIDTH 11 0
BBX 10 14 1 -4
BITMAP
740B00
742800
743400
74B000
7FE000
74B000
743400
741C00
740E00
7407D0
0001D0
0001D0
0001D0
000040
ENDCHAR
STARTCHAR uni04A0
ENCODING 1184
SWIDTH 716 0
DWIDTH 14 0
BBX 14 13 0 0
BITMAP
7FF401E0
00740340
00740A00
00741C00
00742400
00747000
007FF400
00747800
00742D00
00740F00
00740780
007402D0
007400B0
ENDCHAR
STARTCHAR uni04A1
ENCODING 1185
SWIDTH 614 0
DWIDTH 12 0
BBX 12 10 0 0
BITMAP
7FE01D
00E070
00E0A0
00E1C0
00FFC0
00E1D0
00E0B0
00E038
00E02C
00E00E
ENDCHAR
STARTCHAR uni04A2
ENCODING 1186
SWIDTH 661 0
DWIDTH 13 0
BBX 12 16 1 -3
BITMAP
740074
740074
740074
740074
740074
740074
7FFFF4
740074
740074
740074
740074
740074
74007E
00000E
00000E
00000E
ENDCHAR
STARTCHAR uni04A3
ENCODING 1187
SWIDTH 570 0
DWIDTH 11 0
BBX 10 13 1 -3
BITMAP
740380
740380
740380
740380
7FFF80
740380
740380
740380
740380
7403F0
0000B0
0000B0
0000B0
ENDCHAR
STARTCHAR uni04AA
ENCODING 1194
SWIDTH 571 0
DWIDTH 11 0
BBX 10 16 1 -3
BITMAP
01BE40
0E41D0
2C0000
740000
B00000
E00000
E00000
F00000
B00000
740000
3C0040
1E41E0
02FE40
003800
003800
003400
ENDCHAR
STARTCHAR uni04AB
ENCODING 1195
SWIDTH 456 0
DWIDTH 9 0
BBX 8 13 1 -3
BITMAP
07F8
2D18
7400
F000
E000
E000
F000
B400
3D09
0BF8
01D0
01C0
01C0
ENDCHAR
STARTCHAR uni04AE
ENCODING 1198
SWIDTH 476 0
DWIDTH 10 0
BBX 10 13 0 0
BITMAP
B001D0
740380
2C0740
1D0A00
0A1D00
076800
02F400
01E000
00E000
00E000
00E000
00E000
00E000
ENDCHAR
STARTCHAR uni04AF
ENCODING 1199
SWIDTH 467 0
DWIDTH 9 0
BBX 9 14 0 -4
BITMAP
B002C0
740380
380740
1C0B00
0D0D00
0A1C00
072800
037400
02F000
01E000
00E000
00E000
00E000
00E000
ENDCHAR
STARTCHAR uni04B0
ENCODING 1200
SWIDTH 476 0
DWIDTH 10 0
BBX 10 13 0 0
BITMAP
B001D0
740380
2C0740
1D0A00
0A1D00
076800
02F400
2FFF40
00E000
00E000
00E000
00E000
00E000
ENDCHAR
STARTCHAR uni04B1
ENCODING 1201
SWIDTH 467 0
DWIDTH 9 0
BBX 9 14 0 -4
BITMAP
B002C0
740380
380740
1C0B00
0D0D00
0A1C00
072800
037400
02F000
3FFF40
00E000
00E000
00E000
00E000
ENDCHAR
STARTCHAR uni04B2
ENCODING 1202
SWIDTH 551 0
DWIDTH 11 0
BBX 11 16 0 -3
BITMAP
7801D0
2D02C0
0E0740
074E00
039D00
01F800
00F400
02F800
075D00
0B0A00
1D0740
3C02C0
7400F8
000034
000034
000034
ENDCHAR
STARTCHAR uni04B3
ENCODING 1203
SWIDTH 482 0
DWIDTH 10 0
BBX 10 13 0 -3
BITMAP
780B00
2D0E00
0E2C00
07B400
02E000
03E000
0B7400
1D2C00
280D00
7407D0
0001D0
0001C0
0001C0
ENDCHAR
STARTCHAR uni04B6
ENCODING 1206
SWIDTH 607 0
DWIDTH 12 0
BBX 11 16 1 -3
BITMAP
B002C0
B002C0
B002C0
B002C0
7402C0
3D02C0
0BFFC0
0002C0
0002C0
0002C0
0002C0
0002C0
0002F8
000038
000038
000034
ENDCHAR
STARTCHAR uni04B7
ENCODING 1207
SWIDTH 520 0
DWIDTH 10 0
BBX 9 13 1 -3
BITMAP
A00E00
A00E00
A00E00
B00E00
780E00
1BFE00
000E00
000E00
000E00
000FC0
0002C0
0002C0
0002C0
ENDCHAR
STARTCHAR uni04BA
ENCODING 1210
SWIDTH 598 0
DWIDTH 12 0
BBX 10 13 1 0
BITMAP
740000
740000
740000
740000
740000
7FFA00
780780
7401D0
7400E0
7400E0
7400E0
7400E0
7400E0
ENDCHAR
STARTCHAR uni04BB
ENCODING 1211
SWIDTH 544 0
DWIDTH 11 0
BBX 9 14 1 0
BITMAP
740000
740000
740000
740000
75F900
7A0B00
740740
740740
740740
740740
740740
740740
740740
740740
ENDCHAR
STARTCHAR uni04C0
ENCODING 1216
SWIDTH 263 0
DWIDTH 5 0
BBX 3 13 1 0
BITMAP
74
74
74
74
74
74
74
74
74
74
74
74
74
ENDCHAR
STARTCHAR uni04C1
ENCODING 1217
SWIDTH 805 0
DWIDTH 16 0
BBX 16 17 0 0
BITMAP
00381C00
002C3800
000BE000
00000000
B402C01E
0D02C074
0702C0A0
0342C1C0
0282C280
01D2C740
00FFFF00
02C2C380
0382C1D0
0B02C0E0
1D02C074
3802C02C
B402C00E
ENDCHAR
STARTCHAR uni04C2
ENCODING 1218
SWIDTH 681 0
DWIDTH 14 0
BBX 13 14 0 0
BITMAP
01C07000
00E1E000
002F8000
00000000
780902C0
0D0E0A00
070E1C00
034E2800
02FFF400
074E2C00
0A0E0D00
1D0E0B00
380E0380
740E02C0
ENDCHAR
STARTCHAR uni04CF
ENCODING 1231
SWIDTH 255 0
DWIDTH 5 0
BBX 4 14 1 0
BITMAP
74
74
74
74
74
74
74
74
74
74
74
74
74
2D
ENDCHAR
STARTCHAR uni04D0
ENCODING 1232
SWIDTH 544 0
DWIDTH 11 0
BBX 11 17 0 0
BITMAP
070340
074B00
01FD00
000000
00B800
00EC00
01DD00
028E00
034B00
074740
0B0380
0E02C0
1FFFD0
2C00E0
3800B0
740074
B00038
ENDCHAR
STARTCHAR uni04D1
ENCODING 1233
SWIDTH 504 0
DWIDTH 10 0
BBX 8 14 1 0
BITMAP
280D
1D2C
0BE4
0000
1BE4
642C
001D
000E
06BE
3E4E
B00E
E00E
B46E
2F8A
ENDCHAR
STARTCHAR uni04D4
ENCODING 1236
SWIDTH 822 0
DWIDTH 16 0
BBX 16 13 0 0
BITMAP
0007FFFD
000BE000
001DE000
002CE000
0074E000
00F0E000
01D0FFF4
0380E000
07FFE000
0E00E000
2D00E000
3800E000
B400FFFD
ENDCHAR
STARTCHAR uni04D5
ENCODING 1237
SWIDTH 785 0
DWIDTH 16 0
BBX 14 10 1 0
BITMAP
1BE07E40
242A81D0
000F00A0
001E00A0
0BEFAAB0
7D0E5550
B00A0000
A00B4000
B46AD180
2F907F90
ENDCHAR
STARTCHAR uni04D6
ENCODING 1238
SWIDTH 527 0
DWIDTH 11 0
BBX 9 17 1 0
BITMAP
1D0A00
0E1D00
06F400
000000
7FFF40
740000
740000
740000
740000
740000
7FFD00
740000
740000
740000
740000
740000
7FFF80
ENDCHAR
STARTCHAR uni04D7
ENCODING 1239
SWIDTH 496 0
DWIDTH 10 0
BBX 8 14 1 0
BITMAP
280D
1D2C
07E4
0000
0BE4
291D
B00B
E007
FFFF
E000
E000
B400
2D05
0BF9
ENDCHAR
STARTCHAR uni04D8
ENCODING 1240
SWIDTH 658 0
DWIDTH 13 0
BBX 11 13 1 0
BITMAP
06FE40
1E02D0
0000B4
000038
00002C
00002C
BFFFFC
B0002C
B0002C
740038
3800B4
1E42D0
02FE40
ENDCHAR
STARTCHAR uni04D9
ENCODING 1241
SWIDTH 496 0
DWIDTH 10 0
BBX 9 10 0 0
BITMAP
1BF800
191B00
000340
000280
7FFFC0
7402C0
340380
280740
1D1E00
06F800
ENDCHAR
STARTCHAR uni04E2
ENCODING 1250
SWIDTH 656 0
DWIDTH 13 0
BBX 11 15 1 0
BITMAP
03FF40
000000
7400B4
7401F4
7403B4
740B74
740E74
742C74
747474
74E074
75D074
778074
7B0074
7D0074
7C0074
ENDCHAR
STARTCHAR uni04E3
ENCODING 1251
SWIDTH 565 0
DWIDTH 11 0
BBX 9 13 1 0
BITMAP
0FFD00
000000
000000
740780
740B80
741F80
743780
74A380
75C380
774380
7A0380
7C0380
740380
ENDCHAR
STARTCHAR uni04E6
ENCODING 1254
SWIDTH 664 0
DWIDTH 13 0
BBX 12 16 1 0
BITMAP
074340
074340
000000
02FE40
1E42D0
3800B4
740038
B0002C
E0002D
E0002D
E0002D
B0002C
740038
3C00B4
1E42D0
02FE40
ENDCHAR
STARTCHAR uni04E7
ENCODING 1255
SWIDTH 542 0
DWIDTH 11 0
BBX 9 14 1 0
BITMAP
1D1D00
1D1D00
000000
000000
0BF400
2D1E00
B40740
E00380
E003C0
E003C0
E00380
B40740
2D1E00
0BF400
ENDCHAR
STARTCHAR uni04E8
ENCODING 1256
SWIDTH 664 0
DWIDTH 13 0
BBX 12 13 1 0
BITMAP
02FE40
1E42D0
3800B4
740038
B0002C
E0002D
FFFFFD
E0001D
B0002C
700038
380074
1E42D0
02FE40
ENDCHAR
STARTCHAR uni04E9
ENCODING 1257
SWIDTH 542 0
DWIDTH 11 0
BBX 9 10 1 0
BITMAP
0BF400
391E00
B00740
E00280
FFFFC0
E002C0
E00380
B40740
3D1E00
0BF400
ENDCHAR
STARTCHAR uni04EE
ENCODING 1262
SWIDTH 514 0
DWIDTH 10 0
BBX 10 15 0 0
BITMAP
0BFE00
000000
B000B0
7800E0
2C01D0
1D02C0
0A0740
074B00
028E00
01DD00
00B800
00B400
00B000
01D000
1F4000
ENDCHAR
STARTCHAR uni04EF
ENCODING 1263
SWIDTH 467 0
DWIDTH 9 0
BBX 9 17 0 -4
BITMAP
0BFE00
000000
000000
B002C0
740380
2C0740
1D0B00
0E0E00
0B1D00
076C00
02B800
01F000
00E000
00D000
01C000
074000
7D0000
ENDCHAR
STARTCHAR uni04F2
ENCODING 1266
SWIDTH 514 0
DWIDTH 10 0
BBX 10 17 0 0
BITMAP
006180
01D340
024900
000000
B000B0
7800E0
2C01D0
1D02C0
0A0740
074B00
028E00
01DD00
00B800
00B400
00B000
01D000
1F4000
ENDCHAR
STARTCHAR uni04F3
ENCODING 1267
SWIDTH 467 0
DWIDTH 9 0
BBX 9 19 0 -4
BITMAP
009280
00D700
028A00
020400
000000
B002C0
740380
2C0740
1D0B00
0E0E00
0B1D00
076C00
02B800
01F000
00E000
00D000
01C000
074000
7D0000
ENDCHAR
STARTCHAR a.sups
ENCODING 7491
SWIDTH 345 0
DWIDTH 7 0
BBX 6 6 0 8
BITMAP
1BD0
14A0
0AF0
3970
70B0
2F60
ENDCHAR
STARTCHAR b.sups
ENCODING 7495
SWIDTH 374 0
DWIDTH 7 0
BBX 6 9 1 8
BITMAP
D000
D000
D000
EF80
E0E0
D0A0
D0A0
E1D0
EF80
ENDCHAR
STARTCHAR d.sups
ENCODING 7496
SWIDTH 374 0
DWIDTH 7 0
BBX 7 9 0 8
BITMAP
0024
0024
0024
1BB4
3874
7024
7024
3474
1BA4
ENDCHAR
STARTCHAR e.sups
ENCODING 7497
SWIDTH 336 0
DWIDTH 7 0
BBX 6 6 0 8
BITMAP
1B90
3470
7FF0
7000
3810
1BD0
ENDCHAR
STARTCHAR g.sups
ENCODING 7501
SWIDTH 343 0
DWIDTH 7 0
BBX 7 9 0 5
BITMAP
1FA4
34A0
34A0
2F80
3000
2FE4
6028
7074
2F90
ENDCHAR
STARTCHAR k.sups
ENCODING 7503
SWIDTH 337 0
DWIDTH 7 0
BBX 6 9 1 8
BITMAP
D000
D000
D000
D180
D700
ED00
FB00
D280
D0D0
ENDCHAR
STARTCHAR m.sups
ENCODING 7504
SWIDTH 559 0
DWIDTH 11 0
BBX 10 6 1 8
BITMAP
9F9F80
E1E1C0
D0D0D0
D0D0D0
D0D0D0
D0D0D0
ENDCHAR
STARTCHAR o.sups
ENCODING 7506
SWIDTH 365 0
DWIDTH 7 0
BBX 7 6 0 8
BITMAP
1BD0
3474
7028
7028
3474
1BD0
ENDCHAR
STARTCHAR p.sups
ENCODING 7510
SWIDTH 374 0
DWIDTH 7 0
BBX 6 9 1 5
BITMAP
DF80
E0E0
D0A0
D0A0
E1D0
EF80
D000
D000
D000
ENDCHAR
STARTCHAR t.sups
ENCODING 7511
SWIDTH 232 0
DWIDTH 5 0
BBX 5 8 0 8
BITMAP
2800
2800
BF40
2800
2800
2800
2800
1F40
ENDCHAR
STARTCHAR u.sups
ENCODING 7512
SWIDTH 370 0
DWIDTH 7 0
BBX 6 6 1 8
BITMAP
D0D0
D0D0
D0D0
D0D0
E1D0
7E90
ENDCHAR
STARTCHAR v.sups
ENCODING 7515
SWIDTH 321 0
DWIDTH 6 0
BBX 6 6 0 8
BITMAP
A030
7060
34D0
19C0
0E80
0B00
ENDCHAR
STARTCHAR c.sups
ENCODING 7580
SWIDTH 306 0
DWIDTH 6 0
BBX 6 6 0 8
BITMAP
1BD0
3840
7000
7000
3810
1BD0
ENDCHAR
STARTCHAR f.sups
ENCODING 7584
SWIDTH 201 0
DWIDTH 4 0
BBX 5 9 0 8
BITMAP
0B40
2800
2800
BF00
2800
2800
2800
2800
2800
ENDCHAR
STARTCHAR z.sups
ENCODING 7611
SWIDTH 290 0
DWIDTH 6 0
BBX 6 6 0 8
BITMAP
7FD0
02C0
0700
1D00
7400
BFD0
ENDCHAR
STARTCHAR uni1E06
ENCODING 7686
SWIDTH 588 0
DWIDTH 12 0
BBX 10 16 1 -3
BITMAP
7FF900
740780
7402C0
7401C0
7402C0
740B40
7FFE40
7406D0
7400F0
7400B0
7400E0
7406D0
7FFA00
000000
000000
0BFE00
ENDCHAR
STARTCHAR uni1E07
ENCODING 7687
SWIDTH 553 0
DWIDTH 11 0
BBX 9 17 1 -3
BITMAP
740000
740000
740000
740000
75F900
7D0B40
740380
7402C0
7402C0
7402C0
7402C0
740780
7D1F00
72F800
000000
000000
0FFD00
ENDCHAR
STARTCHAR uni1E0C
ENCODING 7692
SWIDTH 615 0
DWIDTH 12 0
BBX 11 17 1 -4
BITMAP
7FF900
741B40
7402D0
7400E0
7400B0
740074
740074
7400B4
7400B0
7400E0
7402D0
741B40
7FF900
000000
000000
00B000
00B000
ENDCHAR
STARTCHAR uni1E0D
ENCODING 7693
SWIDTH 555 0
DWIDTH 11 0
BBX 9 18 1 -4
BITMAP
000740
000740
000740
000740
0BE740
2D1B40
B40740
F00740
E00740
E00740
E00740
B00740
381B40
1BE340
000000
000000
00B000
00B000
ENDCHAR
STARTCHAR uni1E0E
ENCODING 7694
SWIDTH 615 0
DWIDTH 12 0
BBX 11 16 1 -3
BITMAP
7FF900
741B40
7402D0
7400E0
7400B0
740074
740074
7400B4
7400B0
7400E0
7402D0
741B40
7FF900
000000
000000
0BFE00
ENDCHAR
STARTCHAR uni1E0F
ENCODING 7695
SWIDTH 555 0
DWIDTH 11 0
BBX 9 17 1 -3
BITMAP
000740
000740
000740
000740
0BE740
2D1B40
B40740
F00740
E00740
E00740
E00740
B00740
381B40
1BE340
000000
000000
0BFE00
ENDCHAR
STARTCHAR uni1E16
ENCODING 7702
SWIDTH 527 0
DWIDTH 11 0
BBX 9 19 1 0
BITMAP
001400
00B400
008000
000000
0FFD00
000000
7FFF40
740000
740000
740000
740000
740000
7FFD00
740000
740000
740000
740000
740000
7FFF80
ENDCHAR
STARTCHAR uni1E17
ENCODING 7703
SWIDTH 496 0
DWIDTH 10 0
BBX 8 17 1 0
BITMAP
0020
01E0
0240
0000
1FFC
0000
0000
0BE4
291D
B00B
E007
FFFF
E000
E000
B400
2D05
0BF9
ENDCHAR
STARTCHAR uni1E20
ENCODING 7712
SWIDTH 617 0
DWIDTH 12 0
BBX 10 15 1 0
BITMAP
02FF80
000000
01BF80
0F41E0
2C0000
740000
B00000
E00000
E00000
F01FF0
B000B0
7400B0
3C00B0
0F41B0
02BF80
ENDCHAR
STARTCHAR uni1E21
ENCODING 7713
SWIDTH 504 0
DWIDTH 10 0
BBX 9 17 1 -4
BITMAP
1FFC00
000000
000000
0BFF80
382C00
B01D00
B00D00
B01D00
382800
2BE000
700000
3FFE00
600780
D00280
D00380
B41F00
1BE400
ENDCHAR
STARTCHAR uni1E24
ENCODING 7716
SWIDTH 652 0
DWIDTH 13 0
BBX 11 17 1 -4
BITMAP
740074
740074
740074
740074
740074
740074
7FFFF4
740074
740074
740074
740074
740074
740074
000000
000000
007400
007400
ENDCHAR
STARTCHAR uni1E25
ENCODING 7717
SWIDTH 544 0
DWIDTH 11 0
BBX 9 18 1 -4
BITMAP
740000
740000
740000
740000
75F900
7A0B00
740740
740740
740740
740740
740740
740740
740740
740740
000000
000000
01E000
01E000
ENDCHAR
STARTCHAR uni1E2A
ENCODING 7722
SWIDTH 652 0
DWIDTH 13 0
BBX 11 18 1 -5
BITMAP
740074
740074
740074
740074
740074
740074
7FFFF4
740074
740074
740074
740074
740074
740074
000000
000000
060240
074740
01B900
ENDCHAR
STARTCHAR uni1E2B
ENCODING 7723
SWIDTH 544 0
DWIDTH 11 0
BBX 9 19 1 -5
BITMAP
740000
740000
740000
740000
75F900
7A0B00
740740
740740
740740
740740
740740
740740
740740
740740
000000
000000
180600
0D1D00
06F400
ENDCHAR
STARTCHAR uni1E32
ENCODING 7730
SWIDTH 579 0
DWIDTH 12 0
BBX 11 17 1 -4
BITMAP
7401D0
740780
741E00
743C00
74B400
76F000
7FB800
7E2D00
780E00
740740
7402C0
7401E0
7400B4
000000
000000
007400
007400
ENDCHAR
STARTCHAR uni1E33
ENCODING 7731
SWIDTH 495 0
DWIDTH 10 0
BBX 9 18 1 -4
BITMAP
740000
740000
740000
740000
740E00
742C00
747400
75D000
77D000
7FF000
7D7800
742D00
740E00
740740
000000
000000
01D000
01D000
ENDCHAR
STARTCHAR uni1E34
ENCODING 7732
SWIDTH 579 0
DWIDTH 12 0
BBX 11 16 1 -3
BITMAP
7401D0
740780
741E00
743C00
74B400
76F000
7FB800
7E2D00
780E00
740740
7402C0
7401E0
7400B4
000000
000000
03FF00
ENDCHAR
STARTCHAR uni1E35
ENCODING 7733
SWIDTH 495 0
DWIDTH 10 0
BBX 9 17 1 -3
BITMAP
740000
740000
740000
740000
740E00
742C00
747400
75D000
77D000
7FF000
7D7800
742D00
740E00
740740
000000
000000
1FFC00
ENDCHAR
STARTCHAR uni1E36
ENCODING 7734
SWIDTH 486 0
DWIDTH 10 0
BBX 9 17 1 -4
BITMAP
740000
740000
740000
740000
740000
740000
740000
740000
740000
740000
740000
740000
7FFF40
000000
000000
00E000
00E000
ENDCHAR
STARTCHAR uni1E37
ENCODING 7735
SWIDTH 255 0
DWIDTH 5 0
BBX 4 18 1 -4
BITMAP
74
74
74
74
74
74
74
74
74
74
74
74
74
2D
00
00
2C
2C
ENDCHAR
STARTCHAR uni1E38
ENCODING 7736
SWIDTH 486 0
DWIDTH 10 0
BBX 10 19 0 -4
BITMAP
FFD000
000000
1D0000
1D0000
1D0000
1D0000
1D0000
1D0000
1D0000
1D0000
1D0000
1D0000
1D0000
1D0000
1FFFD0
000000
000000
003800
003800
ENDCHAR
STARTCHAR uni1E39
ENCODING 7737
SWIDTH 255 0
DWIDTH 5 0
BBX 6 21 -1 -4
BITMAP
7FF0
0000
0000
0740
0740
0740
0740
0740
0740
0740
0740
0740
0740
0740
0740
0740
02D0
0000
0000
02C0
02C0
ENDCHAR
STARTCHAR uni1E3A
ENCODING 7738
SWIDTH 486 0
DWIDTH 10 0
BBX 9 16 1 -3
BITMAP
740000
740000
740000
740000
740000
740000
740000
740000
740000
740000
740000
740000
7FFF40
000000
000000
0FFD00
ENDCHAR
STARTCHAR uni1E3B
ENCODING 7739
SWIDTH 255 0
DWIDTH 5 0
BBX 6 17 0 -3
BITMAP
1D00
1D00
1D00
1D00
1D00
1D00
1D00
1D00
1D00
1D00
1D00
1D00
1D00
0B40
0000
0000
BFE0
ENDCHAR
STARTCHAR uni1E3E
ENCODING 7742
SWIDTH 727 0
DWIDTH 15 0
BBX 12 17 1 0
BITMAP
000240
000B40
002800
000000
7C001E
7D002E
7A007A
7700AA
7740DA
7681CA
75C28A
74E34A
74770A
743A0A
742D0A
74180A
74000A
ENDCHAR
STARTCHAR uni1E3F
ENCODING 7743
SWIDTH 829 0
DWIDTH 17 0
BBX 14 15 1 0
BITMAP
00006000
0001E000
00078000
00060000
00000000
71F82F80
791E91E0
740B40B0
740740B0
740740B0
740740B0
740740B0
740740B0
740740B0
740740B0
ENDCHAR
STARTCHAR uni1E40
ENCODING 7744
SWIDTH 727 0
DWIDTH 15 0
BBX 12 16 1 0
BITMAP
002D00
002D00
000000
7C001E
7D002E
7A007A
7700AA
7740DA
7681CA
75C28A
74E34A
74770A
743A0A
742D0A
74180A
74000A
ENDCHAR
STARTCHAR uni1E41
ENCODING 7745
SWIDTH 829 0
DWIDTH 17 0
BBX 14 14 1 0
BITMAP
00074000
00074000
00000000
00000000
71F82F80
791E91E0
740B40B0
740740B0
740740B0
740740B0
740740B0
740740B0
740740B0
740740B0
ENDCHAR
STARTCHAR uni1E42
ENCODING 7746
SWIDTH 727 0
DWIDTH 15 0
BBX 12 17 1 -4
BITMAP
7C001E
7D002E
7A007A
7700AA
7740DA
7681CA
75C28A
74E34A
74770A
743A0A
742D0A
74180A
74000A
000000
000000
002D00
002D00
ENDCHAR
STARTCHAR uni1E43
ENCODING 7747
SWIDTH 829 0
DWIDTH 17 0
BBX 14 14 1 -4
BITMAP
71F82F80
791E91E0
740B40B0
740740B0
740740B0
740740B0
740740B0
740740B0
740740B0
740740B0
00000000
00000000
00074000
00074000
ENDCHAR
STARTCHAR uni1E44
ENCODING 7748
SWIDTH 647 0
DWIDTH 13 0
BBX 10 16 1 0
BITMAP
007400
007400
000000
780070
7D0070
7B0070
778070
76C070
74E070
747470
742C70
741D70
740B70
7403B0
7401F0
7400F0
ENDCHAR
STARTCHAR uni1E45
ENCODING 7749
SWIDTH 547 0
DWIDTH 11 0
BBX 9 14 1 0
BITMAP
00E000
00E000
000000
000000
71F900
790B00
740740
740740
740740
740740
740740
740740
740740
740740
ENDCHAR
STARTCHAR uni1E46
ENCODING 7750
SWIDTH 647 0
DWIDTH 13 0
BBX 10 17 1 -4
BITMAP
780070
7D0070
7B0070
778070
76C070
74E070
747470
742C70
741D70
740B70
7403B0
7401F0
7400F0
000000
000000
007400
007400
ENDCHAR
STARTCHAR uni1E47
ENCODING 7751
SWIDTH 547 0
DWIDTH 11 0
BBX 9 14 1 -4
BITMAP
71F900
790B00
740740
740740
740740
740740
740740
740740
740740
740740
000000
000000
01D000
01D000
ENDCHAR
STARTCHAR uni1E48
ENCODING 7752
SWIDTH 647 0
DWIDTH 13 0
BBX 10 16 1 -3
BITMAP
780070
7D0070
7B0070
778070
76C070
74E070
747470
742C70
741D70
740B70
7403B0
7401F0
7400F0
000000
000000
03FF40
ENDCHAR
STARTCHAR uni1E49
ENCODING 7753
SWIDTH 547 0
DWIDTH 11 0
BBX 9 13 1 -3
BITMAP
71F900
790B00
740740
740740
740740
740740
740740
740740
740740
740740
000000
000000
0FFD00
ENDCHAR
STARTCHAR uni1E52
ENCODING 7762
SWIDTH 664 0
DWIDTH 13 0
BBX 12 19 1 0
BITMAP
000500
002D00
002000
000000
03FF40
000000
02FE40
1E42D0
3800B4
740038
B0002C
E0002D
E0002D
E0002D
B0002C
740038
3C00B4
1E42D0
02FE40
ENDCHAR
STARTCHAR uni1E53
ENCODING 7763
SWIDTH 542 0
DWIDTH 11 0
BBX 9 17 1 0
BITMAP
002400
01E000
024000
000000
1FFC00
000000
000000
0BF400
2D1E00
B40740
E00380
E003C0
E003C0
E00380
B40740
2D1E00
0BF400
ENDCHAR
STARTCHAR uni1E58
ENCODING 7768
SWIDTH 569 0
DWIDTH 11 0
BBX 10 16 1 0
BITMAP
01E000
01E000
000000
7FF900
740780
7401D0
7401D0
7401D0
7407C0
7FFF40
743800
741D00
740A00
740740
7402C0
7401E0
ENDCHAR
STARTCHAR uni1E59
ENCODING 7769
SWIDTH 347 0
DWIDTH 7 0
BBX 6 14 1 0
BITMAP
0B40
0B40
0000
0000
72E0
7900
7400
7400
7400
7400
7400
7400
7400
7400
ENDCHAR
STARTCHAR uni1E5A
ENCODING 7770
SWIDTH 569 0
DWIDTH 11 0
BBX 10 17 1 -4
BITMAP
7FF900
740780
7401D0
7401D0
7401D0
7407C0
7FFF40
743800
741D00
740A00
740740
7402C0
7401E0
000000
000000
00B000
00B000
ENDCHAR
STARTCHAR uni1E5B
ENCODING 7771
SWIDTH 347 0
DWIDTH 7 0
BBX 6 14 1 -4
BITMAP
72E0
7900
7400
7400
7400
7400
7400
7400
7400
7400
0000
0000
7400
7400
ENDCHAR
STARTCHAR uni1E5C
ENCODING 7772
SWIDTH 569 0
DWIDTH 11 0
BBX 10 19 1 -4
BITMAP
0FFD00
000000
7FF900
740780
7401D0
7401D0
7401D0
7407C0
7FFF40
743800
741D00
740A00
740740
7402C0
7401E0
000000
000000
00B000
00B000
ENDCHAR
STARTCHAR uni1E5D
ENCODING 7773
SWIDTH 347 0
DWIDTH 7 0
BBX 6 17 1 -4
BITMAP
7FF0
0000
0000
72E0
7900
7400
7400
7400
7400
7400
7400
7400
7400
0000
0000
7400
7400
ENDCHAR
STARTCHAR uni1E5E
ENCODING 7774
SWIDTH 569 0
DWIDTH 11 0
BBX 10 16 1 -3
BITMAP
7FF900
740780
7401D0
7401D0
7401D0
7407C0
7FFF40
743800
741D00
740A00
740740
7402C0
7401E0
000000
000000
0BFE00
ENDCHAR
STARTCHAR uni1E5F
ENCODING 7775
SWIDTH 347 0
DWIDTH 7 0
BBX 8 13 -1 -3
BITMAP
072E
0790
0740
0740
0740
0740
0740
0740
0740
0740
0000
0000
7FF0
ENDCHAR
STARTCHAR uni1E60
ENCODING 7776
SWIDTH 534 0
DWIDTH 11 0
BBX 9 16 1 0
BITMAP
01D000
01D000
000000
0AF900
2D0B40
740000
740000
780000
2F9000
06F900
002F40
000780
0003C0
400380
F40B40
1BF800
ENDCHAR
STARTCHAR uni1E61
ENCODING 7777
SWIDTH 419 0
DWIDTH 8 0
BBX 7 14 1 0
BITMAP
0740
0740
0000
0000
2FE0
B460
E000
B400
2E40
06F0
0078
0038
D074
6F90
ENDCHAR
STARTCHAR uni1E62
ENCODING 7778
SWIDTH 534 0
DWIDTH 11 0
BBX 9 17 1 -4
BITMAP
0AF900
2D0B40
740000
740000
780000
2F9000
06F900
002F40
000780
0003C0
400380
F40B40
1BF800
000000
000000
01D000
01D000
ENDCHAR
STARTCHAR uni1E63
ENCODING 7779
SWIDTH 419 0
DWIDTH 8 0
BBX 7 14 1 -4
BITMAP
2FE0
B460
E000
B400
2E40
06F0
0078
0038
D074
6F90
0000
0000
0740
0740
ENDCHAR
STARTCHAR uni1E6C
ENCODING 7788
SWIDTH 536 0
DWIDTH 11 0
BBX 10 17 0 -4
BITMAP
7FFFF0
007400
007400
007400
007400
007400
007400
007400
007400
007400
007400
007400
007400
000000
000000
007400
007400
ENDCHAR
STARTCHAR uni1E6D
ENCODING 7789
SWIDTH 338 0
DWIDTH 7 0
BBX 7 17 0 -4
BITMAP
0E00
0E00
0E00
7FF4
0E00
0E00
0E00
0E00
0E00
0E00
0E00
0B00
02F4
0000
0000
02D0
02D0
ENDCHAR
STARTCHAR uni1E6E
ENCODING 7790
SWIDTH 536 0
DWIDTH 11 0
BBX 10 16 0 -3
BITMAP
7FFFF0
007400
007400
007400
007400
007400
007400
007400
007400
007400
007400
007400
007400
000000
000000
07FF00
ENDCHAR
STARTCHAR uni1E6F
ENCODING 7791
SWIDTH 338 0
DWIDTH 7 0
BBX 7 16 0 -3
BITMAP
0E00
0E00
0E00
7FF4
0E00
0E00
0E00
0E00
0E00
0E00
0E00
0B00
02F4
0000
0000
1FFC
ENDCHAR
STARTCHAR Wgrave
ENCODING 7808
SWIDTH 786 0
DWIDTH 16 0
BBX 15 17 0 0
BITMAP
00180000
001E0000
00028000
00000000
7403801C
7407C02C
380AD038
2C0AE038
2C0DA074
1D1C7070
0D2834B0
0E2838A0
0A3428D0
0B701DD0
07B00EC0
03E00F80
03D00B80
ENDCHAR
STARTCHAR wgrave
ENCODING 7809
SWIDTH 718 0
DWIDTH 14 0
BBX 14 15 0 0
BITMAP
00200000
00780000
001E0000
00020000
00000000
740B00A0
380F40D0
381E81D0
2C19C2C0
1D24D280
0E34D340
0A70A740
07A07700
07D03E00
03D03D00
ENDCHAR
STARTCHAR Wacute
ENCODING 7810
SWIDTH 786 0
DWIDTH 16 0
BBX 15 17 0 0
BITMAP
00002400
0001E000
00024000
00000000
7403801C
7407C02C
380AD038
2C0AE038
2C0DA074
1D1C7070
0D2834B0
0E2838A0
0A3428D0
0B701DD0
07B00EC0
03E00F80
03D00B80
ENDCHAR
STARTCHAR wacute
ENCODING 7811
SWIDTH 718 0
DWIDTH 14 0
BBX 14 15 0 0
BITMAP
00009000
0001E000
00078000
00090000
00000000
740B00A0
380F40D0
381E81D0
2C19C2C0
1D24D280
0E34D340
0A70A740
07A07700
07D03E00
03D03D00
ENDCHAR
STARTCHAR Wdieresis
ENCODING 7812
SWIDTH 786 0
DWIDTH 16 0
BBX 15 16 0 0
BITMAP
00383800
00383800
00000000
7403801C
7407C02C
380AD038
2C0AE038
2C0DA074
1D1C7070
0D2834B0
0E2838A0
0A3428D0
0B701DD0
07B00EC0
03E00F80
03D00B80
ENDCHAR
STARTCHAR wdieresis
ENCODING 7813
SWIDTH 718 0
DWIDTH 14 0
BBX 14 14 0 0
BITMAP
0070B000
00B0B000
00000000
00000000
740B00A0
380F40D0
381E81D0
2C19C2C0
1D24D280
0E34D340
0A70A740
07A07700
07D03E00
03D03D00
ENDCHAR
STARTCHAR uni1E8E
ENCODING 7822
SWIDTH 476 0
DWIDTH 10 0
BBX 10 16 0 0
BITMAP
01E000
01E000
000000
B001D0
740380
2C0740
1D0A00
0A1D00
076800
02F400
01E000
00E000
00E000
00E000
00E000
00E000
ENDCHAR
STARTCHAR uni1E8F
ENCODING 7823
SWIDTH 467 0
DWIDTH 9 0
BBX 9 18 0 -4
BITMAP
00E000
00E000
000000
000000
B002C0
740380
2C0740
1D0B00
0E0E00
0B1D00
076C00
02B800
01F000
00E000
00D000
01C000
074000
7D0000
ENDCHAR
STARTCHAR uni1E92
ENCODING 7826
SWIDTH 539 0
DWIDTH 11 0
BBX 9 17 1 -4
BITMAP
7FFFC0
000B80
000F00
002D00
007800
00F000
02D000
078000
0F4000
2E0000
7C0000
B40000
FFFFC0
000000
000000
01D000
01D000
ENDCHAR
STARTCHAR uni1E93
ENCODING 7827
SWIDTH 425 0
DWIDTH 9 0
BBX 8 14 0 -4
BITMAP
2FFE
002D
0078
00F4
02E0
03C0
0B40
1E00
3C00
7FFF
0000
0000
01D0
01D0
ENDCHAR
STARTCHAR uni1E94
ENCODING 7828
SWIDTH 539 0
DWIDTH 11 0
BBX 9 16 1 -3
BITMAP
7FFFC0
000B80
000F00
002D00
007800
00F000
02D000
078000
0F4000
2E0000
7C0000
B40000
FFFFC0
000000
000000
0FFD00
ENDCHAR
STARTCHAR uni1E95
ENCODING 7829
SWIDTH 425 0
DWIDTH 9 0
BBX 8 13 0 -3
BITMAP
2FFE
002D
0078
00F4
02E0
03C0
0B40
1E00
3C00
7FFF
0000
0000
0FFD
ENDCHAR
STARTCHAR uni1E96
ENCODING 7830
SWIDTH 544 0
DWIDTH 11 0
BBX 9 17 1 -3
BITMAP
740000
740000
740000
740000
75F900
7A0B00
740740
740740
740740
740740
740740
740740
740740
740740
000000
000000
0FFD00
ENDCHAR
STARTCHAR uni1E97
ENCODING 7831
SWIDTH 338 0
DWIDTH 7 0
BBX 7 17 0 0
BITMAP
A0E0
A0E0
0000
0000
0E00
0E00
0E00
7FF4
0E00
0E00
0E00
0E00
0E00
0E00
0E00
0B00
02F4
ENDCHAR
STARTCHAR uni1E9E
ENCODING 7838
SWIDTH 667 0
DWIDTH 13 0
BBX 12 13 1 0
BITMAP
02FE40
0F42D0
2C00B0
3801E0
380380
780F00
780FE0
7801B8
78002D
78001D
78001D
78A478
786FE0
ENDCHAR
STARTCHAR uni1EA0
ENCODING 7840
SWIDTH 544 0
DWIDTH 11 0
BBX 11 17 0 -4
BITMAP
00B800
00EC00
01DD00
028E00
034B00
074740
0B0380
0E02C0
1FFFD0
2C00E0
3800B0
740074
B00038
000000
000000
007400
007400
ENDCHAR
STARTCHAR uni1EA1
ENCODING 7841
SWIDTH 504 0
DWIDTH 10 0
BBX 8 14 1 -4
BITMAP
1BE4
642C
001D
000E
06BE
3E4E
B00E
E00E
B46E
2F8A
0000
0000
0380
0380
ENDCHAR
STARTCHAR uni1EA2
ENCODING 7842
SWIDTH 544 0
DWIDTH 11 0
BBX 11 18 0 0
BITMAP
00A400
002C00
002C00
006400
000000
00B800
00EC00
01DD00
028E00
034B00
074740
0B0380
0E02C0
1FFFD0
2C00E0
3800B0
740074
B00038
ENDCHAR
STARTCHAR uni1EA3
ENCODING 7843
SWIDTH 504 0
DWIDTH 10 0
BBX 8 15 1 0
BITMAP
0380
00A0
00A0
0180
0000
1BE4
642C
001D
000E
06BE
3E4E
B00E
E00E
B46E
2F8A
ENDCHAR
STARTCHAR uni1EA4
ENCODING 7844
SWIDTH 544 0
DWIDTH 11 0
BBX 11 18 0 0
BITMAP
000060
0001D0
00BA40
024A00
000000
00B800
00EC00
01DD00
028E00
034B00
074740
0B0380
0E02C0
1FFFD0
2C00E0
3800B0
740074
B00038
ENDCHAR
STARTCHAR uni1EA5
ENCODING 7845
SWIDTH 504 0
DWIDTH 10 0
BBX 9 16 1 0
BITMAP
000180
000340
03D900
0E7400
040400
000000
1BE400
642C00
001D00
000E00
06BE00
3E4E00
B00E00
E00E00
B46E00
2F8A00
ENDCHAR
STARTCHAR uni1EA6
ENCODING 7846
SWIDTH 544 0
DWIDTH 11 0
BBX 11 18 0 0
BITMAP
140000
1C0000
05B800
024A00
000000
00B800
00EC00
01DD00
028E00
034B00
074740
0B0380
0E02C0
1FFFD0
2C00E0
3800B0
740074
B00038
ENDCHAR
STARTCHAR uni1EA7
ENCODING 7847
SWIDTH 504 0
DWIDTH 10 0
BBX 9 16 0 0
BITMAP
600000
380000
08F400
039D00
010100
000000
06F900
190B00
000740
000380
01AF80
0F9380
2C0380
380380
2D1B80
0BE280
ENDCHAR
STARTCHAR uni1EA8
ENCODING 7848
SWIDTH 544 0
DWIDTH 11 0
BBX 11 19 0 0
BITMAP
000380
000090
000090
00B980
024A00
000000
00B800
00EC00
01DD00
028E00
034B00
074740
0B0380
0E02C0
1FFFD0
2C00E0
3800B0
740074
B00038
ENDCHAR
STARTCHAR uni1EA9
ENCODING 7849
SWIDTH 504 0
DWIDTH 10 0
BBX 9 17 1 0
BITMAP
000E00
000340
000340
03DA00
0E7400
040400
000000
1BE400
642C00
001D00
000E00
06BE00
3E4E00
B00E00
E00E00
B46E00
2F8A00
ENDCHAR
STARTCHAR uni1EAA
ENCODING 7850
SWIDTH 544 0
DWIDTH 11 0
BBX 11 19 0 0
BITMAP
02E240
062E00
000000
00B800
024A00
000000
00B800
00EC00
01DD00
028E00
034B00
074740
0B0380
0E02C0
1FFFD0
2C00E0
3800B0
740074
B00038
ENDCHAR
STARTCHAR uni1EAB
ENCODING 7851
SWIDTH 504 0
DWIDTH 10 0
BBX 8 17 1 0
BITMAP
0A48
19B4
0000
03D0
0E74
0404
0000
1BE4
642C
001D
000E
06BE
3E4E
B00E
E00E
B46E
2F8A
ENDCHAR
STARTCHAR uni1EAC
ENCODING 7852
SWIDTH 544 0
DWIDTH 11 0
BBX 11 21 0 -4
BITMAP
00B800
029E00
060200
000000
00B800
00EC00
01DD00
028E00
034B00
074740
0B0380
0E02C0
1FFFD0
2C00E0
3800B0
740074
B00038
000000
000000
007400
007400
ENDCHAR
STARTCHAR uni1EAD
ENCODING 7853
SWIDTH 504 0
DWIDTH 10 0
BBX 8 18 1 -4
BITMAP
03E0
0E74
2408
0000
1BE4
642C
001D
000E
06BE
3E4E
B00E
E00E
B46E
2F8A
0000
0000
0380
0380
ENDCHAR
STARTCHAR uni1EAE
ENCODING 7854
SWIDTH 544 0
DWIDTH 11 0
BBX 11 19 0 0
BITMAP
000900
002800
062240
034700
01B900
000000
00B800
00EC00
01DD00
028E00
034B00
074740
0B0380
0E02C0
1FFFD0
2C00E0
3800B0
740074
B00038
ENDCHAR
STARTCHAR uni1EAF
ENCODING 7855
SWIDTH 504 0
DWIDTH 10 0
BBX 8 16 1 0
BITMAP
0060
00E0
2589
1D2C
07E0
0000
1BE4
642C
001D
000E
06BE
3E4E
B00E
E00E
B46E
2F8A
ENDCHAR
STARTCHAR uni1EB0
ENCODING 7856
SWIDTH 544 0
DWIDTH 11 0
BBX 11 19 0 0
BITMAP
018000
00D000
066240
034700
01B900
000000
00B800
00EC00
01DD00
028E00
034B00
074740
0B0380
0E02C0
1FFFD0
2C00E0
3800B0
740074
B00038
ENDCHAR
STARTCHAR uni1EB1
ENCODING 7857
SWIDTH 504 0
DWIDTH 10 0
BBX 8 16 1 0
BITMAP
0600
0340
2589
1D2C
07E0
0000
1BE4
642C
001D
000E
06BE
3E4E
B00E
E00E
B46E
2F8A
ENDCHAR
STARTCHAR uni1EB2
ENCODING 7858
SWIDTH 544 0
DWIDTH 11 0
BBX 11 20 0 0
BITMAP
00A400
002800
002800
062240
034700
01B900
000000
00B800
00EC00
01DD00
028E00
034B00
074740
0B0380
0E02C0
1FFFD0
2C00E0
3800B0
740074
B00038
ENDCHAR
STARTCHAR uni1EB3
ENCODING 7859
SWIDTH 504 0
DWIDTH 10 0
BBX 8 17 1 0
BITMAP
0380
00A0
00A0
2589
1D2C
07E0
0000
1BE4
642C
001D
000E
06BE
3E4E
B00E
E00E
B46E
2F8A
ENDCHAR
STARTCHAR uni1EB4
ENCODING 7860
SWIDTH 544 0
DWIDTH 11 0
BBX 11 19 0 0
BITMAP
03E240
062E00
000000
060700
01FD00
000000
00B800
00EC00
01DD00
028E00
034B00
074740
0B0380
0E02C0
1FFFD0
2C00E0
3800B0
740074
B00038
ENDCHAR
STARTCHAR uni1EB5
ENCODING 7861
SWIDTH 504 0
DWIDTH 10 0
BBX 8 16 1 0
BITMAP
0A48
19B8
0000
181C
0BE4
0000
1BE4
642C
001D
000E
06BE
3E4E
B00E
E00E
B46E
2F8A
ENDCHAR
STARTCHAR uni1EB6
ENCODING 7862
SWIDTH 544 0
DWIDTH 11 0
BBX 11 21 0 -4
BITMAP
060240
034700
01B900
000000
00B800
00EC00
01DD00
028E00
034B00
074740
0B0380
0E02C0
1FFFD0
2C00E0
3800B0
740074
B00038
000000
000000
007400
007400
ENDCHAR
STARTCHAR uni1EB7
ENCODING 7863
SWIDTH 504 0
DWIDTH 10 0
BBX 8 18 1 -4
BITMAP
2409
1D2C
0BE0
0000
1BE4
642C
001D
000E
06BE
3E4E
B00E
E00E
B46E
2F8A
0000
0000
0380
0380
ENDCHAR
STARTCHAR uni1EB8
ENCODING 7864
SWIDTH 527 0
DWIDTH 11 0
BBX 9 17 1 -4
BITMAP
7FFF40
740000
740000
740000
740000
740000
7FFD00
740000
740000
740000
740000
740000
7FFF80
000000
000000
00E000
00E000
ENDCHAR
STARTCHAR uni1EB9
ENCODING 7865
SWIDTH 496 0
DWIDTH 10 0
BBX 8 14 1 -4
BITMAP
0BE4
291D
B00B
E007
FFFF
E000
E000
B400
2D05
0BF9
0000
0000
02C0
02D0
ENDCHAR
STARTCHAR uni1EBA
ENCODING 7866
SWIDTH 527 0
DWIDTH 11 0
BBX 9 18 1 0
BITMAP
02D000
007400
007000
00D000
000000
7FFF40
740000
740000
740000
740000
740000
7FFD00
740000
740000
740000
740000
740000
7FFF80
ENDCHAR
STARTCHAR uni1EBB
ENCODING 7867
SWIDTH 496 0
DWIDTH 10 0
BBX 8 15 1 0
BITMAP
0390
00A0
00A0
0180
0000
0BE4
291D
B00B
E007
FFFF
E000
E000
B400
2D05
0BF9
ENDCHAR
STARTCHAR uni1EBC
ENCODING 7868
SWIDTH 527 0
DWIDTH 11 0
BBX 9 16 1 0
BITMAP
1F9300
247D00
000000
7FFF40
740000
740000
740000
740000
740000
7FFD00
740000
740000
740000
740000
740000
7FFF80
ENDCHAR
STARTCHAR uni1EBD
ENCODING 7869
SWIDTH 496 0
DWIDTH 10 0
BBX 8 14 1 0
BITMAP
0501
2A8A
30B8
0000
0BE4
291D
B00B
E007
FFFF
E000
E000
B400
2D05
0BF9
ENDCHAR
STARTCHAR uni1EBE
ENCODING 7870
SWIDTH 527 0
DWIDTH 11 0
BBX 9 18 1 0
BITMAP
000080
000280
02F600
0A1800
000000
7FFF40
740000
740000
740000
740000
740000
7FFD00
740000
740000
740000
740000
740000
7FFF80
ENDCHAR
STARTCHAR uni1EBF
ENCODING 7871
SWIDTH 496 0
DWIDTH 10 0
BBX 9 16 1 0
BITMAP
000180
000340
02D500
0A7400
040400
000000
0BE400
291D00
B00B00
E00700
FFFF00
E00000
E00000
B40000
2D0500
0BF900
ENDCHAR
STARTCHAR uni1EC0
ENCODING 7872
SWIDTH 527 0
DWIDTH 11 0
BBX 9 18 1 0
BITMAP
600000
340000
1AF000
0A1800
000000
7FFF40
740000
740000
740000
740000
740000
7FFD00
740000
740000
740000
740000
740000
7FFF80
ENDCHAR
STARTCHAR uni1EC1
ENCODING 7873
SWIDTH 496 0
DWIDTH 10 0
BBX 9 16 0 0
BITMAP
600000
280000
09B400
029D00
010100
000000
02F900
0A4740
2C02C0
3801C0
3FFFC0
380000
380000
2D0000
0B4140
02FE40
ENDCHAR
STARTCHAR uni1EC2
ENCODING 7874
SWIDTH 527 0
DWIDTH 11 0
BBX 9 19 1 0
BITMAP
000A40
000280
000280
02F640
0A1800
000000
7FFF40
740000
740000
740000
740000
740000
7FFD00
740000
740000
740000
740000
740000
7FFF80
ENDCHAR
STARTCHAR uni1EC3
ENCODING 7875
SWIDTH 496 0
DWIDTH 10 0
BBX 9 17 1 0
BITMAP
000E00
000340
000340
02D600
0A7400
040400
000000
0BE400
291D00
B00B00
E00700
FFFF00
E00000
E00000
B40000
2D0500
0BF900
ENDCHAR
STARTCHAR uni1EC4
ENCODING 7876
SWIDTH 527 0
DWIDTH 11 0
BBX 9 19 1 0
BITMAP
0B8500
087C00
000000
02F000
0A1800
000000
7FFF40
740000
740000
740000
740000
740000
7FFD00
740000
740000
740000
740000
740000
7FFF80
ENDCHAR
STARTCHAR uni1EC5
ENCODING 7877
SWIDTH 496 0
DWIDTH 10 0
BBX 8 17 1 0
BITMAP
0A48
19B8
0000
02D0
0A74
0404
0000
0BE4
291D
B00B
E007
FFFF
E000
E000
B400
2D05
0BF9
ENDCHAR
STARTCHAR uni1EC6
ENCODING 7878
SWIDTH 527 0
DWIDTH 11 0
BBX 9 21 1 -4
BITMAP
02F000
076800
080900
000000
7FFF40
740000
740000
740000
740000
740000
7FFD00
740000
740000
740000
740000
740000
7FFF80
000000
000000
00E000
00E000
ENDCHAR
STARTCHAR uni1EC7
ENCODING 7879
SWIDTH 496 0
DWIDTH 10 0
BBX 8 18 1 -4
BITMAP
03E0
0E78
2408
0000
0BE4
291D
B00B
E007
FFFF
E000
E000
B400
2D05
0BF9
0000
0000
02C0
02C0
ENDCHAR
STARTCHAR uni1EC8
ENCODING 7880
SWIDTH 263 0
DWIDTH 5 0
BBX 3 18 1 0
BITMAP
B4
1C
1C
34
00
74
74
74
74
74
74
74
74
74
74
74
74
74
ENDCHAR
STARTCHAR uni1EC9
ENCODING 7881
SWIDTH 246 0
DWIDTH 5 0
BBX 3 15 1 0
BITMAP
A4
2C
2C
64
00
74
74
74
74
74
74
74
74
74
74
ENDCHAR
STARTCHAR uni1ECA
ENCODING 7882
SWIDTH 263 0
DWIDTH 5 0
BBX 3 17 1 -4
BITMAP
74
74
74
74
74
74
74
74
74
74
74
74
74
00
00
74
74
ENDCHAR
STARTCHAR uni1ECB
ENCODING 7883
SWIDTH 246 0
DWIDTH 5 0
BBX 3 18 1 -4
BITMAP
74
74
00
00
74
74
74
74
74
74
74
74
74
74
00
00
74
74
ENDCHAR
STARTCHAR uni1ECC
ENCODING 7884
SWIDTH 664 0
DWIDTH 13 0
BBX 12 17 1 -4
BITMAP
02FE40
1E42D0
3800B4
740038
B0002C
E0002D
E0002D
E0002D
B0002C
740038
3C00B4
1E42D0
02FE40
000000
000000
007400
007400
ENDCHAR
STARTCHAR uni1ECD
ENCODING 7885
SWIDTH 542 0
DWIDTH 11 0
BBX 9 14 1 -4
BITMAP
0BF400
2D1E00
B40740
E00380
E003C0
E003C0
E00380
B40740
2D1E00
0BF400
000000
000000
01D000
01D000
ENDCHAR
STARTCHAR uni1ECE
ENCODING 7886
SWIDTH 664 0
DWIDTH 13 0
BBX 12 18 1 0
BITMAP
00B400
001C00
001C00
003400
000000
02FE40
1E42D0
3800B4
740038
B0002C
E0002D
E0002D
E0002D
B0002C
740038
3C00B4
1E42D0
02FE40
ENDCHAR
STARTCHAR uni1ECF
ENCODING 7887
SWIDTH 542 0
DWIDTH 11 0
BBX 9 15 1 0
BITMAP
039000
00B000
00B000
019000
000000
0BF400
2D1E00
B40740
E00380
E003C0
E003C0
E00380
B40740
2D1E00
0BF400
ENDCHAR
STARTCHAR uni1ED0
ENCODING 7888
SWIDTH 664 0
DWIDTH 13 0
BBX 12 18 1 0
BITMAP
000020
0000E0
00B980
028600
000000
02FE40
1E42D0
3800B4
740038
B0002C
E0002D
E0002D
E0002D
B0002C
740038
3C00B4
1E42D0
02FE40
ENDCHAR
STARTCHAR uni1ED1
ENCODING 7889
SWIDTH 542 0
DWIDTH 11 0
BBX 9 16 1 0
BITMAP
000180
000340
02E600
0A6800
040400
000000
0BF400
2D1E00
B40740
E00380
E003C0
E003C0
E00380
B40740
2D1E00
0BF400
ENDCHAR
STARTCHAR uni1ED2
ENCODING 7890
SWIDTH 664 0
DWIDTH 13 0
BBX 12 18 1 0
BITMAP
140000
0D0000
06B800
028600
000000
02FE40
1E42D0
3800B4
740038
B0002C
E0002D
E0002D
E0002D
B0002C
740038
3C00B4
1E42D0
02FE40
ENDCHAR
STARTCHAR uni1ED3
ENCODING 7891
SWIDTH 542 0
DWIDTH 11 0
BBX 10 16 0 0
BITMAP
600000
280000
09B800
029A00
010100
000000
02FD00
0B4780
2D01D0
3800E0
3800F0
3800F0
3800E0
2D01D0
0B4780
02FD00
ENDCHAR
STARTCHAR uni1ED4
ENCODING 7892
SWIDTH 664 0
DWIDTH 13 0
BBX 12 19 1 0
BITMAP
000290
0000A0
0000A0
00B980
028600
000000
02FE40
1E42D0
3800B4
740038
B0002C
E0002D
E0002D
E0002D
B0002C
740038
3C00B4
1E42D0
02FE40
ENDCHAR
STARTCHAR uni1ED5
ENCODING 7893
SWIDTH 542 0
DWIDTH 11 0
BBX 9 17 1 0
BITMAP
000E00
000280
000240
02E600
0A6800
040400
000000
0BF400
2D1E00
B40740
E00380
E003C0
E003C0
E00380
B40740
2D1E00
0BF400
ENDCHAR
STARTCHAR uni1ED6
ENCODING 7894
SWIDTH 664 0
DWIDTH 13 0
BBX 12 19 1 0
BITMAP
02E240
022F00
000000
00B800
028600
000000
02FE40
1E42D0
3800B4
740038
B0002C
E0002D
E0002D
E0002D
B0002C
740038
3C00B4
1E42D0
02FE40
ENDCHAR
STARTCHAR uni1ED7
ENCODING 7895
SWIDTH 542 0
DWIDTH 11 0
BBX 9 17 1 0
BITMAP
0A4800
19B800
000000
02E000
0A6800
040400
000000
0BF400
2D1E00
B40740
E00380
E003C0
E003C0
E00380
B40740
2D1E00
0BF400
ENDCHAR
STARTCHAR uni1ED8
ENCODING 7896
SWIDTH 664 0
DWIDTH 13 0
BBX 12 21 1 -4
BITMAP
00BC00
02DA00
020240
000000
02FE40
1E42D0
3800B4
740038
B0002C
E0002D
E0002D
E0002D
B0002C
740038
3C00B4
1E42D0
02FE40
000000
000000
007400
007400
ENDCHAR
STARTCHAR uni1ED9
ENCODING 7897
SWIDTH 542 0
DWIDTH 11 0
BBX 9 18 1 -4
BITMAP
02E000
0A7800
180900
000000
0BF400
2D1E00
B40740
E00380
E003C0
E003C0
E00380
B40740
2D1E00
0BF400
000000
000000
01D000
01D000
ENDCHAR
STARTCHAR uni1EDA
ENCODING 7898
SWIDTH 664 0
DWIDTH 13 0
BBX 12 17 1 0
BITMAP
000600
001E1D
00240D
00001C
02FFE4
1E42E0
3C00B4
74003C
B0002C
F0001D
E0001D
B0001D
B0002C
740038
2C00B4
0E42D0
02FE40
ENDCHAR
STARTCHAR uni1EDB
ENCODING 7899
SWIDTH 542 0
DWIDTH 11 0
BBX 10 15 1 0
BITMAP
001800
007800
00E0D0
0180D0
0001D0
0BFA40
2D1F00
B40740
E00380
E003C0
E003C0
E00380
B40740
2D1E00
0BF400
ENDCHAR
STARTCHAR uni1EDC
ENCODING 7900
SWIDTH 664 0
DWIDTH 13 0
BBX 12 17 1 0
BITMAP
028000
01E01D
00240D
00001C
02FFE4
1E42E0
3C00B4
74003C
B0002C
F0001D
E0001D
B0001D
B0002C
740038
2C00B4
0E42D0
02FE40
ENDCHAR
STARTCHAR uni1EDD
ENCODING 7901
SWIDTH 542 0
DWIDTH 11 0
BBX 10 15 1 0
BITMAP
090000
0F0000
02C0D0
0090D0
0001D0
0BFA40
2D1F00
B40740
E00380
E003C0
E003C0
E00380
B40740
2D1E00
0BF400
ENDCHAR
STARTCHAR uni1EDE
ENCODING 7902
SWIDTH 664 0
DWIDTH 13 0
BBX 12 18 1 0
BITMAP
00B400
001C00
001C1D
00340D
00001C
02FFE4
1E42E0
3C00B4
74003C
B0002C
F0001D
E0001D
B0001D
B0002C
740038
2C00B4
0E42D0
02FE40
ENDCHAR
STARTCHAR uni1EDF
ENCODING 7903
SWIDTH 542 0
DWIDTH 11 0
BBX 10 15 1 0
BITMAP
039000
00B000
00B0D0
0190D0
0001D0
0BFA40
2D1F00
B40740
E00380
E003C0
E003C0
E00380
B40740
2D1E00
0BF400
ENDCHAR
STARTCHAR uni1EE0
ENCODING 7904
SWIDTH 664 0
DWIDTH 13 0
BBX 12 16 1 0
BITMAP
0BE1DD
0D2F4D
00001C
02FFE4
1E42E0
3C00B4
74003C
B0002C
F0001D
E0001D
B0001D
B0002C
740038
2C00B4
0E42D0
02FE40
ENDCHAR
STARTCHAR uni1EE1
ENCODING 7905
SWIDTH 542 0
DWIDTH 11 0
BBX 10 14 1 0
BITMAP
050500
3B8AD0
60B8D0
0001D0
0BFA40
2D1F00
B40740
E00380
E003C0
E003C0
E00380
B40740
2D1E00
0BF400
ENDCHAR
STARTCHAR uni1EE2
ENCODING 7906
SWIDTH 664 0
DWIDTH 13 0
BBX 12 20 1 -4
BITMAP
00001D
00000D
00001C
02FFE4
1E42E0
3C00B4
74003C
B0002C
F0001D
E0001D
B0001D
B0002C
740038
2C00B4
0E42D0
02FE40
000000
000000
007400
007400
ENDCHAR
STARTCHAR uni1EE3
ENCODING 7907
SWIDTH 542 0
DWIDTH 11 0
BBX 10 17 1 -4
BITMAP
0000D0
0000D0
0001D0
0BFA40
2D1F00
B40740
E00380
E003C0
E003C0
E00380
B40740
2D1E00
0BF400
000000
000000
01D000
01D000
ENDCHAR
STARTCHAR uni1EE4
ENCODING 7908
SWIDTH 645 0
DWIDTH 13 0
BBX 10 17 1 -4
BITMAP
740070
740070
740070
740070
740070
740070
740070
740070
740070
3800B0
2C00E0
1E46C0
02FE00
000000
000000
007400
007400
ENDCHAR
STARTCHAR uni1EE5
ENCODING 7909
SWIDTH 544 0
DWIDTH 11 0
BBX 9 14 1 -4
BITMAP
B00740
B00740
B00740
B00740
B00740
B00740
740740
740B40
382B40
1B9340
000000
000000
00E000
00E000
ENDCHAR
STARTCHAR uni1EE6
ENCODING 7910
SWIDTH 645 0
DWIDTH 13 0
BBX 10 18 1 0
BITMAP
00A400
002C00
002C00
006400
000000
740070
740070
740070
740070
740070
740070
740070
740070
740070
3800B0
2C00E0
1E46C0
02FE00
ENDCHAR
STARTCHAR uni1EE7
ENCODING 7911
SWIDTH 544 0
DWIDTH 11 0
BBX 9 15 1 0
BITMAP
029000
00B000
00B000
019000
000000
B00740
B00740
B00740
B00740
B00740
B00740
740740
740B40
382B40
1B9340
ENDCHAR
STARTCHAR uni1EE8
ENCODING 7912
SWIDTH 659 0
DWIDTH 13 0
BBX 13 17 1 0
BITMAP
00060000
002D0340
00600340
00000B00
74007D00
74007000
74007000
74007000
74007000
74007000
74007000
74007000
74007000
3800B000
2C00E000
1E46C000
02FE0000
ENDCHAR
STARTCHAR uni1EE9
ENCODING 7913
SWIDTH 544 0
DWIDTH 11 0
BBX 10 15 1 0
BITMAP
001800
007810
01E070
018070
0000A0
B00780
B00740
B00740
B00740
B00740
B00740
740740
740B40
382B40
1BD740
ENDCHAR
STARTCHAR uni1EEA
ENCODING 7914
SWIDTH 659 0
DWIDTH 13 0
BBX 13 17 1 0
BITMAP
02400000
01E00340
00640340
00000B00
74007D00
74007000
74007000
74007000
74007000
74007000
74007000
74007000
74007000
3800B000
2C00E000
1E46C000
02FE0000
ENDCHAR
STARTCHAR uni1EEB
ENCODING 7915
SWIDTH 544 0
DWIDTH 11 0
BBX 10 15 1 0
BITMAP
080000
1F0010
038070
008070
0000A0
B00780
B00740
B00740
B00740
B00740
B00740
740740
740B40
382B40
1BD740
ENDCHAR
STARTCHAR uni1EEC
ENCODING 7916
SWIDTH 659 0
DWIDTH 13 0
BBX 13 18 1 0
BITMAP
00A40000
002C0000
002C0340
00640340
00000B00
74007D00
74007000
74007000
74007000
74007000
74007000
74007000
74007000
74007000
3800B000
2C00E000
1E46C000
02FE0000
ENDCHAR
STARTCHAR uni1EED
ENCODING 7917
SWIDTH 544 0
DWIDTH 11 0
BBX 10 15 1 0
BITMAP
039000
00A010
00A070
018070
0000A0
B00780
B00740
B00740
B00740
B00740
B00740
740740
740B40
382B40
1BD740
ENDCHAR
STARTCHAR uni1EEE
ENCODING 7918
SWIDTH 659 0
DWIDTH 13 0
BBX 13 16 1 0
BITMAP
0BE1C340
0D2F4340
00000B00
74007D00
74007000
74007000
74007000
74007000
74007000
74007000
74007000
74007000
3800B000
2C00E000
1E46C000
02FE0000
ENDCHAR
STARTCHAR uni1EEF
ENCODING 7919
SWIDTH 544 0
DWIDTH 11 0
BBX 10 14 1 0
BITMAP
050110
2A8A70
30B870
0000A0
B00780
B00740
B00740
B00740
B00740
B00740
740740
740B40
382B40
1BD740
ENDCHAR
STARTCHAR uni1EF0
ENCODING 7920
SWIDTH 659 0
DWIDTH 13 0
BBX 13 20 1 -4
BITMAP
00000340
00000340
00000B00
74007D00
74007000
74007000
74007000
74007000
74007000
74007000
74007000
74007000
3800B000
2C00E000
1E46C000
02FE0000
00000000
00000000
00740000
00740000
ENDCHAR
STARTCHAR uni1EF1
ENCODING 7921
SWIDTH 544 0
DWIDTH 11 0
BBX 10 18 1 -4
BITMAP
000010
000070
000070
0000A0
B00780
B00740
B00740
B00740
B00740
B00740
740740
740B40
382B40
1BD740
000000
000000
01E000
01E000
ENDCHAR
STARTCHAR Ygrave
ENCODING 7922
SWIDTH 476 0
DWIDTH 10 0
BBX 10 17 0 0
BITMAP
060000
078000
00A000
000000
B001D0
740380
2C0740
1D0A00
0A1D00
076800
02F400
01E000
00E000
00E000
00E000
00E000
00E000
ENDCHAR
STARTCHAR ygrave
ENCODING 7923
SWIDTH 467 0
DWIDTH 9 0
BBX 9 19 0 -4
BITMAP
060000
0B4000
01D000
006000
000000
B002C0
740380
2C0740
1D0B00
0E0E00
0B1D00
076C00
02B800
01F000
00E000
00D000
01C000
074000
7D0000
ENDCHAR
STARTCHAR uni1EF4
ENCODING 7924
SWIDTH 476 0
DWIDTH 10 0
BBX 10 17 0 -4
BITMAP
B001D0
740380
2C0740
1D0A00
0A1D00
076800
02F400
01E000
00E000
00E000
00E000
00E000
00E000
000000
000000
00E000
00E000
ENDCHAR
STARTCHAR uni1EF5
ENCODING 7925
SWIDTH 467 0
DWIDTH 9 0
BBX 9 14 0 -4
BITMAP
B002C0
740380
2C0740
1D0B00
0E0E00
0B1D00
076C00
02B800
01F000
00E000
00D000
01C000
074380
7D0380
ENDCHAR
STARTCHAR uni1EF6
ENCODING 7926
SWIDTH 476 0
DWIDTH 10 0
BBX 10 18 0 0
BITMAP
01D000
007400
007400
00D000
000000
B001D0
740380
2C0740
1D0A00
0A1D00
076800
02F400
01E000
00E000
00E000
00E000
00E000
00E000
ENDCHAR
STARTCHAR uni1EF7
ENCODING 7927
SWIDTH 467 0
DWIDTH 9 0
BBX 9 19 0 -4
BITMAP
01E000
007400
007400
009000
000000
B002C0
740380
2C0740
1D0B00
0E0E00
0B1D00
076C00
02B800
01F000
00E000
00D000
01C000
074000
7D0000
ENDCHAR
STARTCHAR uni1EF8
ENCODING 7928
SWIDTH 476 0
DWIDTH 10 0
BBX 10 16 0 0
BITMAP
1FD340
247E00
000000
B001D0
740380
2C0740
1D0A00
0A1D00
076800
02F400
01E000
00E000
00E000
00E000
00E000
00E000
ENDCHAR
STARTCHAR uni1EF9
ENCODING 7929
SWIDTH 467 0
DWIDTH 9 0
BBX 9 18 0 -4
BITMAP
050100
1ED300
186E00
000000
B002C0
740380
2C0740
1D0B00
0E0E00
0B1D00
076C00
02B800
01F000
00E000
00D000
01C000
074000
7D0000
ENDCHAR
STARTCHAR uni1F00
ENCODING 7936
SWIDTH 560 0
DWIDTH 11 0
BBX 10 15 1 0
BITMAP
02D000
007000
007000
00D000
000000
0BE1C0
2D1AC0
B40B80
F00780
E00740
E00740
E00700
B00B00
782B40
1BD2E0
ENDCHAR
STARTCHAR uni1F01
ENCODING 7937
SWIDTH 560 0
DWIDTH 11 0
BBX 10 15 1 0
BITMAP
01B000
028000
028000
005000
000000
0BE1C0
2D1AC0
B40B80
F00780
E00740
E00740
E00700
B00B00
782B40
1BD2E0
ENDCHAR
STARTCHAR uni1F02
ENCODING 7938
SWIDTH 560 0
DWIDTH 11 0
BBX 10 15 1 0
BITMAP
1D3400
073800
072800
091800
000000
0BE1C0
2D1AC0
B40B80
F00780
E00740
E00740
E00700
B00B00
782B40
1BD2E0
ENDCHAR
STARTCHAR uni1F03
ENCODING 7939
SWIDTH 560 0
DWIDTH 11 0
BBX 10 15 1 0
BITMAP
0B7400
183400
182800
091800
000000
0BE1C0
2D1AC0
B40B80
F00780
E00740
E00740
E00700
B00B00
782B40
1BD2E0
ENDCHAR
STARTCHAR uni1F04
ENCODING 7940
SWIDTH 560 0
DWIDTH 11 0
BBX 10 15 1 0
BITMAP
1D1C00
072800
072400
093000
000000
0BE1C0
2D1AC0
B40B80
F00780
E00740
E00740
E00700
B00B00
782B40
1BD2E0
ENDCHAR
STARTCHAR uni1F05
ENCODING 7941
SWIDTH 560 0
DWIDTH 11 0
BBX 10 15 1 0
BITMAP
0B5800
1D2800
1C3400
063000
000000
0BE1C0
2D1AC0
B40B80
F00780
E00740
E00740
E00700
B00B00
782B40
1BD2E0
ENDCHAR
STARTCHAR uni1F06
ENCODING 7942
SWIDTH 560 0
DWIDTH 11 0
BBX 10 17 1 0
BITMAP
068900
0DBC00
000000
01D000
007000
009000
000000
0BE1C0
2D1AC0
B40B80
F00780
E00740
E00740
E00700
B00B00
782B40
1BD2E0
ENDCHAR
STARTCHAR uni1F07
ENCODING 7943
SWIDTH 560 0
DWIDTH 11 0
BBX 10 17 1 0
BITMAP
068900
0DBC00
000000
01A000
028000
009000
000000
0BE1C0
2D1AC0
B40B80
F00780
E00740
E00740
E00700
B00B00
782B40
1BD2E0
ENDCHAR
STARTCHAR uni1F08
ENCODING 7944
SWIDTH 580 0
DWIDTH 12 0
BBX 12 13 0 0
BITMAP
E03D00
287E00
28AB00
60E740
01D380
02C2C0
0381D0
0740E0
0BFFF0
0E0074
1D0038
2C002C
38001D
ENDCHAR
STARTCHAR uni1F09
ENCODING 7945
SWIDTH 573 0
DWIDTH 11 0
BBX 13 13 -1 0
BITMAP
1E0F0000
741F4000
302A8000
1C35C000
0070D000
00A0A000
00D07400
01C07800
02FFFC00
03401D00
0B000E00
0E000F00
1E000B40
ENDCHAR
STARTCHAR uni1F0A
ENCODING 7946
SWIDTH 714 0
DWIDTH 14 0
BBX 14 13 0 0
BITMAP
D281F000
7682F400
35C37800
A0C76C00
000B1D00
000E0E00
001D0B00
002C0740
003FFF80
007402C0
00B001D0
00E000E0
01D000B0
ENDCHAR
STARTCHAR uni1F0B
ENCODING 7947
SWIDTH 710 0
DWIDTH 14 0
BBX 14 13 0 0
BITMAP
7681F000
D282B400
C1837800
61C72C00
000A1D00
000D0E00
001D0B00
002C0740
003FFF80
007402C0
00B001D0
00E000E0
01D000B0
ENDCHAR
STARTCHAR uni1F0C
ENCODING 7948
SWIDTH 709 0
DWIDTH 14 0
BBX 14 13 0 0
BITMAP
D1C1F000
7682B400
36837800
A3472C00
000A1D00
000D0E00
001D0B00
002C0740
003FFF80
007402C0
00B001D0
00E000E0
01D000B0
ENDCHAR
STARTCHAR uni1F0D
ENCODING 7949
SWIDTH 705 0
DWIDTH 14 0
BBX 14 13 0 0
BITMAP
7681E000
D282B000
C3437400
63472800
000A1C00
000D0D00
001C0E00
00280B00
007FFF80
00B002C0
00E002D0
01D001E0
02C000F0
ENDCHAR
STARTCHAR uni1F0E
ENCODING 7950
SWIDTH 613 0
DWIDTH 12 0
BBX 13 13 -1 0
BITMAP
7FC7C000
000AD000
1E0DE000
071CB000
092C7400
00383800
00742C00
00B01D00
00FFFE00
01D00B00
02C00740
03800380
074002C0
ENDCHAR
STARTCHAR uni1F0F
ENCODING 7951
SWIDTH 613 0
DWIDTH 12 0
BBX 13 13 -1 0
BITMAP
7FC7C000
000AD000
0B0DE000
1C1CB000
092C7400
00383800
00742C00
00B01D00
00FFFE00
01D00B00
02C00740
03800380
074002C0
ENDCHAR
STARTCHAR uni1F10
ENCODING 7952
SWIDTH 448 0
DWIDTH 9 0
BBX 8 15 1 0
BITMAP
0780
01D0
01D0
0280
0000
1BE4
7818
B000
7800
2FD0
B400
E000
E000
B419
1BF8
ENDCHAR
STARTCHAR uni1F11
ENCODING 7953
SWIDTH 448 0
DWIDTH 9 0
BBX 8 15 1 0
BITMAP
02D0
0A00
0740
0140
0000
1BE4
7818
B000
7800
2FD0
B400
E000
E000
B419
1BF8
ENDCHAR
STARTCHAR uni1F12
ENCODING 7954
SWIDTH 448 0
DWIDTH 9 0
BBX 8 15 1 0
BITMAP
38A0
0DA0
0D70
2830
0000
1BE4
7818
B000
7800
2FD0
B400
E000
E000
B419
1BF8
ENDCHAR
STARTCHAR uni1F13
ENCODING 7955
SWIDTH 448 0
DWIDTH 9 0
BBX 8 15 1 0
BITMAP
1DD0
74A0
7470
1830
0000
1BE4
7818
B000
7800
2FD0
B400
E000
E000
B419
1BF8
ENDCHAR
STARTCHAR uni1F14
ENCODING 7956
SWIDTH 448 0
DWIDTH 9 0
BBX 8 15 1 0
BITMAP
3834
0D70
0DA0
2890
0000
1BE4
7818
B000
7800
2FD0
B400
E000
E000
B419
1BF8
ENDCHAR
STARTCHAR uni1F15
ENCODING 7957
SWIDTH 448 0
DWIDTH 9 0
BBX 8 15 1 0
BITMAP
1E74
3470
34A0
1890
0000
1BE4
7818
B000
7800
2FD0
B400
E000
E000
B419
1BF8
ENDCHAR
STARTCHAR uni1F18
ENCODING 7960
SWIDTH 645 0
DWIDTH 13 0
BBX 12 13 0 0
BITMAP
E0FFFE
28E000
28E000
A0E000
00E000
00E000
00FFF8
00E000
00E000
00E000
00E000
00E000
00FFFF
ENDCHAR
STARTCHAR uni1F19
ENCODING 7961
SWIDTH 645 0
DWIDTH 13 0
BBX 13 13 -1 0
BITMAP
1E3FFF80
74380000
30380000
1C380000
00380000
00380000
003FFE00
00380000
00380000
00380000
00380000
00380000
003FFFC0
ENDCHAR
STARTCHAR uni1F1A
ENCODING 7962
SWIDTH 764 0
DWIDTH 15 0
BBX 15 13 0 0
BITMAP
D287FFF0
76874000
35C74000
A0C74000
00074000
00074000
0007FFD0
00074000
00074000
00074000
00074000
00074000
0007FFF4
ENDCHAR
STARTCHAR uni1F1B
ENCODING 7963
SWIDTH 761 0
DWIDTH 15 0
BBX 15 13 0 0
BITMAP
768BFFF0
D28B0000
C18B0000
61CB0000
000B0000
000B0000
000BFFC0
000B0000
000B0000
000B0000
000B0000
000B0000
000BFFF4
ENDCHAR
STARTCHAR uni1F1C
ENCODING 7964
SWIDTH 760 0
DWIDTH 15 0
BBX 15 13 0 0
BITMAP
D1CBFFF0
768B0000
368B0000
A34B0000
000B0000
000B0000
000BFFC0
000B0000
000B0000
000B0000
000B0000
000B0000
000BFFF4
ENDCHAR
STARTCHAR uni1F1D
ENCODING 7965
SWIDTH 756 0
DWIDTH 15 0
BBX 14 13 0 0
BITMAP
768BFFF0
D28B0000
C34B0000
634B0000
000B0000
000B0000
000BFFC0
000B0000
000B0000
000B0000
000B0000
000B0000
000BFFF0
ENDCHAR
STARTCHAR uni1F20
ENCODING 7968
SWIDTH 541 0
DWIDTH 11 0
BBX 9 18 1 -3
BITMAP
02D000
007400
007400
009000
000000
71BD00
760B00
780740
740740
740740
740740
740740
740740
740740
740740
000740
000740
000740
ENDCHAR
STARTCHAR uni1F21
ENCODING 7969
SWIDTH 541 0
DWIDTH 11 0
BBX 9 18 1 -3
BITMAP
00B000
028000
028000
005000
000000
71BD00
760B00
780740
740740
740740
740740
740740
740740
740740
740740
000740
000740
000740
ENDCHAR
STARTCHAR uni1F22
ENCODING 7970
SWIDTH 541 0
DWIDTH 11 0
BBX 9 18 1 -3
BITMAP
1E3400
076800
075800
090C00
000000
71BD00
760B00
780740
740740
740740
740740
740740
740740
740740
740740
000740
000740
000740
ENDCHAR
STARTCHAR uni1F23
ENCODING 7971
SWIDTH 541 0
DWIDTH 11 0
BBX 9 18 1 -3
BITMAP
0B7400
1C3400
1C2800
0A1800
000000
71BD00
760B00
780740
740740
740740
740740
740740
740740
740740
740740
000740
000740
000740
ENDCHAR
STARTCHAR uni1F24
ENCODING 7972
SWIDTH 541 0
DWIDTH 11 0
BBX 9 18 1 -3
BITMAP
1E1D00
075C00
076800
092400
000000
71BD00
760B00
780740
740740
740740
740740
740740
740740
740740
740740
000740
000740
000740
ENDCHAR
STARTCHAR uni1F25
ENCODING 7973
SWIDTH 541 0
DWIDTH 11 0
BBX 9 18 1 -3
BITMAP
075C00
0D2800
0D2400
063000
000000
71BD00
760B00
780740
740740
740740
740740
740740
740740
740740
740740
000740
000740
000740
ENDCHAR
STARTCHAR uni1F26
ENCODING 7974
SWIDTH 541 0
DWIDTH 11 0
BBX 9 20 1 -3
BITMAP
068500
0D7D00
000000
01E000
007000
009000
000000
71BD00
760B00
780740
740740
740740
740740
740740
740740
740740
740740
000740
000740
000740
ENDCHAR
STARTCHAR uni1F27
ENCODING 7975
SWIDTH 541 0
DWIDTH 11 0
BBX 9 20 1 -3
BITMAP
068500
0D7D00
000000
00B000
01C000
009000
000000
71BD00
760B00
780740
740740
740740
740740
740740
740740
740740
740740
000740
000740
000740
ENDCHAR
STARTCHAR uni1F28
ENCODING 7976
SWIDTH 770 0
DWIDTH 15 0
BBX 14 13 0 0
BITMAP
E0E000E0
28E000E0
28E000E0
A0E000E0
00E000E0
00E000E0
00FFFFE0
00E000E0
00E000E0
00E000E0
00E000E0
00E000E0
00E000E0
ENDCHAR
STARTCHAR uni1F29
ENCODING 7977
SWIDTH 770 0
DWIDTH 15 0
BBX 15 13 -1 0
BITMAP
1E380038
74380038
30380038
1C380038
00380038
00380038
003FFFF8
00380038
00380038
00380038
00380038
00380038
00380038
ENDCHAR
STARTCHAR uni1F2A
ENCODING 7978
SWIDTH 889 0
DWIDTH 18 0
BBX 16 13 0 0
BITMAP
D287400B
7687400B
35C7400B
A0C7400B
0007400B
0007400B
0007FFFF
0007400B
0007400B
0007400B
0007400B
0007400B
0007400B
ENDCHAR
STARTCHAR uni1F2B
ENCODING 7979
SWIDTH 885 0
DWIDTH 18 0
BBX 16 13 0 0
BITMAP
768B000B
D28B000B
C18B000B
61CB000B
000B000B
000B000B
000BFFFF
000B000B
000B000B
000B000B
000B000B
000B000B
000B000B
ENDCHAR
STARTCHAR uni1F2C
ENCODING 7980
SWIDTH 885 0
DWIDTH 18 0
BBX 16 13 0 0
BITMAP
D1CB000B
768B000B
368B000B
A34B000B
000B000B
000B000B
000BFFFF
000B000B
000B000B
000B000B
000B000B
000B000B
000B000B
ENDCHAR
STARTCHAR uni1F2D
ENCODING 7981
SWIDTH 881 0
DWIDTH 18 0
BBX 16 13 0 0
BITMAP
768B000E
D28B000E
C34B000E
634B000E
000B000E
000B000E
000BFFFE
000B000E
000B000E
000B000E
000B000E
000B000E
000B000E
ENDCHAR
STARTCHAR uni1F2E
ENCODING 7982
SWIDTH 840 0
DWIDTH 17 0
BBX 16 13 -1 0
BITMAP
7FC7400B
0007400B
1E07400B
0707400B
0907400B
0007400B
0007FFFF
0007400B
0007400B
0007400B
0007400B
0007400B
0007400B
ENDCHAR
STARTCHAR uni1F2F
ENCODING 7983
SWIDTH 840 0
DWIDTH 17 0
BBX 16 13 -1 0
BITMAP
7FC7400B
0007400B
0B07400B
1C07400B
0907400B
0007400B
0007FFFF
0007400B
0007400B
0007400B
0007400B
0007400B
0007400B
ENDCHAR
STARTCHAR uni1F30
ENCODING 7984
SWIDTH 262 0
DWIDTH 5 0
BBX 4 15 1 0
BITMAP
A4
2C
2C
64
00
74
74
74
74
74
74
74
74
74
2E
ENDCHAR
STARTCHAR uni1F31
ENCODING 7985
SWIDTH 262 0
DWIDTH 5 0
BBX 4 15 1 0
BITMAP
68
D0
E0
10
00
74
74
74
74
74
74
74
74
74
2E
ENDCHAR
STARTCHAR uni1F32
ENCODING 7986
SWIDTH 262 0
DWIDTH 5 0
BBX 6 15 -1 0
BITMAP
A5C0
1CD0
1CA0
2460
0000
0740
0740
0740
0740
0740
0740
0740
0740
0740
02E0
ENDCHAR
STARTCHAR uni1F33
ENCODING 7987
SWIDTH 262 0
DWIDTH 5 0
BBX 6 15 -1 0
BITMAP
29C0
A1D0
A0D0
2450
0000
0740
0740
0740
0740
0740
0740
0740
0740
0740
02E0
ENDCHAR
STARTCHAR uni1F34
ENCODING 7988
SWIDTH 262 0
DWIDTH 5 0
BBX 6 15 -1 0
BITMAP
A4A0
1CA0
1CD0
24C0
0000
0740
0740
0740
0740
0740
0740
0740
0740
0740
02E0
ENDCHAR
STARTCHAR uni1F35
ENCODING 7989
SWIDTH 262 0
DWIDTH 5 0
BBX 6 15 -1 0
BITMAP
2CA0
60D0
60C0
2580
0000
0740
0740
0740
0740
0740
0740
0740
0740
0740
02E0
ENDCHAR
STARTCHAR uni1F36
ENCODING 7990
SWIDTH 262 0
DWIDTH 5 0
BBX 7 17 -1 0
BITMAP
2924
66E0
0000
0B40
0280
0240
0000
0740
0740
0740
0740
0740
0740
0740
0740
0740
02E0
ENDCHAR
STARTCHAR uni1F37
ENCODING 7991
SWIDTH 262 0
DWIDTH 5 0
BBX 7 17 -1 0
BITMAP
2924
66E0
0000
0780
0A00
0600
0000
0740
0740
0740
0740
0740
0740
0740
0740
0740
02E0
ENDCHAR
STARTCHAR uni1F38
ENCODING 7992
SWIDTH 381 0
DWIDTH 8 0
BBX 6 13 0 0
BITMAP
E0E0
28E0
28E0
A0E0
00E0
00E0
00E0
00E0
00E0
00E0
00E0
00E0
00E0
ENDCHAR
STARTCHAR uni1F39
ENCODING 7993
SWIDTH 381 0
DWIDTH 8 0
BBX 7 13 -1 0
BITMAP
1E38
7438
3038
1C38
0038
0038
0038
0038
0038
0038
0038
0038
0038
ENDCHAR
STARTCHAR uni1F3A
ENCODING 7994
SWIDTH 500 0
DWIDTH 10 0
BBX 9 13 0 0
BITMAP
D28740
768740
35C740
A0C740
000740
000740
000740
000740
000740
000740
000740
000740
000740
ENDCHAR
STARTCHAR uni1F3B
ENCODING 7995
SWIDTH 497 0
DWIDTH 10 0
BBX 8 13 0 0
BITMAP
768B
D28B
C18B
61CB
000B
000B
000B
000B
000B
000B
000B
000B
000B
ENDCHAR
STARTCHAR uni1F3C
ENCODING 7996
SWIDTH 496 0
DWIDTH 10 0
BBX 8 13 0 0
BITMAP
D1CB
768B
368B
A34B
000B
000B
000B
000B
000B
000B
000B
000B
000B
ENDCHAR
STARTCHAR uni1F3D
ENCODING 7997
SWIDTH 492 0
DWIDTH 10 0
BBX 8 13 0 0
BITMAP
768B
D28B
C34B
634B
000B
000B
000B
000B
000B
000B
000B
000B
000B
ENDCHAR
STARTCHAR uni1F3E
ENCODING 7998
SWIDTH 451 0
DWIDTH 9 0
BBX 9 13 -1 0
BITMAP
7FC740
000740
1E0740
070740
090740
000740
000740
000740
000740
000740
000740
000740
000740
ENDCHAR
STARTCHAR uni1F3F
ENCODING 7999
SWIDTH 451 0
DWIDTH 9 0
BBX 9 13 -1 0
BITMAP
7FC740
000740
0B0740
1C0740
090740
000740
000740
000740
000740
000740
000740
000740
000740
ENDCHAR
STARTCHAR uni1F40
ENCODING 8000
SWIDTH 535 0
DWIDTH 11 0
BBX 9 15 1 0
BITMAP
039000
00B000
00A000
019000
000000
0BE400
391E00
B40740
E00380
E00380
E00380
E00380
B00740
391E00
0BF400
ENDCHAR
STARTCHAR uni1F41
ENCODING 8001
SWIDTH 535 0
DWIDTH 11 0
BBX 9 15 1 0
BITMAP
01E000
034000
034000
008000
000000
0BE400
391E00
B40740
E00380
E00380
E00380
E00380
B00740
391E00
0BF400
ENDCHAR
STARTCHAR uni1F42
ENCODING 8002
SWIDTH 535 0
DWIDTH 11 0
BBX 9 15 1 0
BITMAP
297000
0A7400
0A3400
092800
000000
0BE400
391E00
B40740
E00380
E00380
E00380
E00380
B00740
391E00
0BF400
ENDCHAR
STARTCHAR uni1F43
ENCODING 8003
SWIDTH 535 0
DWIDTH 11 0
BBX 9 15 1 0
BITMAP
1A6000
287000
283400
182400
000000
0BE400
391E00
B40740
E00380
E00380
E00380
E00380
B00740
391E00
0BF400
ENDCHAR
STARTCHAR uni1F44
ENCODING 8004
SWIDTH 535 0
DWIDTH 11 0
BBX 9 15 1 0
BITMAP
292800
0A3400
0A3000
096000
000000
0BE400
391E00
B40740
E00380
E00380
E00380
E00380
B00740
391E00
0BF400
ENDCHAR
STARTCHAR uni1F45
ENCODING 8005
SWIDTH 535 0
DWIDTH 11 0
BBX 9 15 1 0
BITMAP
0B2800
283400
287000
096000
000000
0BE400
391E00
B40740
E00380
E00380
E00380
E00380
B00740
391E00
0BF400
ENDCHAR
STARTCHAR uni1F48
ENCODING 8008
SWIDTH 761 0
DWIDTH 15 0
BBX 15 13 0 0
BITMAP
E00BF900
28790B40
28E002D0
A1D000E0
02C000B0
038000B0
038000B4
038000B0
02C000B0
01D000E0
00E002C0
00790B40
000BF900
ENDCHAR
STARTCHAR uni1F49
ENCODING 8009
SWIDTH 747 0
DWIDTH 15 0
BBX 15 13 -1 0
BITMAP
1E06FE00
741E06D0
307400F0
1CB00074
00E00038
01D0003C
01D0003C
01D0003C
00E00038
00B00074
007800E0
001E06C0
0006FE00
ENDCHAR
STARTCHAR uni1F4A
ENCODING 8010
SWIDTH 884 0
DWIDTH 18 0
BBX 17 13 0 0
BITMAP
D2806F9000
7682D07800
35C7400E00
A0CE000B40
001D000780
001D000380
001D000380
001D000380
001E000780
000E000B40
0007400E00
0002D07800
00006F9000
ENDCHAR
STARTCHAR uni1F4B
ENCODING 8011
SWIDTH 886 0
DWIDTH 18 0
BBX 17 13 0 0
BITMAP
76806F9000
D282D07800
C18B401E00
61CE000B00
001D000740
001D000380
001D000380
001D000380
001D000740
000E000B00
0007401E00
0002D07800
00006F9000
ENDCHAR
STARTCHAR uni1F4C
ENCODING 8012
SWIDTH 880 0
DWIDTH 18 0
BBX 17 13 0 0
BITMAP
D1C06F9000
7682D07800
368B401E00
A34E000B00
001D000740
002C000780
002C000780
002C000740
001D000740
000E000B00
000B401E00
0002D07800
00006F9000
ENDCHAR
STARTCHAR uni1F4D
ENCODING 8013
SWIDTH 876 0
DWIDTH 18 0
BBX 17 13 0 0
BITMAP
76806F9000
D282D07800
C34B001D00
635E000B00
001D000740
002C000740
002C000740
002C000740
001D000740
001E000B00
000B001D00
0002D07800
00006F9000
ENDCHAR
STARTCHAR uni1F50
ENCODING 8016
SWIDTH 510 0
DWIDTH 10 0
BBX 8 15 1 0
BITMAP
0780
01D0
01D0
0280
0000
B01D
B00E
B00B
B00B
B00B
B00B
B00B
B00E
382C
1BE4
ENDCHAR
STARTCHAR uni1F51
ENCODING 8017
SWIDTH 510 0
DWIDTH 10 0
BBX 8 15 1 0
BITMAP
02D0
0A00
0640
0140
0000
B01D
B00E
B00B
B00B
B00B
B00B
B00B
B00E
382C
1BE4
ENDCHAR
STARTCHAR uni1F52
ENCODING 8018
SWIDTH 510 0
DWIDTH 10 0
BBX 8 15 1 0
BITMAP
7890
1DA0
0D70
2830
0000
B01D
B00E
B00B
B00B
B00B
B00B
B00B
B00E
382C
1BE4
ENDCHAR
STARTCHAR uni1F53
ENCODING 8019
SWIDTH 510 0
DWIDTH 10 0
BBX 8 15 1 0
BITMAP
2DD0
74A0
7060
2830
0000
B01D
B00E
B00B
B00B
B00B
B00B
B00B
B00E
382C
1BE4
ENDCHAR
STARTCHAR uni1F54
ENCODING 8020
SWIDTH 510 0
DWIDTH 10 0
BBX 8 15 1 0
BITMAP
7834
1D70
0DA0
2890
0000
B01D
B00E
B00B
B00B
B00B
B00B
B00B
B00E
382C
1BE4
ENDCHAR
STARTCHAR uni1F55
ENCODING 8021
SWIDTH 510 0
DWIDTH 10 0
BBX 8 15 1 0
BITMAP
1D70
34B0
34A0
18C0
0000
B01D
B00E
B00B
B00B
B00B
B00B
B00B
B00E
382C
1BE4
ENDCHAR
STARTCHAR uni1F56
ENCODING 8022
SWIDTH 510 0
DWIDTH 10 0
BBX 8 17 1 0
BITMAP
1A54
25F4
0000
0780
01C0
0240
0000
B01D
B00E
B00B
B00B
B00B
B00B
B00B
B00E
382C
1BE4
ENDCHAR
STARTCHAR uni1F57
ENCODING 8023
SWIDTH 510 0
DWIDTH 10 0
BBX 8 17 1 0
BITMAP
1A54
25F4
0000
02C0
0700
0240
0000
B01D
B00E
B00B
B00B
B00B
B00B
B00B
B00E
382C
1BE4
ENDCHAR
STARTCHAR uni1F59
ENCODING 8025
SWIDTH 645 0
DWIDTH 13 0
BBX 14 13 -1 0
BITMAP
1E7400E0
743802D0
301D0380
1C0E0740
00074E00
00039D00
0001F800
0000F400
0000B000
0000B000
0000B000
0000B000
0000B000
ENDCHAR
STARTCHAR uni1F5B
ENCODING 8027
SWIDTH 769 0
DWIDTH 15 0
BBX 16 13 0 0
BITMAP
768F002D
D2874038
C1838074
61C1D0E0
0000E1D0
00007380
00003F40
00001E00
00001D00
00001D00
00001D00
00001D00
00001D00
ENDCHAR
STARTCHAR uni1F5D
ENCODING 8029
SWIDTH 765 0
DWIDTH 15 0
BBX 15 13 0 0
BITMAP
768E002C
D2874038
C34380B0
6342C0E0
0000E1C0
0000B380
00003F00
00002E00
00001D00
00001D00
00001D00
00001D00
00001D00
ENDCHAR
STARTCHAR uni1F5F
ENCODING 8031
SWIDTH 718 0
DWIDTH 14 0
BBX 15 13 -1 0
BITMAP
7FCF002C
00074038
0B0380B0
1C01D0E0
0900E1C0
00007380
00003F40
00001E00
00001D00
00001D00
00001D00
00001D00
00001D00
ENDCHAR
STARTCHAR uni1F60
ENCODING 8032
SWIDTH 701 0
DWIDTH 14 0
BBX 12 15 1 0
BITMAP
007800
000D00
000D00
002800
000000
180028
3C002C
74001E
B0000E
E0380B
E0280B
E0280B
B03C0E
74692D
1F82F4
ENDCHAR
STARTCHAR uni1F61
ENCODING 8033
SWIDTH 701 0
DWIDTH 14 0
BBX 12 15 1 0
BITMAP
002D00
00B000
007400
001400
000000
180028
3C002C
74001E
B0000E
E0380B
E0280B
E0280B
B03C0E
74692D
1F82F4
ENDCHAR
STARTCHAR uni1F62
ENCODING 8034
SWIDTH 701 0
DWIDTH 14 0
BBX 12 15 1 0
BITMAP
038A00
00DA00
00D700
018240
000000
180028
3C002C
74001E
B0000E
E0380B
E0280B
E0280B
B03C0E
74692D
1F82F4
ENDCHAR
STARTCHAR uni1F63
ENCODING 8035
SWIDTH 701 0
DWIDTH 14 0
BBX 12 15 1 0
BITMAP
01D900
034A00
034700
018300
000000
180028
3C002C
74001E
B0000E
E0380B
E0280B
E0280B
B03C0E
74692D
1F82F4
ENDCHAR
STARTCHAR uni1F64
ENCODING 8036
SWIDTH 701 0
DWIDTH 14 0
BBX 12 15 1 0
BITMAP
038340
00D700
00D600
018900
000000
180028
3C002C
74001E
B0000E
E0380B
E0280B
E0280B
B03C0E
74692D
1F82F4
ENDCHAR
STARTCHAR uni1F65
ENCODING 8037
SWIDTH 701 0
DWIDTH 14 0
BBX 12 15 1 0
BITMAP
01A340
034700
034A00
018900
000000
180028
3C002C
74001E
B0000E
E0380B
E0280B
E0280B
B03C0E
74692D
1F82F4
ENDCHAR
STARTCHAR uni1F66
ENCODING 8038
SWIDTH 701 0
DWIDTH 14 0
BBX 12 17 1 0
BITMAP
01A580
025B40
000000
003800
001D00
002800
000000
180028
3C002C
74001E
B0000E
E0380B
E0280B
E0280B
B03C0E
74692D
1F82F4
ENDCHAR
STARTCHAR uni1F67
ENCODING 8039
SWIDTH 701 0
DWIDTH 14 0
BBX 12 17 1 0
BITMAP
01A580
025B40
000000
002C00
007400
002800
000000
180028
3C002C
74001E
B0000E
E0380B
E0280B
E0280B
B03C0E
74692D
1F82F4
ENDCHAR
STARTCHAR uni1F68
ENCODING 8040
SWIDTH 773 0
DWIDTH 15 0
BBX 15 13 0 0
BITMAP
E00BF900
28390B40
28B001D0
A1D000E0
02C000B0
02C00074
03C00074
02C000B4
02D000B0
01E000E0
00B002C0
003C0B40
03FE0FF8
ENDCHAR
STARTCHAR uni1F69
ENCODING 8041
SWIDTH 759 0
DWIDTH 15 0
BBX 16 13 -1 0
BITMAP
1E06FE00
741E06D0
303800B0
1CB00078
00E0003C
00E0002C
00E0002C
00E0002C
00F00038
00740074
003800E0
001E02C0
01FF47FD
ENDCHAR
STARTCHAR uni1F6A
ENCODING 8042
SWIDTH 900 0
DWIDTH 18 0
BBX 17 13 0 0
BITMAP
D2806FE000
7681E06C00
35C7400E00
A0CB000740
000E000380
001D000380
001D0003C0
001E000380
000E000780
000B000B40
0003801E00
0001E03C00
002FF0BFC0
ENDCHAR
STARTCHAR uni1F6B
ENCODING 8043
SWIDTH 896 0
DWIDTH 18 0
BBX 17 13 0 0
BITMAP
76806FD000
D282D07C00
C187400E00
61CF000740
001E000380
001D000380
001D000380
001D000380
000E000740
000B000B00
0007801E00
0001D07800
002FF0BFC0
ENDCHAR
STARTCHAR uni1F6C
ENCODING 8044
SWIDTH 895 0
DWIDTH 18 0
BBX 17 13 0 0
BITMAP
D1C06F9000
7682D07800
3687400E00
A34E000B40
001D000380
001D000380
001D000380
001D000380
000E000740
000B000B00
0007801E00
0001D07800
002FF0BFC0
ENDCHAR
STARTCHAR uni1F6D
ENCODING 8045
SWIDTH 891 0
DWIDTH 18 0
BBX 17 13 0 0
BITMAP
76806F9000
D282D07800
C347400E00
634E000B40
001D000740
001D000380
001D000380
001D000380
001E000740
000B000B00
0007801D00
0002D07800
002FF0BFC0
ENDCHAR
STARTCHAR uni1F6E
ENCODING 8046
SWIDTH 817 0
DWIDTH 16 0
BBX 17 13 -1 0
BITMAP
7FC0BF9000
000790B400
1E0E002D00
071D000E00
092C000B00
0038000B00
0038000B40
003C000B00
002C000F00
001D001E00
000B002C00
000380B400
007FD1FF40
ENDCHAR
STARTCHAR uni1F6F
ENCODING 8047
SWIDTH 817 0
DWIDTH 16 0
BBX 17 13 -1 0
BITMAP
7FC0BF9000
000790B400
0B0E002D00
1C1D000E00
092C000B00
0038000B00
0038000B40
003C000B00
002C000F00
001D001E00
000B002C00
000380B400
007FD1FF40
ENDCHAR
STARTCHAR uni1F70
ENCODING 8048
SWIDTH 560 0
DWIDTH 11 0
BBX 10 15 1 0
BITMAP
090000
0B4000
02D000
009000
000000
0BE1C0
2D1AC0
B40B80
F00780
E00740
E00740
E00700
B00B00
782B40
1BD2E0
ENDCHAR
STARTCHAR uni1F71
ENCODING 8049
SWIDTH 560 0
DWIDTH 11 0
BBX 10 15 1 0
BITMAP
000800
003D00
00B000
008000
000000
0BE1C0
2D1AC0
B40B80
F00780
E00740
E00740
E00700
B00B00
782B40
1BD2E0
ENDCHAR
STARTCHAR uni1F72
ENCODING 8050
SWIDTH 448 0
DWIDTH 9 0
BBX 8 15 1 0
BITMAP
1800
1E00
0740
0180
0000
1BE4
7818
B000
7800
2FD0
B400
E000
E000
B419
1BF8
ENDCHAR
STARTCHAR uni1F73
ENCODING 8051
SWIDTH 448 0
DWIDTH 9 0
BBX 8 15 1 0
BITMAP
0024
00B4
02D0
0240
0000
1BE4
7818
B000
7800
2FD0
B400
E000
E000
B419
1BF8
ENDCHAR
STARTCHAR uni1F74
ENCODING 8052
SWIDTH 541 0
DWIDTH 11 0
BBX 9 18 1 -3
BITMAP
060000
0B4000
02D000
006000
000000
71BD00
760B00
780740
740740
740740
740740
740740
740740
740740
740740
000740
000740
000740
ENDCHAR
STARTCHAR uni1F75
ENCODING 8053
SWIDTH 541 0
DWIDTH 11 0
BBX 9 18 1 -3
BITMAP
000800
002D00
00B400
008000
000000
71BD00
760B00
780740
740740
740740
740740
740740
740740
740740
740740
000740
000740
000740
ENDCHAR
STARTCHAR uni1F76
ENCODING 8054
SWIDTH 262 0
DWIDTH 5 0
BBX 5 15 0 0
BITMAP
9000
B000
2C00
0900
0000
1D00
1D00
1D00
1D00
1D00
1D00
1D00
1D00
1D00
0B80
ENDCHAR
STARTCHAR uni1F77
ENCODING 8055
SWIDTH 262 0
DWIDTH 5 0
BBX 4 15 1 0
BITMAP
06
1E
38
60
00
74
74
74
74
74
74
74
74
74
2E
ENDCHAR
STARTCHAR uni1F78
ENCODING 8056
SWIDTH 535 0
DWIDTH 11 0
BBX 9 15 1 0
BITMAP
080000
0F0000
038000
009000
000000
0BE400
391E00
B40740
E00380
E00380
E00380
E00380
B00740
391E00
0BF400
ENDCHAR
STARTCHAR uni1F79
ENCODING 8057
SWIDTH 535 0
DWIDTH 11 0
BBX 9 15 1 0
BITMAP
001800
007800
01E000
018000
000000
0BE400
391E00
B40740
E00380
E00380
E00380
E00380
B00740
391E00
0BF400
ENDCHAR
STARTCHAR uni1F7A
ENCODING 8058
SWIDTH 510 0
DWIDTH 10 0
BBX 8 15 1 0
BITMAP
1800
2D00
0740
0180
0000
B01D
B00E
B00B
B00B
B00B
B00B
B00B
B00E
382C
1BE4
ENDCHAR
STARTCHAR uni1F7B
ENCODING 8059
SWIDTH 510 0
DWIDTH 10 0
BBX 8 15 1 0
BITMAP
0024
00B4
02D0
0240
0000
B01D
B00E
B00B
B00B
B00B
B00B
B00B
B00E
382C
1BE4
ENDCHAR
STARTCHAR uni1F7C
ENCODING 8060
SWIDTH 701 0
DWIDTH 14 0
BBX 12 15 1 0
BITMAP
018000
01E000
007400
001800
000000
180028
3C002C
74001E
B0000E
E0380B
E0280B
E0280B
B03C0E
74692D
1F82F4
ENDCHAR
STARTCHAR uni1F7D
ENCODING 8061
SWIDTH 701 0
DWIDTH 14 0
BBX 12 15 1 0
BITMAP
000240
000B40
001D00
002400
000000
180028
3C002C
74001E
B0000E
E0380B
E0280B
E0280B
B03C0E
74692D
1F82F4
ENDCHAR
STARTCHAR uni1F80
ENCODING 8064
SWIDTH 560 0
DWIDTH 11 0
BBX 10 19 1 -4
BITMAP
02D000
007000
007000
00D000
000000
0BE1C0
2D1AC0
B40B80
F00780
E00740
E00740
E00700
B00B00
782B40
1BD2E0
000000
009000
00D000
00B400
ENDCHAR
STARTCHAR uni1F81
ENCODING 8065
SWIDTH 560 0
DWIDTH 11 0
BBX 10 19 1 -4
BITMAP
01B000
028000
028000
005000
000000
0BE1C0
2D1AC0
B40B80
F00780
E00740
E00740
E00700
B00B00
782B40
1BD2E0
000000
009000
00D000
00B400
ENDCHAR
STARTCHAR uni1F82
ENCODING 8066
SWIDTH 560 0
DWIDTH 11 0
BBX 10 19 1 -4
BITMAP
1D3400
073800
072800
091800
000000
0BE1C0
2D1AC0
B40B80
F00780
E00740
E00740
E00700
B00B00
782B40
1BD2E0
000000
009000
00D000
00B400
ENDCHAR
STARTCHAR uni1F83
ENCODING 8067
SWIDTH 560 0
DWIDTH 11 0
BBX 10 19 1 -4
BITMAP
0B7400
183400
182800
091800
000000
0BE1C0
2D1AC0
B40B80
F00780
E00740
E00740
E00700
B00B00
782B40
1BD2E0
000000
009000
00D000
00B400
ENDCHAR
STARTCHAR uni1F84
ENCODING 8068
SWIDTH 560 0
DWIDTH 11 0
BBX 10 19 1 -4
BITMAP
1D1C00
072800
072400
093000
000000
0BE1C0
2D1AC0
B40B80
F00780
E00740
E00740
E00700
B00B00
782B40
1BD2E0
000000
009000
00D000
00B400
ENDCHAR
STARTCHAR uni1F85
ENCODING 8069
SWIDTH 560 0
DWIDTH 11 0
BBX 10 19 1 -4
BITMAP
0B5800
1D2800
1C3400
063000
000000
0BE1C0
2D1AC0
B40B80
F00780
E00740
E00740
E00700
B00B00
782B40
1BD2E0
000000
009000
00D000
00B400
ENDCHAR
STARTCHAR uni1F86
ENCODING 8070
SWIDTH 560 0
DWIDTH 11 0
BBX 10 21 1 -4
BITMAP
068900
0DBC00
000000
01D000
007000
009000
000000
0BE1C0
2D1AC0
B40B80
F00780
E00740
E00740
E00700
B00B00
782B40
1BD2E0
000000
009000
00D000
00B400
ENDCHAR
STARTCHAR uni1F87
ENCODING 8071
SWIDTH 560 0
DWIDTH 11 0
BBX 10 21 1 -4
BITMAP
068900
0DBC00
000000
01A000
028000
009000
000000
0BE1C0
2D1AC0
B40B80
F00780
E00740
E00740
E00700
B00B00
782B40
1BD2E0
000000
009000
00D000
00B400
ENDCHAR
STARTCHAR uni1F88
ENCODING 8072
SWIDTH 839 0
DWIDTH 17 0
BBX 16 13 0 0
BITMAP
E03D0000
287E0000
28AB0000
60E74000
01D38000
02C2C02C
0381D02C
0740E028
0BFFF028
0E007428
1D003828
2C002C2C
38001D1F
ENDCHAR
STARTCHAR uni1F89
ENCODING 8073
SWIDTH 832 0
DWIDTH 17 0
BBX 17 13 -1 0
BITMAP
1E0F000000
741F400000
302A800000
1C35C00000
0070D00000
00A0A00E00
00D0740E00
01C0780E00
02FFFC0E00
03401D0E00
0B000E0E00
0E000F0E00
1E000B47C0
ENDCHAR
STARTCHAR uni1F8A
ENCODING 8074
SWIDTH 972 0
DWIDTH 19 0
BBX 19 13 0 0
BITMAP
D281F00000
7682F40000
35C3780000
A0C76C0000
000B1D0000
000E0E00E0
001D0B00D0
002C0740D0
003FFF80D0
007402C0D0
00B001D0D0
00E000E0E0
01D000B0B8
ENDCHAR
STARTCHAR uni1F8B
ENCODING 8075
SWIDTH 968 0
DWIDTH 19 0
BBX 19 13 0 0
BITMAP
7681F00000
D282B40000
C183780000
61C72C0000
000A1D0000
000D0E01D0
001D0B01D0
002C0741D0
003FFF81D0
007402C1D0
00B001D1D0
00E000E0D0
01D000B0B8
ENDCHAR
STARTCHAR uni1F8C
ENCODING 8076
SWIDTH 968 0
DWIDTH 19 0
BBX 19 13 0 0
BITMAP
D1C1F00000
7682B40000
3683780000
A3472C0000
000A1D0000
000D0E01D0
001D0B01D0
002C0741D0
003FFF81D0
007402C1D0
00B001D1D0
00E000E0D0
01D000B0B8
ENDCHAR
STARTCHAR uni1F8D
ENCODING 8077
SWIDTH 964 0
DWIDTH 19 0
BBX 19 13 0 0
BITMAP
7681E00000
D282B00000
C343740000
6347280000
000A1C0000
000D0D01D0
001C0E01D0
00280B01D0
007FFF81D0
00B002C1D0
00E002D1D0
01D001E1D0
02C000F0B8
ENDCHAR
STARTCHAR uni1F8E
ENCODING 8078
SWIDTH 872 0
DWIDTH 17 0
BBX 18 13 -1 0
BITMAP
7FC7C00000
000AD00000
1E0DE00000
071CB00000
092C740000
0038380380
00742C0340
00B01D0340
00FFFE0340
01D00B0340
02C0074340
0380038380
074002C2E0
ENDCHAR
STARTCHAR uni1F8F
ENCODING 8079
SWIDTH 872 0
DWIDTH 17 0
BBX 18 13 -1 0
BITMAP
7FC7C00000
000AD00000
0B0DE00000
1C1CB00000
092C740000
0038380380
00742C0340
00B01D0340
00FFFE0340
01D00B0340
02C0074340
0380038380
074002C2E0
ENDCHAR
STARTCHAR uni1F90
ENCODING 8080
SWIDTH 541 0
DWIDTH 11 0
BBX 9 19 1 -4
BITMAP
02D000
007400
007400
009000
000000
71BD00
760B00
780740
740740
740740
740740
740740
740740
740740
740740
000740
600740
700740
2C0000
ENDCHAR
STARTCHAR uni1F91
ENCODING 8081
SWIDTH 541 0
DWIDTH 11 0
BBX 9 19 1 -4
BITMAP
00B000
028000
028000
005000
000000
71BD00
760B00
780740
740740
740740
740740
740740
740740
740740
740740
000740
600740
700740
2C0000
ENDCHAR
STARTCHAR uni1F92
ENCODING 8082
SWIDTH 541 0
DWIDTH 11 0
BBX 9 19 1 -4
BITMAP
1E3400
076800
075800
090C00
000000
71BD00
760B00
780740
740740
740740
740740
740740
740740
740740
740740
000740
600740
700740
2C0000
ENDCHAR
STARTCHAR uni1F93
ENCODING 8083
SWIDTH 541 0
DWIDTH 11 0
BBX 9 19 1 -4
BITMAP
0B7400
1C3400
1C2800
0A1800
000000
71BD00
760B00
780740
740740
740740
740740
740740
740740
740740
740740
000740
600740
700740
2C0000
ENDCHAR
STARTCHAR uni1F94
ENCODING 8084
SWIDTH 541 0
DWIDTH 11 0
BBX 9 19 1 -4
BITMAP
1E1D00
075C00
076800
092400
000000
71BD00
760B00
780740
740740
740740
740740
740740
740740
740740
740740
000740
600740
700740
2C0000
ENDCHAR
STARTCHAR uni1F95
ENCODING 8085
SWIDTH 541 0
DWIDTH 11 0
BBX 9 19 1 -4
BITMAP
075C00
0D2800
0D2400
063000
000000
71BD00
760B00
780740
740740
740740
740740
740740
740740
740740
740740
000740
600740
700740
2C0000
ENDCHAR
STARTCHAR uni1F96
ENCODING 8086
SWIDTH 541 0
DWIDTH 11 0
BBX 9 21 1 -4
BITMAP
068500
0D7D00
000000
01E000
007000
009000
000000
71BD00
760B00
780740
740740
740740
740740
740740
740740
740740
740740
000740
600740
700740
2C0000
ENDCHAR
STARTCHAR uni1F97
ENCODING 8087
SWIDTH 541 0
DWIDTH 11 0
BBX 9 21 1 -4
BITMAP
068500
0D7D00
000000
00B000
01C000
009000
000000
71BD00
760B00
780740
740740
740740
740740
740740
740740
740740
740740
000740
600740
700740
2C0000
ENDCHAR
STARTCHAR uni1F98
ENCODING 8088
SWIDTH 1028 0
DWIDTH 21 0
BBX 20 13 0 0
BITMAP
E0E000E000
28E000E000
28E000E000
A0E000E000
00E000E000
00E000E038
00FFFFE038
00E000E038
00E000E038
00E000E038
00E000E038
00E000E038
00E000E01F
ENDCHAR
STARTCHAR uni1F99
ENCODING 8089
SWIDTH 1028 0
DWIDTH 21 0
BBX 21 13 -1 0
BITMAP
1E3800380000
743800380000
303800380000
1C3800380000
003800380000
003800380E00
003FFFF80E00
003800380E00
003800380E00
003800380E00
003800380E00
003800380E00
0038003807C0
ENDCHAR
STARTCHAR uni1F9A
ENCODING 8090
SWIDTH 1148 0
DWIDTH 23 0
BBX 23 13 0 0
BITMAP
D287400B0000
7687400B0000
35C7400B0000
A0C7400B0000
0007400B0000
0007400B02C0
0007FFFF02C0
0007400B02C0
0007400B02C0
0007400B02C0
0007400B02C0
0007400B02C0
0007400B00F4
ENDCHAR
STARTCHAR uni1F9B
ENCODING 8091
SWIDTH 1144 0
DWIDTH 23 0
BBX 23 13 0 0
BITMAP
768B000B0000
D28B000B0000
C18B000B0000
61CB000B0000
000B000B0000
000B000B02C0
000BFFFF02C0
000B000B02C0
000B000B02C0
000B000B02C0
000B000B02C0
000B000B02C0
000B000B01F4
ENDCHAR
STARTCHAR uni1F9C
ENCODING 8092
SWIDTH 1143 0
DWIDTH 23 0
BBX 23 13 0 0
BITMAP
D1CB000B0000
768B000B0000
368B000B0000
A34B000B0000
000B000B0000
000B000B02C0
000BFFFF02C0
000B000B02C0
000B000B02C0
000B000B02C0
000B000B02C0
000B000B02C0
000B000B01F4
ENDCHAR
STARTCHAR uni1F9D
ENCODING 8093
SWIDTH 1140 0
DWIDTH 23 0
BBX 22 13 0 0
BITMAP
768B000E0000
D28B000E0000
C34B000E0000
634B000E0000
000B000E0000
000B000E02C0
000BFFFE02C0
000B000E0280
000B000E0280
000B000E0280
000B000E0280
000B000E02C0
000B000E01F0
ENDCHAR
STARTCHAR uni1F9E
ENCODING 8094
SWIDTH 1098 0
DWIDTH 22 0
BBX 23 13 -1 0
BITMAP
7FC7400B0000
0007400B0000
1E07400B0000
0707400B0000
0907400B0000
0007400B02C0
0007FFFF02C0
0007400B02C0
0007400B02C0
0007400B02C0
0007400B02C0
0007400B02C0
0007400B00B4
ENDCHAR
STARTCHAR uni1F9F
ENCODING 8095
SWIDTH 1098 0
DWIDTH 22 0
BBX 23 13 -1 0
BITMAP
7FC7400B0000
0007400B0000
0B07400B0000
1C07400B0000
0907400B0000
0007400B02C0
0007FFFF02C0
0007400B02C0
0007400B02C0
0007400B02C0
0007400B02C0
0007400B02C0
0007400B00B4
ENDCHAR
STARTCHAR uni1FA0
ENCODING 8096
SWIDTH 701 0
DWIDTH 14 0
BBX 12 19 1 -4
BITMAP
007800
000D00
000D00
002800
000000
180028
3C002C
74001E
B0000E
E0380B
E0280B
E0280B
B03C0E
74692D
1F82F4
000000
002400
002800
001E00
ENDCHAR
STARTCHAR uni1FA1
ENCODING 8097
SWIDTH 701 0
DWIDTH 14 0
BBX 12 19 1 -4
BITMAP
002D00
00B000
007400
001400
000000
180028
3C002C
74001E
B0000E
E0380B
E0280B
E0280B
B03C0E
74692D
1F82F4
000000
002400
002800
001E00
ENDCHAR
STARTCHAR uni1FA2
ENCODING 8098
SWIDTH 701 0
DWIDTH 14 0
BBX 12 19 1 -4
BITMAP
038A00
00DA00
00D700
018240
000000
180028
3C002C
74001E
B0000E
E0380B
E0280B
E0280B
B03C0E
74692D
1F82F4
000000
002400
002800
001E00
ENDCHAR
STARTCHAR uni1FA3
ENCODING 8099
SWIDTH 701 0
DWIDTH 14 0
BBX 12 19 1 -4
BITMAP
01D900
034A00
034700
018300
000000
180028
3C002C
74001E
B0000E
E0380B
E0280B
E0280B
B03C0E
74692D
1F82F4
000000
002400
002800
001E00
ENDCHAR
STARTCHAR uni1FA4
ENCODING 8100
SWIDTH 701 0
DWIDTH 14 0
BBX 12 19 1 -4
BITMAP
038340
00D700
00D600
018900
000000
180028
3C002C
74001E
B0000E
E0380B
E0280B
E0280B
B03C0E
74692D
1F82F4
000000
002400
002800
001E00
ENDCHAR
STARTCHAR uni1FA5
ENCODING 8101
SWIDTH 701 0
DWIDTH 14 0
BBX 12 19 1 -4
BITMAP
01A340
034700
034A00
018900
000000
180028
3C002C
74001E
B0000E
E0380B
E0280B
E0280B
B03C0E
74692D
1F82F4
000000
002400
002800
001E00
ENDCHAR
STARTCHAR uni1FA6
ENCODING 8102
SWIDTH 701 0
DWIDTH 14 0
BBX 12 21 1 -4
BITMAP
01A580
025B40
000000
003800
001D00
002800
000000
180028
3C002C
74001E
B0000E
E0380B
E0280B
E0280B
B03C0E
74692D
1F82F4
000000
002400
002800
001E00
ENDCHAR
STARTCHAR uni1FA7
ENCODING 8103
SWIDTH 701 0
DWIDTH 14 0
BBX 12 21 1 -4
BITMAP
01A580
025B40
000000
002C00
007400
002800
000000
180028
3C002C
74001E
B0000E
E0380B
E0280B
E0280B
B03C0E
74692D
1F82F4
000000
002400
002800
001E00
ENDCHAR
STARTCHAR uni1FA8
ENCODING 8104
SWIDTH 1031 0
DWIDTH 21 0
BBX 20 13 0 0
BITMAP
E00BF90000
28390B4000
28B001D000
A1D000E000
02C000B000
02C0007438
03C0007438
02C000B438
02D000B038
01E000E038
00B002C038
003C0B4038
03FE0FF81F
ENDCHAR
STARTCHAR uni1FA9
ENCODING 8105
SWIDTH 1018 0
DWIDTH 20 0
BBX 21 13 -1 0
BITMAP
1E06FE000000
741E06D00000
303800B00000
1CB000780000
00E0003C0000
00E0002C1D00
00E0002C1D00
00E0002C1D00
00F000381D00
007400741D00
003800E01D00
001E02C00D00
01FF47FD0B80
ENDCHAR
STARTCHAR uni1FAA
ENCODING 8106
SWIDTH 1158 0
DWIDTH 23 0
BBX 23 13 0 0
BITMAP
D2806FE00000
7681E06C0000
35C7400E0000
A0CB00074000
000E00038000
001D000381D0
001D0003C1D0
001E000381D0
000E000781C0
000B000B41C0
0003801E01C0
0001E03C01D0
002FF0BFC0B8
ENDCHAR
STARTCHAR uni1FAB
ENCODING 8107
SWIDTH 1155 0
DWIDTH 23 0
BBX 23 13 0 0
BITMAP
76806FD00000
D282D07C0000
C187400E0000
61CF00074000
001E00038000
001D000381C0
001D000381C0
001D000381C0
000E000741C0
000B000B01C0
0007801E01C0
0001D07801D0
002FF0BFC0B4
ENDCHAR
STARTCHAR uni1FAC
ENCODING 8108
SWIDTH 1154 0
DWIDTH 23 0
BBX 23 13 0 0
BITMAP
D1C06F900000
7682D0780000
3687400E0000
A34E000B4000
001D00038000
001D000382C0
001D000382C0
001D000382C0
000E000742C0
000B000B02C0
0007801E01C0
0001D07801D0
002FF0BFC0B4
ENDCHAR
STARTCHAR uni1FAD
ENCODING 8109
SWIDTH 1150 0
DWIDTH 23 0
BBX 23 13 0 0
BITMAP
76806F900000
D282D0780000
C347400E0000
634E000B4000
001D00074000
001D000382C0
001D000382C0
001D000382C0
001E000742C0
000B000B02C0
0007801D02C0
0002D07801C0
002FF0BFC0B4
ENDCHAR
STARTCHAR uni1FAE
ENCODING 8110
SWIDTH 1078 0
DWIDTH 22 0
BBX 22 13 -1 0
BITMAP
7FC0BF900000
000790B40000
1E0E002D0000
071D000E0000
092C000B0000
0038000B0380
0038000B4380
003C000B0380
002C000F0380
001D001E0380
000B002C0380
000380B40380
007FD1FF41F0
ENDCHAR
STARTCHAR uni1FAF
ENCODING 8111
SWIDTH 1078 0
DWIDTH 22 0
BBX 22 13 -1 0
BITMAP
7FC0BF900000
000790B40000
0B0E002D0000
1C1D000E0000
092C000B0000
0038000B0380
0038000B4380
003C000B0380
002C000F0380
001D001E0380
000B002C0380
000380B40380
007FD1FF41F0
ENDCHAR
STARTCHAR uni1FB0
ENCODING 8112
SWIDTH 560 0
DWIDTH 11 0
BBX 10 14 1 0
BITMAP
180600
0D1D00
06F400
000000
0BE1C0
2D1AC0
B40B80
F00780
E00740
E00740
E00700
B00B00
782B40
1BD2E0
ENDCHAR
STARTCHAR uni1FB1
ENCODING 8113
SWIDTH 560 0
DWIDTH 11 0
BBX 10 13 1 0
BITMAP
0FFD00
000000
000000
0BE1C0
2D1AC0
B40B80
F00780
E00740
E00740
E00700
B00B00
782B40
1BD2E0
ENDCHAR
STARTCHAR uni1FB2
ENCODING 8114
SWIDTH 560 0
DWIDTH 11 0
BBX 10 19 1 -4
BITMAP
090000
0B4000
02D000
009000
000000
0BE1C0
2D1AC0
B40B80
F00780
E00740
E00740
E00700
B00B00
782B40
1BD2E0
000000
009000
00D000
00B400
ENDCHAR
STARTCHAR uni1FB3
ENCODING 8115
SWIDTH 560 0
DWIDTH 11 0
BBX 10 14 1 -4
BITMAP
0BE1C0
2D1AC0
B40B80
F00780
E00740
E00740
E00700
B00B00
782B40
1BD2E0
000000
009000
00D000
00B400
ENDCHAR
STARTCHAR uni1FB4
ENCODING 8116
SWIDTH 560 0
DWIDTH 11 0
BBX 10 19 1 -4
BITMAP
000800
003D00
00B000
008000
000000
0BE1C0
2D1AC0
B40B80
F00780
E00740
E00740
E00700
B00B00
782B40
1BD2E0
000000
009000
00D000
00B400
ENDCHAR
STARTCHAR uni1FB6
ENCODING 8118
SWIDTH 560 0
DWIDTH 11 0
BBX 10 14 1 0
BITMAP
050100
1ED700
247D00
000000
0BE1C0
2D1AC0
B40B80
F00780
E00740
E00740
E00700
B00B00
782B40
1BD2E0
ENDCHAR
STARTCHAR uni1FB7
ENCODING 8119
SWIDTH 560 0
DWIDTH 11 0
BBX 10 18 1 -4
BITMAP
050100
1ED700
247D00
000000
0BE1C0
2D1AC0
B40B80
F00780
E00740
E00740
E00700
B00B00
782B40
1BD2E0
000000
009000
00D000
00B400
ENDCHAR
STARTCHAR uni1FB8
ENCODING 8120
SWIDTH 544 0
DWIDTH 11 0
BBX 11 17 0 0
BITMAP
060240
034700
01B900
000000
00B800
00EC00
01DD00
028E00
034B00
074740
0B0380
0E02C0
1FFFD0
2C00E0
3800B0
740074
B00038
ENDCHAR
STARTCHAR uni1FB9
ENCODING 8121
SWIDTH 544 0
DWIDTH 11 0
BBX 11 15 0 0
BITMAP
07FF00
000000
00B800
00EC00
01DD00
028E00
034B00
074740
0B0380
0E02C0
1FFFD0
2C00E0
3800B0
740074
B00038
ENDCHAR
STARTCHAR uni1FBA
ENCODING 8122
SWIDTH 566 0
DWIDTH 11 0
BBX 11 13 0 0
BITMAP
A07C00
A0BD00
70DA00
31DB00
02C740
038380
0742C0
0B01D0
0FFFE0
1D00B0
2C0074
380038
74002C
ENDCHAR
STARTCHAR uni1FBB
ENCODING 8123
SWIDTH 566 0
DWIDTH 11 0
BBX 11 13 0 0
BITMAP
707C00
B0BD00
A0DA00
91DB00
02C740
038380
0742C0
0B01D0
0FFFE0
1D00B0
2C0074
380038
74002C
ENDCHAR
STARTCHAR uni1FBC
ENCODING 8124
SWIDTH 802 0
DWIDTH 16 0
BBX 16 13 0 0
BITMAP
00B80000
00EC0000
01DD0000
028E0000
034B0000
074740B0
0B0380B0
0E02C0B0
1FFFD0B0
2C00E0B0
3800B0B0
74007474
B000382D
ENDCHAR
STARTCHAR uni1FBD
ENCODING 8125
SWIDTH 542 0
DWIDTH 11 0
BBX 3 4 4 11
BITMAP
E4
2C
2C
64
ENDCHAR
STARTCHAR uni1FBE
ENCODING 8126
SWIDTH 262 0
DWIDTH 5 0
BBX 4 8 1 0
BITMAP
74
74
74
74
74
74
74
2E
ENDCHAR
STARTCHAR uni1FBF
ENCODING 8127
SWIDTH 542 0
DWIDTH 11 0
BBX 3 4 4 11
BITMAP
E4
2C
2C
64
ENDCHAR
STARTCHAR uni1FC0
ENCODING 8128
SWIDTH 542 0
DWIDTH 11 0
BBX 7 3 2 11
BITMAP
1404
AA28
C1F4
ENDCHAR
STARTCHAR uni1FC1
ENCODING 8129
SWIDTH 542 0
DWIDTH 11 0
BBX 7 5 2 12
BITMAP
3D24
52E0
0000
7470
7470
ENDCHAR
STARTCHAR uni1FC2
ENCODING 8130
SWIDTH 541 0
DWIDTH 11 0
BBX 9 19 1 -4
BITMAP
060000
0B4000
02D000
006000
000000
71BD00
760B00
780740
740740
740740
740740
740740
740740
740740
740740
000740
600740
700740
2C0000
ENDCHAR
STARTCHAR uni1FC3
ENCODING 8131
SWIDTH 541 0
DWIDTH 11 0
BBX 9 14 1 -4
BITMAP
71BD00
760B00
780740
740740
740740
740740
740740
740740
740740
740740
000740
600740
700740
2C0000
ENDCHAR
STARTCHAR uni1FC4
ENCODING 8132
SWIDTH 541 0
DWIDTH 11 0
BBX 9 19 1 -4
BITMAP
000800
002D00
00B400
008000
000000
71BD00
760B00
780740
740740
740740
740740
740740
740740
740740
740740
000740
600740
700740
2C0000
ENDCHAR
STARTCHAR uni1FC6
ENCODING 8134
SWIDTH 541 0
DWIDTH 11 0
BBX 9 17 1 -3
BITMAP
050100
1ED300
286D00
000000
71BD00
760B00
780740
740740
740740
740740
740740
740740
740740
740740
000740
000740
000740
ENDCHAR
STARTCHAR uni1FC7
ENCODING 8135
SWIDTH 541 0
DWIDTH 11 0
BBX 9 18 1 -4
BITMAP
050100
1ED300
286D00
000000
71BD00
760B00
780740
740740
740740
740740
740740
740740
740740
740740
000740
600740
700740
2C0000
ENDCHAR
STARTCHAR uni1FC8
ENCODING 8136
SWIDTH 591 0
DWIDTH 12 0
BBX 12 13 -1 0
BITMAP
70FFFE
34E000
34E000
28E000
00E000
00E000
00FFF8
00E000
00E000
00E000
00E000
00E000
00FFFF
ENDCHAR
STARTCHAR uni1FC9
ENCODING 8137
SWIDTH 591 0
DWIDTH 12 0
BBX 12 13 -1 0
BITMAP
28FFFE
34E000
70E000
70E000
00E000
00E000
00FFF8
00E000
00E000
00E000
00E000
00E000
00FFFF
ENDCHAR
STARTCHAR uni1FCA
ENCODING 8138
SWIDTH 716 0
DWIDTH 14 0
BBX 14 13 -1 0
BITMAP
70E000E0
34E000E0
34E000E0
28E000E0
00E000E0
00E000E0
00FFFFE0
00E000E0
00E000E0
00E000E0
00E000E0
00E000E0
00E000E0
ENDCHAR
STARTCHAR uni1FCB
ENCODING 8139
SWIDTH 716 0
DWIDTH 14 0
BBX 14 13 -1 0
BITMAP
28E000E0
34E000E0
70E000E0
70E000E0
00E000E0
00E000E0
00FFFFE0
00E000E0
00E000E0
00E000E0
00E000E0
00E000E0
00E000E0
ENDCHAR
STARTCHAR uni1FCC
ENCODING 8140
SWIDTH 910 0
DWIDTH 18 0
BBX 17 13 1 0
BITMAP
7400740000
7400740000
7400740000
7400740000
7400740000
7400741D00
7FFFF41D00
7400741D00
7400741D00
7400741D00
7400741D00
7400741D00
7400740B80
ENDCHAR
STARTCHAR uni1FCD
ENCODING 8141
SWIDTH 542 0
DWIDTH 11 0
BBX 6 4 2 11
BITMAP
A5C0
2CD0
2890
2460
ENDCHAR
STARTCHAR uni1FCE
ENCODING 8142
SWIDTH 542 0
DWIDTH 11 0
BBX 6 4 2 11
BITMAP
A4A0
2CE0
28D0
2580
ENDCHAR
STARTCHAR uni1FCF
ENCODING 8143
SWIDTH 542 0
DWIDTH 11 0
BBX 6 6 2 11
BITMAP
2920
66E0
0000
0A40
0280
0640
ENDCHAR
STARTCHAR uni1FD0
ENCODING 8144
SWIDTH 262 0
DWIDTH 5 0
BBX 7 14 -1 0
BITMAP
6024
7474
1B90
0000
0740
0740
0740
0740
0740
0740
0740
0740
0740
02E0
ENDCHAR
STARTCHAR uni1FD1
ENCODING 8145
SWIDTH 262 0
DWIDTH 5 0
BBX 6 13 -1 0
BITMAP
7FF0
0000
0000
0740
0740
0740
0740
0740
0740
0740
0740
0740
02E0
ENDCHAR
STARTCHAR uni1FD2
ENCODING 8146
SWIDTH 262 0
DWIDTH 5 0
BBX 7 15 -1 0
BITMAP
0A00
6634
6334
0200
0000
0740
0740
0740
0740
0740
0740
0740
0740
0740
02E0
ENDCHAR
STARTCHAR uni1FD3
ENCODING 8147
SWIDTH 262 0
DWIDTH 5 0
BBX 7 15 -1 0
BITMAP
0280
6274
6334
0600
0000
0740
0740
0740
0740
0740
0740
0740
0740
0740
02E0
ENDCHAR
STARTCHAR uni1FD6
ENCODING 8150
SWIDTH 262 0
DWIDTH 5 0
BBX 7 14 -1 0
BITMAP
1404
AA18
91F4
0000
0740
0740
0740
0740
0740
0740
0740
0740
0740
02E0
ENDCHAR
STARTCHAR uni1FD7
ENCODING 8151
SWIDTH 262 0
DWIDTH 5 0
BBX 7 17 -1 0
BITMAP
2E14
52E0
0000
7470
7474
0000
0000
0740
0740
0740
0740
0740
0740
0740
0740
0740
02E0
ENDCHAR
STARTCHAR uni1FD8
ENCODING 8152
SWIDTH 263 0
DWIDTH 5 0
BBX 7 17 -1 0
BITMAP
6024
3470
0BD0
0000
0740
0740
0740
0740
0740
0740
0740
0740
0740
0740
0740
0740
0740
ENDCHAR
STARTCHAR uni1FD9
ENCODING 8153
SWIDTH 263 0
DWIDTH 5 0
BBX 6 15 0 0
BITMAP
FFD0
0000
1D00
1D00
1D00
1D00
1D00
1D00
1D00
1D00
1D00
1D00
1D00
1D00
1D00
ENDCHAR
STARTCHAR uni1FDA
ENCODING 8154
SWIDTH 327 0
DWIDTH 7 0
BBX 6 13 -1 0
BITMAP
70E0
34E0
34E0
28E0
00E0
00E0
00E0
00E0
00E0
00E0
00E0
00E0
00E0
ENDCHAR
STARTCHAR uni1FDB
ENCODING 8155
SWIDTH 327 0
DWIDTH 7 0
BBX 6 13 -1 0
BITMAP
28E0
34E0
70E0
70E0
00E0
00E0
00E0
00E0
00E0
00E0
00E0
00E0
00E0
ENDCHAR
STARTCHAR uni1FDD
ENCODING 8157
SWIDTH 542 0
DWIDTH 11 0
BBX 6 4 2 11
BITMAP
69C0
A1C0
A0D0
2490
ENDCHAR
STARTCHAR uni1FDE
ENCODING 8158
SWIDTH 542 0
DWIDTH 11 0
BBX 6 4 2 11
BITMAP
2CA0
A0D0
61C0
2580
ENDCHAR
STARTCHAR uni1FDF
ENCODING 8159
SWIDTH 542 0
DWIDTH 11 0
BBX 6 6 2 11
BITMAP
2920
66E0
0000
0780
0E00
0600
ENDCHAR
STARTCHAR uni1FE0
ENCODING 8160
SWIDTH 510 0
DWIDTH 10 0
BBX 8 14 1 0
BITMAP
301C
2828
0BE0
0000
B01D
B00E
B00B
B00B
B00B
B00B
B00B
B00E
382C
1BE4
ENDCHAR
STARTCHAR uni1FE1
ENCODING 8161
SWIDTH 510 0
DWIDTH 10 0
BBX 8 13 1 0
BITMAP
2FF8
0000
0000
B01D
B00E
B00B
B00B
B00B
B00B
B00B
B00E
382C
1BE4
ENDCHAR
STARTCHAR uni1FE2
ENCODING 8162
SWIDTH 510 0
DWIDTH 10 0
BBX 8 15 1 0
BITMAP
0700
3758
3658
0180
0000
B01D
B00E
B00B
B00B
B00B
B00B
B00B
B00E
382C
1BE4
ENDCHAR
STARTCHAR uni1FE3
ENCODING 8163
SWIDTH 510 0
DWIDTH 10 0
BBX 8 15 1 0
BITMAP
00C0
35D8
3658
0200
0000
B01D
B00E
B00B
B00B
B00B
B00B
B00B
B00E
382C
1BE4
ENDCHAR
STARTCHAR uni1FE4
ENCODING 8164
SWIDTH 549 0
DWIDTH 11 0
BBX 9 18 1 -3
BITMAP
01E000
007400
007400
009000
000000
06F900
1D0B00
380380
7402C0
7002C0
7002C0
7003C0
740740
791F00
76F800
700000
740000
740000
ENDCHAR
STARTCHAR uni1FE5
ENCODING 8165
SWIDTH 549 0
DWIDTH 11 0
BBX 9 18 1 -3
BITMAP
00B000
028000
028000
005000
000000
06F900
1D0B00
380380
7402C0
7002C0
7002C0
7003C0
740740
791F00
76F800
700000
740000
740000
ENDCHAR
STARTCHAR uni1FE6
ENCODING 8166
SWIDTH 510 0
DWIDTH 10 0
BBX 8 14 1 0
BITMAP
1404
7B4D
60B8
0000
B01D
B00E
B00B
B00B
B00B
B00B
B00B
B00E
382C
1BE4
ENDCHAR
STARTCHAR uni1FE7
ENCODING 8167
SWIDTH 510 0
DWIDTH 10 0
BBX 8 17 1 0
BITMAP
2E48
21F4
0000
2838
2838
0000
0000
B01D
B00E
B00B
B00B
B00B
B00B
B00B
B00E
382C
1BE4
ENDCHAR
STARTCHAR uni1FE8
ENCODING 8168
SWIDTH 476 0
DWIDTH 10 0
BBX 10 17 0 0
BITMAP
0C0600
0A1D00
02F400
000000
B001D0
740380
2C0740
1D0A00
0A1D00
076800
02F400
01E000
00E000
00E000
00E000
00E000
00E000
ENDCHAR
STARTCHAR uni1FE9
ENCODING 8169
SWIDTH 476 0
DWIDTH 10 0
BBX 10 15 0 0
BITMAP
0FFD00
000000
B001D0
740380
2C0740
1D0A00
0A1D00
076800
02F400
01E000
00E000
00E000
00E000
00E000
00E000
ENDCHAR
STARTCHAR uni1FEA
ENCODING 8170
SWIDTH 600 0
DWIDTH 12 0
BBX 13 13 -1 0
BITMAP
71D00380
34B00740
34740E00
282C1D00
001D2800
000A7400
0007E000
0002D000
0002C000
0002C000
0002C000
0002C000
0002C000
ENDCHAR
STARTCHAR uni1FEB
ENCODING 8171
SWIDTH 600 0
DWIDTH 12 0
BBX 13 13 -1 0
BITMAP
29D00380
34B00740
70740E00
702C1D00
001D2800
000A7400
0007E000
0002D000
0002C000
0002C000
0002C000
0002C000
0002C000
ENDCHAR
STARTCHAR uni1FEC
ENCODING 8172
SWIDTH 684 0
DWIDTH 14 0
BBX 14 13 -1 0
BITMAP
1E3FFE00
743807C0
303800E0
1C3800E0
003800E0
003801E0
003807C0
003FF900
00380000
00380000
00380000
00380000
00380000
ENDCHAR
STARTCHAR uni1FED
ENCODING 8173
SWIDTH 542 0
DWIDTH 11 0
BBX 7 4 2 11
BITMAP
0900
6A34
6334
0200
ENDCHAR
STARTCHAR uni1FEE
ENCODING 8174
SWIDTH 542 0
DWIDTH 11 0
BBX 7 4 2 11
BITMAP
0280
6374
6334
0600
ENDCHAR
STARTCHAR uni1FEF
ENCODING 8175
SWIDTH 542 0
DWIDTH 11 0
BBX 3 4 3 12
BITMAP
74
38
28
1C
ENDCHAR
STARTCHAR uni1FF2
ENCODING 8178
SWIDTH 701 0
DWIDTH 14 0
BBX 12 19 1 -4
BITMAP
018000
01E000
007400
001800
000000
180028
3C002C
74001E
B0000E
E0380B
E0280B
E0280B
B03C0E
74692D
1F82F4
000000
002400
002800
001E00
ENDCHAR
STARTCHAR uni1FF3
ENCODING 8179
SWIDTH 701 0
DWIDTH 14 0
BBX 12 14 1 -4
BITMAP
180028
3C002C
74001E
B0000E
E0380B
E0280B
E0280B
B03C0E
74692D
1F82F4
000000
002400
002800
001E00
ENDCHAR
STARTCHAR uni1FF4
ENCODING 8180
SWIDTH 701 0
DWIDTH 14 0
BBX 12 19 1 -4
BITMAP
000240
000B40
001D00
002400
000000
180028
3C002C
74001E
B0000E
E0380B
E0280B
E0280B
B03C0E
74692D
1F82F4
000000
002400
002800
001E00
ENDCHAR
STARTCHAR uni1FF6
ENCODING 8182
SWIDTH 701 0
DWIDTH 14 0
BBX 12 14 1 0
BITMAP
005040
03B4D0
060B80
000000
180028
3C002C
74001E
B0000E
E0380B
E0280B
E0280B
B03C0E
74692D
1F82F4
ENDCHAR
STARTCHAR uni1FF7
ENCODING 8183
SWIDTH 701 0
DWIDTH 14 0
BBX 12 18 1 -4
BITMAP
005040
03B4D0
060B80
000000
180028
3C002C
74001E
B0000E
E0380B
E0280B
E0280B
B03C0E
74692D
1F82F4
000000
002400
002800
001E00
ENDCHAR
STARTCHAR uni1FF8
ENCODING 8184
SWIDTH 717 0
DWIDTH 14 0
BBX 15 13 -1 0
BITMAP
700BF900
34790B40
34F002D0
29D000E0
02C000B0
02C00074
03C00074
02C00074
02C000B0
01D000E0
00B002D0
00390B40
000BF900
ENDCHAR
ENDFONT
